<?xml version="1.0" encoding="UTF-8"?><svg id="_レイヤー_2" xmlns="http://www.w3.org/2000/svg" viewBox="0 0 149.67 55"><defs><style>.cls-1{fill:#bfc0c0;}.cls-2{fill:#fff;}</style></defs><g id="_画像上"><path class="cls-1" d="M136.57,0H13.11c-.5,0-1,0-1.51,0-.42,0-.84.01-1.26.02-.92.02-1.84.08-2.76.24-.92.16-1.78.44-2.61.86-.82.42-1.58.97-2.23,1.62-.66.65-1.2,1.41-1.62,2.23-.43.84-.7,1.7-.86,2.62-.17.91-.22,1.83-.25,2.75-.01.42-.01.84-.02,1.27v31.78c0,.43,0,.84.02,1.27.02.92.08,1.84.25,2.75.16.92.43,1.78.86,2.62.42.82.96,1.57,1.62,2.22.65.66,1.4,1.2,2.23,1.62.84.43,1.69.7,2.61.87.91.16,1.84.22,2.76.24.42,0,.84.01,1.26.01.5,0,1,0,1.51,0h123.46c.5,0,1,0,1.49,0,.42,0,.85,0,1.27-.01.92-.03,1.84-.08,2.75-.24.92-.17,1.78-.44,2.62-.87.82-.42,1.57-.96,2.22-1.62.65-.65,1.2-1.4,1.62-2.22.42-.83.7-1.7.85-2.62.17-.91.22-1.83.26-2.75,0-.43,0-.84,0-1.27.01-.5.01-1,.01-1.5V13.11c0-.5,0-1-.01-1.5,0-.42,0-.84,0-1.27-.03-.92-.09-1.84-.26-2.75-.15-.92-.43-1.78-.85-2.62-.42-.82-.97-1.58-1.62-2.23-.65-.65-1.4-1.2-2.22-1.62-.85-.43-1.7-.7-2.62-.86-.91-.16-1.83-.22-2.75-.24-.42,0-.85-.01-1.27-.02-.5,0-1,0-1.49,0h0Z"/><path d="M11.61,53.8c-.42,0-.83,0-1.24-.01-.77-.02-1.68-.06-2.57-.22-.84-.15-1.59-.4-2.28-.75-.72-.36-1.36-.83-1.92-1.4-.57-.56-1.04-1.2-1.4-1.92-.36-.69-.6-1.44-.75-2.28-.17-.93-.21-1.86-.23-2.58,0-.29-.02-1.26-.02-1.26V11.61s.01-.95.02-1.23c.02-.72.06-1.66.23-2.57.15-.84.39-1.59.75-2.29.37-.72.83-1.37,1.4-1.92.57-.57,1.22-1.04,1.93-1.41.71-.36,1.45-.6,2.27-.75.93-.17,1.86-.21,2.58-.23l1.24-.02h126.44l1.26.02c.71.02,1.64.06,2.55.22.83.15,1.58.39,2.3.75.71.36,1.35.83,1.91,1.4.56.56,1.03,1.21,1.41,1.93.35.7.6,1.45.74,2.27.16.87.21,1.76.24,2.59,0,.39,0,.81,0,1.22.01.52.01,1.01.01,1.5v28.78c0,.5,0,.99-.01,1.48,0,.45,0,.86,0,1.28-.03.81-.08,1.7-.24,2.55-.14.84-.38,1.59-.74,2.3-.37.71-.84,1.36-1.39,1.91-.57.57-1.21,1.04-1.92,1.41-.71.36-1.44.6-2.29.76-.88.16-1.79.2-2.57.22-.4,0-.82.01-1.23.01h-1.49s-124.96,0-124.96,0h0Z"/><path class="cls-2" d="M51.61,20.94h4.42l-2.18-6.41h-.06l-2.18,6.41h0ZM56.61,22.76h-5.57l-1.34,3.95h-2.36l5.28-14.62h2.45l5.28,14.62h-2.4l-1.34-3.95h0Z"/><path class="cls-2" d="M69.49,21.39c0-2.16-1.11-3.58-2.82-3.58s-2.79,1.45-2.79,3.58,1.12,3.58,2.79,3.58,2.82-1.41,2.82-3.58h0ZM71.74,21.39c0,3.31-1.77,5.44-4.45,5.44-1.52,0-2.72-.68-3.35-1.86h-.05v5.28h-2.19v-14.18h2.12v1.77h.04c.61-1.14,1.9-1.88,3.39-1.88,2.7,0,4.49,2.14,4.49,5.44h0Z"/><path class="cls-2" d="M81.22,21.39c0-2.16-1.12-3.58-2.82-3.58s-2.8,1.45-2.8,3.58,1.12,3.58,2.8,3.58,2.82-1.41,2.82-3.58h0ZM83.47,21.39c0,3.31-1.77,5.44-4.45,5.44-1.52,0-2.72-.68-3.35-1.86h-.05v5.28h-2.19v-14.18h2.12v1.77h.04c.61-1.14,1.9-1.88,3.39-1.88,2.7,0,4.49,2.14,4.49,5.44h0Z"/><path class="cls-2" d="M91.22,22.64c.16,1.45,1.57,2.4,3.49,2.4s3.17-.95,3.17-2.26c0-1.13-.8-1.81-2.7-2.28l-1.89-.46c-2.68-.65-3.93-1.9-3.93-3.94,0-2.52,2.2-4.25,5.32-4.25s5.21,1.73,5.28,4.25h-2.21c-.13-1.46-1.34-2.34-3.1-2.34s-2.97.89-2.97,2.19c0,1.03.77,1.64,2.65,2.11l1.61.4c3,.71,4.24,1.91,4.24,4.05,0,2.73-2.18,4.45-5.64,4.45-3.24,0-5.43-1.67-5.57-4.32h2.24Z"/><path class="cls-2" d="M104.91,13.54v2.52h2.03v1.73h-2.03v5.87c0,.91.41,1.34,1.3,1.34.22,0,.58-.03.72-.05v1.72c-.24.06-.73.1-1.22.1-2.16,0-3-.81-3-2.88v-6.11h-1.55v-1.73h1.55v-2.52h2.2Z"/><path class="cls-2" d="M115.99,21.39c0-2.3-1.05-3.66-2.83-3.66s-2.83,1.37-2.83,3.66,1.05,3.66,2.83,3.66,2.83-1.35,2.83-3.66h0ZM108.11,21.39c0-3.35,1.98-5.46,5.05-5.46s5.06,2.11,5.06,5.46-1.96,5.46-5.06,5.46-5.05-2.1-5.05-5.46h0Z"/><path class="cls-2" d="M120.02,16.06h2.09v1.81h.05c.33-1.21,1.31-1.92,2.56-1.92.31,0,.58.04.75.08v2.05c-.17-.07-.56-.13-.98-.13-1.41,0-2.28.95-2.28,2.45v6.32h-2.19v-10.66h0Z"/><path class="cls-2" d="M128.16,20.4h5.33c-.05-1.63-1.09-2.7-2.61-2.7s-2.6,1.09-2.71,2.7h0ZM135.56,23.58c-.29,1.93-2.18,3.26-4.59,3.26-3.1,0-5.02-2.08-5.02-5.41s1.94-5.51,4.93-5.51,4.8,2.03,4.8,5.26v.75h-7.52v.13c0,1.82,1.14,3.02,2.87,3.02,1.22,0,2.17-.58,2.46-1.5h2.08Z"/><path class="cls-2" d="M54.27,35.39l.95-.64c1.49,1.31,2.03,3.17,2.21,4.79l-1.24.19c-.13-1.63-.57-3.17-1.92-4.35h0ZM50.1,42.37l.09-1.13c.48.16.94.21,1.31.21.4,0,.56-.04.75-.31.35-.5.59-1.62.59-3.18,0-1.17-.36-1.5-1.28-1.5-.21,0-.44.01-.7.03-.6,2.23-1.45,4.25-2.43,5.67l-1.07-.58c.95-1.26,1.72-3.02,2.27-4.97-.7.08-1.44.19-2.11.35l-.23-1.14c.79-.14,1.73-.27,2.61-.35.17-.84.32-1.72.4-2.6l1.27.14c-.12.79-.26,1.58-.44,2.36h.5c1.64,0,2.43.82,2.43,2.55s-.32,3.13-.75,3.84c-.36.6-.8.83-1.55.83-.54,0-1.13-.08-1.66-.21h0Z"/><path class="cls-2" d="M60.52,33.95l.32-1.14c1.61.25,3.95.76,5.09,1.17l-.31,1.13c-1.02-.39-3.52-.96-5.1-1.15h0ZM61.72,42.55l-.26-1.17c.32.03.75.04,1.01.04,2.56,0,3.53-.72,3.53-1.8,0-.85-.56-1.35-1.8-1.35-1.09,0-2.33.61-3.55,1.73l-1-.44c0-2.47.26-3.61,1.1-4.85l1.15.37c-.79,1.05-.98,2.05-.98,3.37,1.06-.73,2.38-1.2,3.53-1.2,1.73,0,2.81.89,2.81,2.34,0,1.84-1.45,2.96-4.93,2.96-.17,0-.41-.01-.62-.01h0Z"/><path class="cls-2" d="M78.1,32.49l.74-.35c.4.56.69,1.05.95,1.63l-.82.35c-.21-.56-.49-1.1-.87-1.63h0ZM76.48,32.62l.73-.35c.39.53.7,1.06.92,1.59l-.82.38c-.19-.57-.49-1.11-.83-1.62h0ZM71.02,41.65c1.42-.47,2.59-1.28,3.48-2.25-.78-.65-1.57-1.16-2.42-1.63l.71-.89c.95.49,1.75,1,2.46,1.55.65-.96,1.07-1.99,1.27-2.99h-3.3c-.76,1.23-1.73,2.36-2.82,3.25l-.95-.82c1.55-1.28,2.96-3.17,3.6-4.95l1.24.3c-.14.36-.28.74-.45,1.09h3.21l.92.43c-.66,3.73-2.82,6.72-6.2,7.92l-.75-1.01h0Z"/><path class="cls-2" d="M83.77,42.61l-.66-1.05c3.47-.84,4.49-3.12,4.56-5.71h-5.44v2.6h-1.31v-3.7h3.25v-1.9h1.31v1.9h2.42l1.19.34c-.16,3.68-1.39,6.49-5.32,7.52h0Z"/><path class="cls-2" d="M91.85,41.23c3.09-.44,6.03-2.47,7.47-5.39l.85.96c-1.61,3-4.66,5.18-7.83,5.63l-.49-1.2h0ZM91.61,34.84l.73-1.06c1.18.54,2.37,1.27,3.18,1.93l-.83,1.11c-.83-.71-1.93-1.41-3.08-1.98h0Z"/><path class="cls-2" d="M103.92,35.34v5.32h5.57v-5.32h-5.57ZM110.78,41.85h-8.14v-7.7h8.14v7.7h0Z"/><polygon class="cls-2" points="122.44 38.39 113.29 38.39 113.29 37.07 122.44 37.07 122.44 38.39 122.44 38.39"/><path class="cls-2" d="M130.07,33.03l.78-.36c.43.6.7,1.11.97,1.76l-.84.38c-.25-.66-.53-1.2-.91-1.77h0ZM128.6,33.59l.76-.36c.39.56.69,1.17.92,1.76l-.84.38c-.19-.6-.49-1.24-.84-1.77h0ZM125.56,32.89h1.28v3.31c1.83.76,3.53,1.63,4.95,2.47l-.73,1.14c-1.22-.79-2.68-1.58-4.22-2.27v5h-1.28v-9.66h0Z"/><path class="cls-2" d="M34.06,27.91c-.03-3.78,3.1-5.62,3.24-5.71-1.77-2.59-4.52-2.94-5.49-2.97-2.31-.24-4.55,1.38-5.72,1.38s-3.01-1.36-4.96-1.32c-2.51.04-4.86,1.49-6.15,3.75-2.66,4.6-.68,11.37,1.87,15.09,1.27,1.82,2.76,3.86,4.71,3.79,1.91-.08,2.62-1.22,4.92-1.22s2.95,1.22,4.94,1.17c2.05-.03,3.34-1.83,4.57-3.67,1.47-2.09,2.06-4.15,2.09-4.25-.05-.02-3.97-1.51-4.01-6.05h0Z"/><path class="cls-2" d="M30.3,16.79c1.03-1.28,1.73-3.03,1.53-4.8-1.49.07-3.34,1.03-4.41,2.28-.95,1.11-1.79,2.92-1.57,4.62,1.67.12,3.38-.84,4.45-2.1h0Z"/></g></svg>