<?xml version="1.0" encoding="UTF-8"?><svg id="_レイヤー_2" xmlns="http://www.w3.org/2000/svg" xmlns:xlink="http://www.w3.org/1999/xlink" viewBox="0 0 374.04 137.73"><defs><style>.cls-1{stroke-width:.43px;}.cls-1,.cls-2{fill:#fff;stroke:#dae5e3;stroke-miterlimit:10;}.cls-2{stroke-width:.66px;}.cls-3{fill:url(#_名称未設定グラデーション_145-4);}.cls-4{fill:url(#_名称未設定グラデーション_145-2);}.cls-5{fill:url(#_名称未設定グラデーション_145-3);}.cls-6{fill:url(#_名称未設定グラデーション_145-8);}.cls-7{fill:url(#_名称未設定グラデーション_145-7);}.cls-8{fill:url(#_名称未設定グラデーション_145-6);}.cls-9{fill:url(#_名称未設定グラデーション_145-5);}.cls-10{fill:url(#_名称未設定グラデーション_145);}</style><linearGradient id="_名称未設定グラデーション_145" x1="341.46" y1="14.42" x2="341.46" y2="41.91" gradientUnits="userSpaceOnUse"><stop offset="0" stop-color="#d2fff6"/><stop offset=".28" stop-color="#abf4e8"/><stop offset=".55" stop-color="#8becdd"/><stop offset=".78" stop-color="#78e6d6"/><stop offset=".95" stop-color="#72e5d4"/></linearGradient><linearGradient id="_名称未設定グラデーション_145-2" x1="363.27" y1="102.66" x2="363.27" y2="117.73" xlink:href="#_名称未設定グラデーション_145"/><linearGradient id="_名称未設定グラデーション_145-3" x1="13.12" y1="19.61" x2="13.12" y2="25.52" xlink:href="#_名称未設定グラデーション_145"/><linearGradient id="_名称未設定グラデーション_145-4" x1="26.28" y1="20.68" x2="26.28" y2="23.64" xlink:href="#_名称未設定グラデーション_145"/><linearGradient id="_名称未設定グラデーション_145-5" x1="13.12" y1="28.42" x2="13.12" y2="34.33" xlink:href="#_名称未設定グラデーション_145"/><linearGradient id="_名称未設定グラデーション_145-6" x1="26.28" y1="29.49" x2="26.28" y2="32.45" xlink:href="#_名称未設定グラデーション_145"/><linearGradient id="_名称未設定グラデーション_145-7" x1="22.93" y1="117.13" x2="22.93" y2="132.67" xlink:href="#_名称未設定グラデーション_145"/><linearGradient id="_名称未設定グラデーション_145-8" x1="28.7" y1="117.13" x2="28.7" y2="132.67" xlink:href="#_名称未設定グラデーション_145"/></defs><g id="_画像上"><circle class="cls-2" cx="341.46" cy="22.88" r="22.55"/><path class="cls-10" d="M348.44,13.47c-3.13-.51-5.91,1.27-6.97,3.92-1.06-2.65-3.84-4.43-6.97-3.92-3.24.53-5.53,3.83-5.25,7.1.72,8.54,12.22,14.83,12.22,14.83,0,0,11.5-6.29,12.22-14.83.28-3.27-2.01-6.58-5.25-7.1Z"/><circle class="cls-1" cx="361.84" cy="108.72" r="11.99"/><polygon class="cls-4" points="358.47 114.16 358.47 102.09 368.07 108.12 358.47 114.16"/><path class="cls-2" d="M45.43,25.89c0-12.46-10.1-22.55-22.55-22.55S.33,13.43.33,25.89c0,11.51,8.62,21,19.76,22.37v6.66s4.59-3.94,7.74-7.03c10.08-2.25,17.61-11.25,17.61-22Z"/><circle class="cls-5" cx="13.12" cy="21.75" r="2.37"/><rect class="cls-3" x="18.77" y="20.57" width="15.04" height="2.37" rx="1.18" ry="1.18"/><circle class="cls-9" cx="13.12" cy="30.56" r="2.37"/><rect class="cls-8" x="18.77" y="29.38" width="15.04" height="2.37" rx="1.18" ry="1.18"/><circle class="cls-2" cx="25.17" cy="122.6" r="14.8"/><path class="cls-7" d="M18.52,128.99h8.82c.2,0,.38-.17.35-.38-.21-1.68-1.74-3.94-3.78-4.36v-.64c1.51-.43,2.26-1.93,2.26-3.42,0-1.79-1.25-3.65-3.24-3.65s-3.24,1.86-3.24,3.65c0,1.48.75,2.99,2.26,3.42v.64c-2.04.42-3.58,2.68-3.78,4.36-.03.2.15.38.35.38Z"/><path class="cls-6" d="M33.11,128.99h-8.82c-.2,0-.38-.17-.35-.38.21-1.68,1.74-3.94,3.78-4.36v-.64c-1.51-.43-2.26-1.93-2.26-3.42,0-1.79,1.25-3.65,3.24-3.65,1.99,0,3.24,1.86,3.24,3.65,0,1.48-.75,2.99-2.26,3.42v.64c2.04.42,3.58,2.68,3.78,4.36.03.2-.15.38-.35.38Z"/></g></svg>