<?xml version="1.0" encoding="UTF-8"?><svg id="_レイヤー_2" xmlns="http://www.w3.org/2000/svg" viewBox="0 0 33.68 19.84"><defs><style>.cls-1{fill:#6ba;}</style></defs><g id="_イラスト"><path class="cls-1" d="M30.68,5.99c-.79,0-1.56-.32-2.12-.87-.56-.56-.88-1.34-.88-2.13s.32-1.56.88-2.12c.7-.7,1.74-1.01,2.71-.82.19.04.38.1.56.17.18.08.36.17.52.28.16.11.32.23.45.37.56.56.88,1.33.88,2.12s-.32,1.57-.88,2.13c-.13.13-.29.26-.45.37s-.34.2-.52.27c-.18.08-.37.14-.56.18-.2.03-.39.05-.59.05Z"/><path class="cls-1" d="M21.64,12.04c-1.17-1.17-1.17-3.07,0-4.25h0c1.17-1.17,3.07-1.17,4.24,0h0c1.18,1.18,1.18,3.07,0,4.24h0c-.58.59-1.35.88-2.12.88h0c-.77,0-1.53-.29-2.12-.87Z"/><path class="cls-1" d="M16.84,19.84c-.19,0-.39-.02-.59-.06-.19-.04-.38-.1-.56-.17-.18-.08-.35-.17-.51-.28-.17-.11-.32-.23-.46-.37s-.26-.29-.37-.46c-.11-.16-.2-.34-.28-.52-.07-.18-.13-.37-.17-.56s-.06-.39-.06-.58c0-.2.02-.4.06-.59.04-.19.1-.38.17-.56.08-.18.17-.36.28-.52.11-.16.23-.32.37-.46.14-.13.29-.26.46-.37.16-.11.33-.2.51-.28.18-.07.37-.13.56-.17.39-.07.79-.07,1.18,0,.19.04.38.1.56.17.18.08.35.17.52.28.16.11.31.24.45.37.14.14.27.3.38.46.1.16.2.34.27.52.08.18.13.37.17.56.04.19.06.39.06.59s-.02.39-.06.58-.09.38-.17.56c-.07.18-.17.36-.27.52-.11.17-.24.32-.38.46-.14.14-.29.26-.45.37-.17.11-.34.2-.52.28-.18.07-.37.13-.56.17-.2.04-.39.06-.59.06Z"/><path class="cls-1" d="M7.8,12.04c-1.17-1.18-1.17-3.07,0-4.25h0c1.17-1.17,3.07-1.17,4.24,0h0c1.17,1.18,1.17,3.07,0,4.25h0c-.58.58-1.35.87-2.12.87h0c-.77,0-1.53-.29-2.12-.87Z"/><path class="cls-1" d="M3,5.99c-.79,0-1.57-.32-2.12-.88-.14-.13-.27-.29-.38-.45-.1-.16-.2-.34-.27-.52-.08-.18-.13-.37-.17-.56s-.06-.39-.06-.58.02-.4.06-.59.09-.38.17-.56c.07-.18.17-.36.27-.52.11-.17.24-.32.38-.46.13-.13.29-.26.45-.37.17-.11.34-.2.52-.28.18-.07.37-.13.56-.17C2.8-.01,3.2-.01,3.59.05c.19.04.38.1.56.17.18.08.35.17.51.28.17.11.32.24.46.37.56.56.88,1.33.88,2.13s-.32,1.56-.88,2.11c-.14.14-.29.27-.46.38-.16.11-.33.2-.51.27-.18.08-.37.14-.56.17-.2.04-.4.06-.59.06Z"/></g></svg>