<?xml version="1.0" encoding="UTF-8"?><svg id="_レイヤー_2" xmlns="http://www.w3.org/2000/svg" viewBox="0 0 216.78 106.43"><defs><style>.cls-1{fill:none;stroke:#ff7bac;}.cls-1,.cls-2{stroke-miterlimit:10;stroke-width:1.5px;}.cls-2{fill:#fff;stroke:#6ba;}</style></defs><g id="_イラスト"><circle class="cls-2" cx="25.58" cy="53.1" r="24.83"/><path class="cls-2" d="M38.59,68.71H12.58c0-4.62,4.36-11.63,10.34-12.86v-1.74c-4.11-1.16-6.14-5.24-6.14-9.27,0-4.86,3.4-9.92,8.81-9.92,5.4,0,8.81,5.05,8.81,9.92,0,4.03-2.04,8.11-6.14,9.27v1.74c5.98,1.23,10.34,8.25,10.34,12.86Z"/><line class="cls-2" x1="62.44" y1="53.1" x2="50.42" y2="53.1"/><polygon class="cls-1" points="108.39 20.73 104.21 28.65 95.2 30.16 101.6 36.47 100.09 45.62 108.23 41.37 116.31 45.75 114.94 36.58 121.44 30.36 112.45 28.72 108.39 20.73"/><rect class="cls-1" x="77.56" y=".75" width="61.52" height="10.66" rx="5.33" ry="5.33"/><path class="cls-1" d="M133.75,11.41s9.85,52.99-25.43,52.99c-35.28,0-25.43-52.99-25.43-52.99"/><path class="cls-1" d="M81.96,18.63s-9.25-7.62-14.58,2.75c-5.33,10.37,5.76,27.24,17.66,27.24"/><path class="cls-1" d="M134.67,18.63s9.25-7.62,14.58,2.75c5.33,10.37-5.76,27.24-17.66,27.24"/><path class="cls-1" d="M118.08,62.79c-.32,4.33-4.68,2.64-4.68,5.92,0,9.23,14.53,11,14.53,16.33h-39.24c0-5.33,14.53-7.1,14.53-16.33,0-3.29-4.36-1.59-4.68-5.92"/><polygon class="cls-1" points="139.2 105.68 77.44 105.68 82.8 85.04 133.84 85.04 139.2 105.68"/><circle class="cls-2" cx="191.2" cy="53.1" r="24.83"/><path class="cls-2" d="M178.2,68.71h26.01c0-4.62-4.36-11.63-10.34-12.86v-1.74c4.11-1.16,6.14-5.24,6.14-9.27,0-4.86-3.4-9.92-8.81-9.92-5.4,0-8.81,5.05-8.81,9.92,0,4.03,2.04,8.11,6.14,9.27v1.74c-5.98,1.23-10.34,8.25-10.34,12.86Z"/><line class="cls-2" x1="154.34" y1="53.1" x2="166.36" y2="53.1"/></g></svg>