<?xml version="1.0" encoding="UTF-8"?><svg id="_レイヤー_2" xmlns="http://www.w3.org/2000/svg" viewBox="0 0 72.44 58.26"><defs><style>.cls-1{fill:#fff;stroke:#6ba;stroke-miterlimit:10;stroke-width:2.5px;}</style></defs><g id="_イラスト"><path class="cls-1" d="M1.25,45.86h25.75c0-4.57-4.32-11.52-10.24-12.73v-1.72c4.07-1.15,6.08-5.19,6.08-9.18,0-4.81-3.37-9.82-8.72-9.82s-8.72,5-8.72,9.82c0,3.99,2.02,8.03,6.08,9.18v1.72c-5.92,1.22-10.24,8.17-10.24,12.73Z"/><path class="cls-1" d="M71.19,45.86h-25.75c0-4.57,4.32-11.52,10.24-12.73v-1.72c-4.07-1.15-6.08-5.19-6.08-9.18,0-4.81,3.37-9.82,8.72-9.82,5.35,0,8.72,5,8.72,9.82,0,3.99-2.02,8.03-6.08,9.18v1.72c5.92,1.22,10.24,8.17,10.24,12.73Z"/><path class="cls-1" d="M14.76,57.01h42.91c0-7.62-7.2-19.19-17.06-21.22v-2.87c6.78-1.91,10.14-8.65,10.14-15.3,0-8.02-5.61-16.36-14.53-16.36s-14.53,8.34-14.53,16.36c0,6.65,3.36,13.39,10.14,15.3v2.87c-9.86,2.03-17.06,13.61-17.06,21.22Z"/></g></svg>