<?xml version="1.0" encoding="UTF-8"?><svg id="_レイヤー_2" xmlns="http://www.w3.org/2000/svg" viewBox="0 0 86.18 21.82"><defs><style>.cls-1{fill:rgba(210,255,246,.9);}.cls-2{fill:#6ba;}</style></defs><g id="_文字図"><rect class="cls-1" x="0" y="0" width="86.18" height="21.82" rx="10.91" ry="10.91"/><path class="cls-2" d="M10.66,13.43c-.16,0-.29-.05-.4-.16s-.16-.24-.16-.4.05-.29.16-.4.24-.16.4-.16h1.05c.07,0,.11-.03.13-.1l.47-2.63c.02-.07-.01-.1-.09-.1h-.91c-.16,0-.29-.05-.4-.16s-.16-.24-.16-.4.05-.29.16-.4.24-.16.4-.16h1.1c.07,0,.11-.03.13-.1l.23-1.34c.04-.18.12-.33.27-.46.14-.12.31-.18.5-.18.17,0,.31.07.42.2s.15.28.11.44l-.23,1.34c-.02.07.01.1.09.1h1.99c.07,0,.11-.03.13-.1l.23-1.34c.04-.18.12-.33.27-.46.14-.12.31-.18.5-.18.17,0,.31.07.42.2s.15.28.11.44l-.23,1.34c-.02.07.01.1.09.1h.81c.16,0,.29.05.4.16.11.11.16.24.16.4s-.05.29-.16.4c-.11.11-.24.16-.4.16h-1c-.07,0-.11.03-.13.1l-.47,2.63c-.02.07.01.1.09.1h.86c.16,0,.29.05.4.16s.16.24.16.4-.05.29-.16.4-.24.16-.4.16h-1.05c-.07,0-.11.03-.13.1l-.29,1.6c-.04.18-.12.33-.27.46-.14.12-.31.18-.5.18-.17,0-.31-.06-.42-.19-.11-.13-.15-.28-.11-.44l.29-1.6c.02-.07-.01-.1-.09-.1h-1.99c-.07,0-.11.03-.13.1l-.29,1.6c-.03.18-.12.33-.27.46-.14.12-.31.18-.5.18-.17,0-.31-.06-.42-.19-.11-.13-.14-.28-.11-.44l.29-1.6c.02-.07-.01-.1-.09-.1h-.86ZM13.61,9.58l-.47,2.63c-.02.07.01.1.09.1h1.99c.07,0,.11-.03.13-.1l.47-2.63c.02-.07-.01-.1-.09-.1h-1.99c-.07,0-.11.03-.13.1Z"/><path class="cls-2" d="M22.21,7.16c-.15,0-.28-.06-.38-.17s-.16-.24-.16-.39.05-.28.16-.39c.11-.11.24-.17.38-.17h4.47c.08,0,.12-.03.12-.1v-.25c0-.2.07-.37.21-.51.14-.14.31-.21.5-.21s.36.07.5.21c.14.14.21.31.21.51v.25c0,.07.04.1.12.1h4.47c.15,0,.28.06.38.17.11.11.16.24.16.39s-.05.28-.16.39-.24.17-.38.17h-1.68s-.03,0-.04.03c0,.02,0,.03.01.04.64.58,1.22,1.14,1.73,1.68.12.12.17.27.14.44-.03.17-.12.29-.27.37-.17.09-.36.12-.55.08-.19-.03-.35-.12-.48-.27-.03-.03-.07-.08-.13-.15s-.11-.11-.14-.15c-.04-.04-.1-.06-.18-.06-2.77.25-5.65.42-8.64.51-.15,0-.28-.04-.38-.14s-.17-.23-.18-.38c0-.15.04-.27.14-.38s.22-.16.37-.17c.69-.02,1.21-.03,1.56-.05.07,0,.12-.03.17-.09.31-.46.56-.86.75-1.2.02-.02.02-.04,0-.06-.01-.03-.03-.04-.06-.04h-2.76ZM30.25,15.61c.26,0,.41-.02.45-.05.04-.03.07-.14.07-.31v-.34c0-.08-.04-.12-.1-.12h-6.28c-.08,0-.12.04-.12.12v1.18c0,.2-.07.37-.21.51s-.31.21-.51.21-.37-.07-.51-.21-.21-.31-.21-.51v-5.15c0-.2.07-.37.22-.52s.32-.22.52-.22h7.88c.2,0,.37.07.52.22s.22.32.22.52v4.3c0,.7-.09,1.13-.29,1.29-.19.16-.69.24-1.51.24-.08,0-.17,0-.29,0-.11,0-.27-.01-.47-.02-.2,0-.39-.02-.57-.03-.16,0-.3-.07-.42-.18-.11-.11-.17-.25-.18-.42,0-.16.04-.29.16-.4.11-.11.25-.16.4-.16.57.03.97.04,1.21.04ZM24.27,11.4v.52c0,.08.04.12.12.12h6.28c.07,0,.1-.04.1-.12v-.52c0-.08-.04-.12-.1-.12h-6.28c-.08,0-.12.04-.12.12ZM30.66,13.79c.07,0,.1-.04.1-.12v-.53c0-.07-.04-.1-.1-.1h-6.28c-.08,0-.12.03-.12.1v.53c0,.08.04.12.12.12h6.28ZM29.42,7.16h-2.89c-.05,0-.09.04-.1.12-.02.08-.04.15-.08.21l-.55.9c-.04.06-.03.09.04.09,1.64-.09,3.12-.18,4.43-.29.04,0,.06-.02.04-.06,0,0-.02-.02-.03-.03l-.62-.58c-.07-.06-.11-.14-.13-.23-.02-.08-.06-.12-.12-.12Z"/><path class="cls-2" d="M35.93,16.67c-.18.05-.36.04-.53-.03s-.3-.19-.38-.36c-.08-.15-.08-.29,0-.44.07-.15.19-.24.34-.29.89-.26,1.57-.59,2.03-.98.46-.39.77-.9.92-1.53.04-.18.14-.33.28-.46.14-.12.3-.18.47-.17.18,0,.33.08.45.22.12.14.16.29.12.47-.16.88-.54,1.62-1.14,2.2-.6.58-1.46,1.04-2.57,1.36ZM35.55,6.15c0-.19.06-.35.19-.48.13-.13.29-.19.48-.19s.35.06.49.19c.13.13.2.29.2.48v5.69c0,.19-.07.35-.2.48-.13.13-.3.19-.49.19s-.35-.06-.48-.19c-.13-.13-.19-.29-.19-.48v-5.69ZM45.69,11.23c0,.2-.07.37-.22.52-.15.15-.32.22-.52.22h-5.8c-.2,0-.37-.07-.52-.22-.15-.15-.22-.32-.22-.52v-4.93c0-.2.07-.37.22-.52s.32-.22.52-.22h5.8c.2,0,.37.07.52.22s.22.32.22.52v4.93ZM44.3,8.11v-1.3c0-.08-.04-.12-.12-.12h-4.33c-.08,0-.12.04-.12.12v1.3c0,.08.04.12.12.12h4.33c.08,0,.12-.04.12-.12ZM44.3,10.75v-1.34c0-.08-.04-.12-.12-.12h-4.33c-.08,0-.12.04-.12.12v1.34c0,.07.04.1.12.1h4.33c.08,0,.12-.03.12-.1ZM45.85,13.68c.19.02.35.1.47.23.12.14.18.3.18.49-.03.39-.05.7-.08.94-.03.23-.08.44-.18.63-.09.19-.18.32-.27.4-.09.08-.25.15-.47.2-.22.05-.45.08-.66.09-.22,0-.54.01-.96.01-.4,0-.72,0-.96-.01-.24,0-.46-.03-.66-.08-.2-.04-.35-.09-.44-.14-.1-.05-.18-.14-.24-.26-.07-.12-.1-.25-.12-.39-.01-.14-.02-.32-.02-.56v-2.12c0-.19.07-.36.21-.49s.3-.21.49-.21.35.07.49.21c.14.14.21.3.21.49v1.86c0,.25.06.4.17.46.11.05.46.08,1.03.08.27,0,.45,0,.55-.01s.2-.05.3-.14c.1-.08.16-.2.19-.35.03-.15.05-.38.07-.7.02-.19.09-.35.23-.47.13-.12.3-.18.49-.17Z"/><path class="cls-2" d="M48.76,13.71c-.18,0-.34-.06-.47-.19-.13-.13-.2-.29-.2-.47v-5.06c0-.2.07-.37.21-.52.14-.15.31-.22.51-.22h3.86c.08,0,.12-.04.12-.12v-1.31c0-.2.07-.37.21-.51.14-.14.31-.21.5-.21s.36.07.5.21c.14.14.21.31.21.51v1.31c0,.08.04.12.12.12h3.86c.2,0,.37.07.52.22s.22.32.22.52v5.06c0,.18-.07.34-.2.47s-.29.19-.47.19-.35-.06-.47-.19c-.12-.13-.19-.29-.19-.48,0-.07-.03-.1-.1-.1h-3.16c-.08,0-.12.04-.12.12v3.3c0,.2-.07.37-.21.51-.14.14-.31.21-.5.21s-.36-.07-.5-.21c-.14-.14-.21-.31-.21-.51v-3.3c0-.08-.04-.12-.12-.12h-3.16c-.07,0-.1.03-.1.1,0,.19-.06.35-.19.48-.13.13-.28.19-.47.19ZM49.42,8.57v3.09c0,.08.04.12.12.12h3.15c.08,0,.12-.04.12-.12v-3.09c0-.07-.04-.1-.12-.1h-3.15c-.08,0-.12.03-.12.1ZM57.5,8.46h-3.15c-.08,0-.12.03-.12.1v3.09c0,.08.04.12.12.12h3.15c.08,0,.12-.04.12-.12v-3.09c0-.07-.04-.1-.12-.1Z"/><path class="cls-2" d="M67.81,14.61c-.76.86-1.79,1.29-3.09,1.29s-2.33-.43-3.09-1.29c-.76-.86-1.14-2.05-1.14-3.59s.38-2.73,1.14-3.59c.76-.86,1.79-1.29,3.09-1.29s2.33.43,3.09,1.29c.76.86,1.14,2.05,1.14,3.59s-.38,2.73-1.14,3.59ZM66.77,8.25c-.48-.62-1.16-.93-2.05-.93s-1.57.31-2.05.93c-.48.62-.72,1.54-.72,2.78s.24,2.16.72,2.78c.48.62,1.16.93,2.05.93s1.57-.31,2.05-.93c.48-.62.72-1.54.72-2.78s-.24-2.16-.72-2.78Z"/><path class="cls-2" d="M71.72,15.56c-.14.14-.31.21-.51.21s-.37-.07-.51-.21c-.14-.14-.21-.31-.21-.51V6.99c0-.2.07-.37.21-.51.14-.14.31-.21.51-.21s.37.07.51.21c.14.14.21.31.21.51v3.43s0,.01.01.01h.03s3-3.6,3-3.6c.32-.37.72-.56,1.21-.56h.21c.14,0,.24.07.31.2.06.13.05.25-.05.36l-3.34,3.91c-.04.06-.05.12-.01.17l3.5,4.28c.09.12.11.25.04.38-.06.13-.17.19-.32.19h-.21c-.49,0-.89-.19-1.2-.57l-3.15-3.97s-.02-.01-.03-.01-.01,0-.01.01v3.82c0,.2-.07.37-.21.51Z"/></g></svg>