<?xml version="1.0" encoding="UTF-8"?><svg id="_レイヤー_2" xmlns="http://www.w3.org/2000/svg" viewBox="0 0 86.18 21.82"><defs><style>.cls-1{fill:rgba(210,255,246,.9);}.cls-2{fill:#6ba;}</style></defs><g id="_文字図"><rect class="cls-1" x="0" y="0" width="86.18" height="21.82" rx="10.91" ry="10.91"/><path class="cls-2" d="M12.79,13.43c-.16,0-.29-.05-.4-.16s-.16-.24-.16-.4.05-.29.16-.4.24-.16.4-.16h1.05c.07,0,.11-.03.13-.1l.47-2.63c.02-.07-.01-.1-.09-.1h-.91c-.16,0-.29-.05-.4-.16s-.16-.24-.16-.4.05-.29.16-.4.24-.16.4-.16h1.1c.07,0,.11-.03.13-.1l.23-1.34c.04-.18.12-.33.27-.46.14-.12.31-.18.5-.18.17,0,.31.07.42.2s.15.28.11.44l-.23,1.34c-.02.07.01.1.09.1h1.99c.07,0,.11-.03.13-.1l.23-1.34c.04-.18.12-.33.27-.46.14-.12.31-.18.5-.18.17,0,.31.07.42.2s.15.28.11.44l-.23,1.34c-.02.07.01.1.09.1h.81c.16,0,.29.05.4.16.11.11.16.24.16.4s-.05.29-.16.4c-.11.11-.24.16-.4.16h-1c-.07,0-.11.03-.13.1l-.47,2.63c-.02.07.01.1.09.1h.86c.16,0,.29.05.4.16s.16.24.16.4-.05.29-.16.4-.24.16-.4.16h-1.05c-.07,0-.11.03-.13.1l-.29,1.6c-.04.18-.12.33-.27.46-.14.12-.31.18-.5.18-.17,0-.31-.06-.42-.19-.11-.13-.15-.28-.11-.44l.29-1.6c.02-.07-.01-.1-.09-.1h-1.99c-.07,0-.11.03-.13.1l-.29,1.6c-.03.18-.12.33-.27.46-.14.12-.31.18-.5.18-.17,0-.31-.06-.42-.19-.11-.13-.14-.28-.11-.44l.29-1.6c.02-.07-.01-.1-.09-.1h-.86ZM15.74,9.58l-.47,2.63c-.02.07.01.1.09.1h1.99c.07,0,.11-.03.13-.1l.47-2.63c.02-.07-.01-.1-.09-.1h-1.99c-.07,0-.11.03-.13.1Z"/><path class="cls-2" d="M25.35,16.81c-.2,0-.37-.07-.5-.21-.13-.14-.2-.3-.2-.49V7.31c0-.2.07-.37.22-.52s.32-.22.52-.22h2.89c.07,0,.12-.03.14-.09.1-.29.21-.61.33-.96.06-.2.18-.36.35-.47.17-.11.36-.16.56-.13.19.02.34.11.44.27.1.16.13.33.08.51-.03.14-.12.4-.26.78-.02.06,0,.09.08.09h3.93c.2,0,.37.07.52.22s.22.32.22.52v8.8c0,.19-.07.36-.2.49-.13.14-.3.21-.5.21h-.13c-.16,0-.29-.05-.4-.16s-.16-.24-.16-.4c0-.06-.03-.09-.09-.09h-7.05c-.06,0-.09.03-.09.09,0,.16-.05.29-.16.4s-.24.16-.4.16h-.13ZM26.04,7.85v1.44c0,.07.04.1.12.1h6.99c.08,0,.12-.03.12-.1v-1.44c0-.08-.04-.12-.12-.12h-6.99c-.08,0-.12.04-.12.12ZM26.04,10.62v1.46c0,.08.04.12.12.12h6.99c.08,0,.12-.04.12-.12v-1.46c0-.08-.04-.12-.12-.12h-6.99c-.08,0-.12.04-.12.12ZM26.04,13.42v1.5c0,.08.04.12.12.12h6.99c.08,0,.12-.04.12-.12v-1.5c0-.08-.04-.12-.12-.12h-6.99c-.08,0-.12.04-.12.12Z"/><path class="cls-2" d="M37.44,13.44c-.17,0-.31-.04-.43-.14-.12-.1-.19-.24-.21-.4-.02-.17.03-.33.14-.46s.25-.2.42-.21l3.09-.3c.08,0,.12-.04.12-.12v-1.59c0-.07-.04-.1-.12-.1-.49.05-1.13.11-1.94.17-.17,0-.31-.04-.44-.14-.13-.1-.2-.24-.21-.42,0-.16.04-.3.16-.43,0,0,0-.02,0-.03,0-.01-.02-.02-.03-.02-.03,0-.06.01-.12.01-.18,0-.34-.06-.47-.19-.13-.13-.19-.29-.19-.47v-1.52c0-.2.07-.37.22-.52.15-.15.32-.22.52-.22h3.9c.07,0,.1-.04.1-.12v-.47c0-.19.07-.36.21-.5.14-.14.31-.21.5-.21s.36.07.5.21c.14.14.21.31.21.5v.47c0,.08.04.12.12.12h3.89c.2,0,.37.07.52.22.15.15.22.32.22.52v1.52c0,.18-.07.34-.2.47-.13.13-.29.19-.47.19s-.34-.06-.47-.19c-.13-.13-.2-.29-.2-.47v-1.01c0-.08-.04-.12-.12-.12h-8.03c-.07,0-.1.04-.1.12v1.01c0,.17-.07.33-.2.46-.03.03-.01.04.04.04h.04c2.81-.19,5.15-.58,7.03-1.16.16-.05.33-.04.49.03s.27.19.33.36.05.32-.03.47-.2.25-.36.3c-1.08.34-2.35.61-3.8.82-.07.02-.1.06-.1.12v1.64c0,.07.04.1.1.1l5.81-.57c.17-.02.31.03.44.14s.2.24.21.41c0,.17-.04.31-.15.44-.11.13-.25.2-.42.22l-5.89.57c-.07,0-.1.04-.1.12v1.65c0,.37.09.59.27.66s.78.1,1.81.1h.8c.16,0,.36,0,.6-.03.24-.02.41-.04.49-.06.09-.02.2-.06.33-.12.13-.06.22-.12.26-.18s.09-.16.15-.28c.06-.12.1-.25.12-.39.02-.14.04-.31.07-.52.02-.19.1-.34.25-.46.15-.12.32-.16.51-.14.2.03.36.12.48.27.12.16.17.33.16.52-.04.34-.07.62-.1.84-.03.22-.09.43-.17.63-.08.2-.16.35-.23.47-.07.11-.2.22-.39.31s-.36.16-.52.2-.41.07-.75.1c-.34.03-.66.05-.96.05s-.72,0-1.27,0c-.44,0-.79,0-1.06,0-.26,0-.53-.02-.79-.04-.26-.02-.46-.05-.6-.07-.13-.03-.27-.07-.4-.14-.13-.07-.23-.14-.27-.2-.05-.06-.09-.17-.14-.31-.04-.14-.07-.27-.07-.41,0-.13,0-.31,0-.54v-1.78c0-.07-.04-.1-.12-.1l-3.02.3Z"/><path class="cls-2" d="M50.37,6.77c-.16,0-.29-.06-.4-.17-.11-.11-.17-.25-.17-.4s.06-.29.17-.4c.11-.11.25-.17.4-.17h4.81c.16,0,.29.06.4.17.11.11.17.25.17.4s-.06.29-.17.4c-.11.11-.25.17-.4.17h-.78c-.08,0-.12.03-.12.1v.88c0,.08.04.12.12.12h.55c.2,0,.37.07.51.21.14.14.21.31.21.51v7.6c0,.17-.06.32-.17.43-.11.11-.26.17-.43.17h-.09c-.15,0-.27-.05-.36-.14-.09-.1-.14-.22-.14-.36,0-.05-.03-.08-.08-.08h-3.03c-.05,0-.08.03-.08.08,0,.15-.05.27-.15.36s-.22.14-.36.14h-.13c-.17,0-.32-.06-.44-.19-.12-.13-.18-.28-.18-.45v-7.57c0-.2.07-.37.21-.51.14-.14.31-.21.51-.21h.58c.08,0,.12-.04.12-.12v-.88c0-.07-.04-.1-.12-.1h-.98ZM52.05,12.43c-.07.11-.17.18-.31.21-.14.03-.26,0-.38-.09-.04-.02-.07,0-.07.04v.4c0,.08.04.12.12.12h2.96c.07,0,.1-.04.1-.12v-.91c0-.07-.04-.1-.1-.1h-.61c-.3,0-.49-.05-.57-.15-.07-.1-.11-.34-.11-.71v-2.03c0-.07-.04-.1-.12-.1h-.17c-.08,0-.12.03-.12.1,0,.94-.04,1.62-.12,2.05-.08.43-.25.86-.51,1.29ZM51.68,9.09c0-.07-.04-.1-.12-.1h-.16c-.08,0-.12.03-.12.1v2.3s0,.03.02.03c.01,0,.02,0,.03-.01.13-.25.22-.54.27-.87.05-.33.07-.81.07-1.44ZM54.48,15v-.71c0-.08-.04-.12-.1-.12h-2.96c-.08,0-.12.04-.12.12v.71c0,.08.04.12.12.12h2.96c.07,0,.1-.04.1-.12ZM52.69,6.88v.88c0,.08.04.12.12.12h.17c.08,0,.12-.04.12-.12v-.88c0-.07-.04-.1-.12-.1h-.17c-.08,0-.12.03-.12.1ZM54.06,9.09v1.65c0,.11.01.18.03.19.02.02.1.03.23.03h.05c.07,0,.1-.03.1-.1v-1.77c0-.07-.04-.1-.1-.1h-.21c-.07,0-.1.03-.1.1ZM56.83,6.83c-.16,0-.3-.06-.42-.17-.12-.11-.18-.26-.18-.43s.06-.32.18-.43c.12-.11.26-.17.42-.17h3.71c.2,0,.37.07.51.22.14.15.21.32.21.52v4.59c0,.19-.07.35-.2.48s-.29.2-.48.2-.35-.07-.48-.2-.2-.29-.2-.48c0-.07-.03-.1-.1-.1h-2.03c-.08,0-.12.04-.12.12v3.65c0,.42.02.66.05.73.03.07.15.12.34.12.18.02.43.03.74.03.37,0,.65,0,.84-.03.12,0,.21-.02.26-.04.05-.02.11-.05.17-.11.06-.06.1-.16.12-.31.02-.15.04-.33.06-.54.02-.21.04-.52.05-.92,0-.18.08-.33.21-.45.13-.12.29-.17.47-.15.19.02.35.1.47.23.12.14.18.3.17.49-.05.94-.12,1.61-.21,2-.09.39-.22.64-.4.77-.17.13-.48.2-.91.23-.62.03-1.11.05-1.44.05-.44,0-.85-.02-1.23-.05-.49-.03-.8-.14-.9-.32-.11-.18-.16-.66-.16-1.44v-4.52c0-.2.07-.37.22-.52.15-.15.32-.22.52-.22h2.69c.08,0,.12-.03.12-.1v-2.61c0-.08-.04-.12-.12-.12h-2.96Z"/><path class="cls-2" d="M62.8,11.84l-.05-.16c-.14-.44-.07-.88.2-1.3.84-1.32,1.46-2.83,1.85-4.55.04-.18.14-.32.29-.43s.31-.14.49-.1.33.13.43.27c.1.15.14.31.1.49-.18.9-.44,1.78-.78,2.64-.03.06-.04.13-.04.21v7.35c0,.19-.07.35-.2.48-.13.13-.3.19-.49.19s-.35-.06-.48-.19-.2-.29-.2-.48v-4.91s0-.03-.02-.03c-.01,0-.02,0-.03.01-.02.03-.15.24-.4.61-.1.13-.22.18-.37.16s-.25-.11-.29-.26ZM66.78,8.59c-.17,0-.3-.06-.42-.18-.11-.12-.17-.26-.17-.42s.06-.3.17-.41.25-.16.42-.16h7.54c.17,0,.3.05.42.16s.17.25.17.41-.06.31-.17.42c-.11.12-.25.18-.42.18h-7.54ZM66.71,16.26v-2.48c0-.2.07-.37.22-.52s.32-.22.52-.22h6.1c.2,0,.37.07.51.22.14.15.21.32.21.52v2.46c0,.2-.07.37-.2.5-.13.13-.3.2-.49.2h-.25c-.12,0-.23-.05-.32-.14-.09-.09-.14-.2-.14-.32,0-.04-.02-.06-.07-.06h-4.68s-.07.02-.07.06c0,.12-.04.23-.14.32-.09.09-.2.14-.32.14h-.22c-.19,0-.35-.06-.49-.19-.13-.13-.2-.29-.2-.48ZM67.4,10.44c-.15,0-.28-.05-.39-.16-.11-.11-.17-.24-.17-.38s.06-.28.17-.39c.11-.11.24-.17.39-.17h6.2c.15,0,.28.06.39.17.11.11.17.24.17.39s-.06.28-.17.38c-.11.11-.24.16-.39.16h-6.2ZM67.4,12.29c-.15,0-.28-.05-.39-.16-.11-.11-.17-.24-.17-.38s.06-.28.17-.38c.11-.11.24-.16.39-.16h6.2c.15,0,.28.05.39.16s.17.24.17.38-.06.27-.17.38-.24.16-.39.16h-6.2ZM73.65,5.56c.16,0,.29.06.4.17.11.11.16.25.16.4s-.05.29-.16.4-.24.16-.4.16h-6.08c-.16,0-.29-.05-.4-.16s-.16-.24-.16-.4.05-.29.16-.4c.11-.11.24-.17.4-.17h6.08ZM68.08,14.26v.94c0,.08.04.12.12.12h4.59c.07,0,.1-.04.1-.12v-.94c0-.08-.04-.12-.1-.12h-4.59c-.08,0-.12.04-.12.12Z"/></g></svg>