<?xml version="1.0" encoding="UTF-8"?><svg id="_レイヤー_2" xmlns="http://www.w3.org/2000/svg" viewBox="0 0 86.18 21.82"><defs><style>.cls-1{fill:rgba(210,255,246,.9);}.cls-2{fill:#6ba;}</style></defs><g id="_文字図"><rect class="cls-1" x="0" y="0" width="86.18" height="21.82" rx="10.91" ry="10.91"/><path class="cls-2" d="M12.79,13.43c-.16,0-.29-.05-.4-.16s-.16-.24-.16-.4.05-.29.16-.4.24-.16.4-.16h1.05c.07,0,.11-.03.13-.1l.47-2.63c.02-.07-.01-.1-.09-.1h-.91c-.16,0-.29-.05-.4-.16s-.16-.24-.16-.4.05-.29.16-.4.24-.16.4-.16h1.1c.07,0,.11-.03.13-.1l.23-1.34c.04-.18.12-.33.27-.46.14-.12.31-.18.5-.18.17,0,.31.07.42.2s.15.28.11.44l-.23,1.34c-.02.07.01.1.09.1h1.99c.07,0,.11-.03.13-.1l.23-1.34c.04-.18.12-.33.27-.46.14-.12.31-.18.5-.18.17,0,.31.07.42.2s.15.28.11.44l-.23,1.34c-.02.07.01.1.09.1h.81c.16,0,.29.05.4.16.11.11.16.24.16.4s-.05.29-.16.4c-.11.11-.24.16-.4.16h-1c-.07,0-.11.04-.13.1l-.47,2.63c-.02.07.01.1.09.1h.86c.16,0,.29.05.4.16s.16.24.16.4-.05.29-.16.4-.24.16-.4.16h-1.05c-.07,0-.11.04-.13.1l-.29,1.6c-.04.18-.12.33-.27.46-.14.12-.31.18-.5.18-.17,0-.31-.06-.42-.19-.11-.13-.15-.28-.11-.44l.29-1.6c.02-.07-.01-.1-.09-.1h-1.99c-.07,0-.11.04-.13.1l-.29,1.6c-.03.18-.12.33-.27.46-.14.12-.31.18-.5.18-.17,0-.31-.06-.42-.19-.11-.13-.14-.28-.11-.44l.29-1.6c.02-.07-.01-.1-.09-.1h-.86ZM15.74,9.58l-.47,2.63c-.02.07.01.1.09.1h1.99c.07,0,.11-.03.13-.1l.47-2.63c.02-.07-.01-.1-.09-.1h-1.99c-.07,0-.11.04-.13.1Z"/><path class="cls-2" d="M24.22,8.59c-.17,0-.3-.06-.41-.18-.11-.12-.16-.26-.16-.42s.05-.3.16-.42c.11-.11.25-.17.41-.17h.81c.07,0,.1-.04.1-.1v-1.4c0-.18.07-.34.2-.47.13-.13.29-.19.47-.19s.34.06.47.19.2.29.2.47v1.4c0,.07.04.1.12.1h.47c.15,0,.28.05.4.16.12.1.18.23.19.38,0,.02,0,.03.02.03.01,0,.02,0,.03-.01.06-.1.15-.16.27-.2.17-.06.34-.05.51.02.17.07.29.19.36.36.18.42.36.88.53,1.37.06.17.05.34-.03.49-.08.16-.2.26-.36.33-.17.06-.34.05-.5-.03-.16-.08-.27-.21-.33-.37-.16-.42-.33-.88-.53-1.35-.03-.07-.04-.13-.04-.18,0-.02,0-.03-.03-.03-.02,0-.03,0-.04.01-.11.14-.26.21-.46.21h-.47c-.08,0-.12.04-.12.12v2.07c0,.07.03.1.1.08.06-.02.14-.05.24-.08.1-.04.17-.07.2-.08.14-.05.27-.04.41.04.13.08.21.19.24.34,0,0,0,.02,0,.03,0,.01,0,.02,0,.03,0,.07.03.09.09.08.06-.03.12-.04.19-.04h2.52c.07,0,.1-.04.1-.12v-.16c0-.19.07-.36.21-.49s.3-.21.49-.21.36.07.49.21.21.3.21.49v.16c0,.08.04.12.12.12h2.87c.16,0,.3.06.42.17s.17.25.17.42-.06.3-.17.42c-.11.11-.25.17-.42.17h-2.39s-.03,0-.05.03c-.01.02-.02.04,0,.05.73,1.02,1.66,1.96,2.78,2.81.14.1.22.24.25.42.03.17-.01.33-.12.47-.1.15-.24.23-.42.26-.17.03-.33-.02-.47-.13-.94-.75-1.77-1.61-2.51-2.6,0-.02-.02-.02-.04-.01-.02,0-.03.02-.03.04v2.52c0,.2-.07.37-.21.5-.14.13-.3.2-.49.2s-.36-.07-.49-.2c-.14-.13-.21-.3-.21-.5v-2.43s0-.03-.03-.04-.03,0-.04.01c-.74.95-1.59,1.79-2.55,2.52-.14.1-.29.14-.46.12-.17-.03-.3-.11-.4-.26-.1-.14-.13-.29-.1-.46.03-.17.12-.3.25-.4,1.16-.83,2.11-1.77,2.85-2.82.04-.06.03-.09-.05-.09h-2.11c-.14,0-.26-.04-.36-.13-.1-.09-.17-.19-.21-.32-.02-.07-.05-.09-.1-.05,0,0-.02,0-.03.01s-.02.01-.03.01l-.66.23c-.06.03-.09.07-.09.14v2.7c0,.37-.01.66-.03.86-.02.2-.05.38-.1.54-.04.16-.12.26-.24.32-.12.06-.25.1-.39.12-.14.03-.35.04-.63.04-.07,0-.3,0-.7-.03-.16,0-.3-.07-.42-.19-.11-.12-.17-.26-.18-.42,0-.15.04-.27.15-.38.11-.1.24-.15.38-.14.18,0,.38.01.6.01.11,0,.18-.03.2-.08.02-.06.03-.25.03-.59v-2.35c0-.07-.03-.09-.09-.08-.31.09-.55.15-.7.18-.16.03-.31,0-.44-.09-.13-.09-.2-.22-.22-.39-.02-.17.03-.33.14-.48.11-.15.25-.24.42-.27l.78-.2c.08-.02.12-.06.12-.14v-2.47c0-.07-.03-.1-.1-.1h-.81ZM35.32,5.86c.03.16,0,.31-.08.45-.09.13-.21.22-.38.27-1.84.41-4.04.63-6.6.68-.17,0-.31-.06-.44-.17-.13-.11-.19-.25-.2-.42-.02-.16.03-.29.14-.41.11-.12.24-.18.4-.18,2.44-.04,4.59-.27,6.46-.68.16-.04.3,0,.44.08s.22.21.26.37ZM30.79,7.46c.17-.06.34-.05.51.02s.29.2.36.37c.1.23.23.58.4,1.07.06.17.05.33-.03.49-.08.16-.2.27-.38.33-.16.06-.33.05-.49-.03s-.27-.2-.33-.38c-.13-.36-.27-.71-.42-1.07-.06-.16-.06-.33.01-.48.07-.16.19-.26.35-.33ZM33.68,10.39c-.17-.06-.28-.17-.34-.34-.06-.17-.06-.33.01-.49.29-.65.55-1.28.75-1.9.06-.17.17-.3.33-.39.16-.09.32-.1.49-.05.17.05.31.16.4.32s.11.33.04.5c-.21.62-.47,1.29-.79,2-.08.17-.2.29-.38.36-.17.06-.35.06-.52,0Z"/><path class="cls-2" d="M37.65,16.67c-.2.03-.37-.01-.53-.14-.16-.12-.25-.28-.28-.49-.03-.2,0-.39.1-.57.36-.62.61-1.32.75-2.1.15-.78.22-1.8.22-3.07v-4.07c0-.2.07-.37.21-.52.14-.15.31-.22.51-.22h8.63c.2,0,.37.07.52.22.15.15.22.32.22.52v8.75c0,.86-.1,1.39-.29,1.59-.19.2-.7.3-1.53.3-.24,0-.64-.01-1.2-.04-.16,0-.3-.07-.41-.18-.11-.11-.17-.25-.18-.42,0-.15.04-.27.15-.38.11-.11.24-.16.38-.15.5.03.85.04,1.03.04.32,0,.51-.03.58-.1s.1-.26.1-.59v-1.96c0-.08-.04-.12-.12-.12h-2.95c-.08,0-.12.04-.12.12v2.86c0,.18-.07.34-.2.47s-.29.2-.47.2-.34-.07-.47-.2c-.13-.13-.2-.29-.2-.47v-2.86c0-.08-.04-.12-.12-.12h-2.74c-.06,0-.1.04-.12.12-.15,1.26-.5,2.35-1.07,3.29-.1.16-.25.26-.45.29ZM39.28,10.86c0,.23,0,.54-.03.94,0,.08.03.12.1.12h2.67c.08,0,.12-.04.12-.12v-1.95c0-.08-.04-.12-.12-.12h-2.64c-.07,0-.1.04-.1.12v1.01ZM39.28,6.75v1.79c0,.08.04.12.1.12h2.64c.08,0,.12-.04.12-.12v-1.79c0-.07-.04-.1-.12-.1h-2.64c-.07,0-.1.04-.1.1ZM43.47,6.75v1.79c0,.08.04.12.12.12h2.95c.08,0,.12-.04.12-.12v-1.79c0-.07-.04-.1-.12-.1h-2.95c-.08,0-.12.04-.12.1ZM43.47,9.84v1.95c0,.08.04.12.12.12h2.95c.08,0,.12-.04.12-.12v-1.95c0-.08-.04-.12-.12-.12h-2.95c-.08,0-.12.04-.12.12Z"/><path class="cls-2" d="M50.02,9.53c-.13-.1-.21-.24-.23-.4s.02-.31.14-.44c.11-.13.25-.21.42-.23.17-.02.32.02.46.12.45.33.92.71,1.42,1.16.14.12.21.27.23.44.01.17-.04.33-.15.47-.11.13-.25.2-.42.21s-.32-.04-.45-.15c-.55-.49-1.02-.88-1.42-1.18ZM52.46,12.27c.16.07.29.18.36.34s.09.32.03.49c-.39,1.14-.88,2.18-1.47,3.15-.1.16-.23.25-.42.29-.18.04-.35,0-.51-.1-.16-.1-.25-.24-.29-.42-.04-.18,0-.34.09-.5.53-.88,1-1.84,1.4-2.89.06-.16.17-.28.32-.35.16-.07.31-.07.47-.01ZM51.41,5.72c.56.44.96.76,1.18.96.14.11.21.26.22.44s-.04.34-.16.47c-.11.13-.25.2-.42.21-.17.01-.32-.04-.45-.15-.3-.27-.7-.59-1.18-.98-.13-.1-.21-.24-.23-.41s.02-.32.14-.45c.11-.14.25-.22.43-.23.17-.02.33.03.47.13ZM53.79,9.94c-.16,0-.3-.05-.42-.16-.11-.11-.17-.25-.17-.41s.06-.3.17-.42c.11-.11.25-.17.42-.17h2.78c.08,0,.12-.04.12-.12v-1.17c0-.07-.04-.1-.1-.1-.7.07-1.43.11-2.18.12-.17,0-.32-.06-.45-.18-.13-.12-.19-.26-.2-.42,0-.17.04-.31.15-.42.11-.12.24-.18.41-.19,2.2-.04,4.19-.3,5.98-.78.17-.04.32-.03.47.05s.25.2.29.36c.04.17.02.32-.06.47-.08.15-.21.25-.37.29-.76.2-1.56.36-2.4.49-.08.02-.12.06-.12.13v1.34c0,.07.04.1.12.1h2.78c.16,0,.3.06.42.18.11.12.17.26.17.42s-.06.3-.17.41c-.11.11-.25.16-.42.16h-2.78c-.08,0-.12.04-.12.12v1.34c0,.08.04.12.12.12h1.98c.2,0,.37.07.52.21.15.14.22.31.22.51v3.91c0,.19-.07.35-.2.49-.13.13-.3.2-.49.2h-.12c-.16,0-.29-.06-.4-.17-.11-.11-.16-.25-.16-.4,0-.05-.03-.08-.09-.08h-4.21c-.06,0-.09.03-.09.08,0,.16-.05.29-.16.4s-.24.17-.4.17h-.1c-.18,0-.34-.07-.47-.2-.13-.13-.2-.29-.2-.47v-3.93c0-.2.07-.37.22-.51.15-.14.32-.21.52-.21h1.98c.08,0,.12-.04.12-.12v-1.34c0-.08-.04-.12-.12-.12h-2.78ZM59.46,12.62h-4.16c-.08,0-.12.03-.12.1v2.25c0,.08.04.12.12.12h4.16c.08,0,.12-.04.12-.12v-2.25c0-.07-.04-.1-.12-.1Z"/><path class="cls-2" d="M63.32,16.74c-.16,0-.29-.04-.41-.14-.12-.1-.18-.23-.19-.39,0-.16.04-.29.14-.41.1-.12.23-.18.39-.19,1-.06,1.67-.1,2.03-.13.07,0,.1-.04.1-.13v-.44c0-.08-.04-.12-.1-.12h-1.85c-.14,0-.26-.05-.36-.15-.1-.1-.16-.22-.16-.37s.05-.27.16-.37c.1-.1.23-.15.36-.15h1.85c.07,0,.1-.03.1-.1v-.36c0-.08-.04-.12-.1-.12h-1.44c-.2,0-.37-.07-.52-.22s-.22-.32-.22-.52v-2.55c0-.2.07-.37.22-.52.15-.15.32-.22.52-.22h1.44c.07,0,.1-.03.1-.1v-.36c0-.08-.04-.12-.1-.12h-1.95c-.14,0-.26-.05-.36-.15-.1-.1-.16-.22-.16-.37s.05-.27.16-.37c.1-.1.22-.15.36-.15h1.95c.07,0,.1-.04.1-.12v-.42c0-.07-.04-.1-.1-.1-.75.05-1.3.09-1.65.1-.16,0-.29-.04-.41-.16-.12-.11-.18-.25-.19-.4s.04-.29.15-.4c.11-.11.24-.17.4-.18,1.55-.08,3.15-.23,4.8-.47.17-.03.31,0,.44.1.13.1.2.23.22.39.02.16-.02.31-.12.43-.1.13-.23.2-.39.23-.34.05-.88.12-1.62.21-.08.02-.12.06-.12.12v.55c0,.08.04.12.12.12h1.73c.25,0,.42.13.49.38.02.05.05.06.1.03.1-.07.21-.1.34-.1h.66c.08,0,.12-.04.12-.12.02-.76.03-1.37.03-1.83,0-.18.07-.34.2-.46s.29-.19.47-.19.33.06.46.19c.12.13.18.28.18.46,0,.46,0,1.07-.03,1.83,0,.08.03.12.1.12h1.99c.2,0,.37.07.52.21s.22.31.22.51v.1c0,1.31,0,2.38-.02,3.22s-.05,1.58-.1,2.2c-.06.63-.12,1.1-.18,1.42s-.16.57-.3.76c-.14.19-.28.31-.42.34-.14.04-.33.06-.58.06-.13,0-.51-.03-1.13-.08-.18,0-.33-.08-.46-.21-.12-.13-.18-.29-.18-.47s.06-.31.19-.42c.13-.11.27-.15.44-.14.3.03.55.05.75.05.09,0,.16-.03.22-.1.06-.07.12-.21.17-.43.06-.22.1-.54.13-.96.03-.42.05-.99.07-1.72.02-.72.03-1.61.03-2.67v-.42c0-.07-.04-.1-.12-.1h-1.29c-.08,0-.12.04-.12.1-.1,1.79-.27,3.23-.53,4.35-.26,1.11-.62,2.08-1.1,2.89-.09.16-.22.25-.4.29-.18.04-.35.01-.51-.08-.14-.09-.23-.21-.27-.38,0-.02-.02-.03-.04-.04-.02,0-.04,0-.05.01-.09.08-.18.12-.29.13-1.67.23-3.37.39-5.1.48ZM64.4,10.26v.39c0,.08.04.12.12.12h.77c.07,0,.1-.04.1-.12v-.39c0-.07-.04-.1-.1-.1h-.77c-.08,0-.12.04-.12.1ZM65.28,12.17c.07,0,.1-.04.1-.12v-.39c0-.08-.04-.12-.1-.12h-.77c-.08,0-.12.04-.12.12v.39c0,.08.04.12.12.12h.77ZM66.79,14.91v.32c0,.07.04.1.1.1.49-.05.97-.1,1.44-.16.23-.03.4.07.51.29,0,.02.02.03.04.03.02,0,.04,0,.06-.02.39-.71.69-1.56.91-2.55.22-.99.36-2.27.44-3.85,0-.07-.04-.1-.1-.1h-.62c-.14,0-.26-.04-.36-.13-.1-.09-.17-.19-.21-.33-.02-.07-.05-.09-.1-.05-.08.05-.17.08-.26.08h-1.73c-.08,0-.12.04-.12.12v.36c0,.07.04.1.12.1h1.34c.2,0,.37.07.52.22.15.15.22.32.22.52v2.55c0,.2-.07.37-.22.52s-.32.22-.52.22h-1.34c-.08,0-.12.04-.12.12v.36c0,.07.04.1.12.1h1.56c.15,0,.27.05.37.15s.15.22.15.37-.05.27-.15.37-.22.15-.37.15h-1.56c-.08,0-.12.04-.12.12ZM66.79,10.26v.39c0,.08.04.12.12.12h.74c.07,0,.1-.04.1-.12v-.39c0-.07-.03-.1-.1-.1h-.74c-.08,0-.12.04-.12.1ZM66.79,11.66v.39c0,.08.04.12.12.12h.74c.07,0,.1-.04.1-.12v-.39c0-.08-.03-.12-.1-.12h-.74c-.08,0-.12.04-.12.12Z"/></g></svg>