<?xml version="1.0" encoding="UTF-8"?><svg id="_レイヤー_2" xmlns="http://www.w3.org/2000/svg" viewBox="0 0 66.5 66.5"><defs><style>.cls-1{stroke-linecap:round;stroke-linejoin:round;}.cls-1,.cls-2{fill:#fff;stroke:#6ba;stroke-width:2.5px;}.cls-2{stroke-miterlimit:10;}</style></defs><g id="_イラスト"><circle class="cls-2" cx="33.25" cy="33.25" r="32"/><path class="cls-1" d="M28.56,56.21c.28-2.52.37-4.5.37-7.21v-2.08h-6.97c-2.14,0-3.53.1-5.02.34v-6.53c1.39.29,2.83.39,5.02.39h6.97v-.97l-1.58-2.71h-5.3c-2.23,0-3.16.05-5.02.34v-6.53c1.49.29,2.83.39,5.02.39h1.95l-5.81-9.82c-.98-1.69-2.79-4.55-3.72-5.85h11.47c.42,1.5.88,2.61,2.14,5.08l5.44,10.69,5.48-10.69c1.35-2.66,1.77-3.68,2.14-5.08h11.43c-.84,1.26-3.25,5.13-3.67,5.85l-5.76,9.82h1.91c2.18,0,3.25-.1,4.97-.39v6.53c-1.53-.24-2.88-.34-4.97-.34h-5.25l-1.63,2.71v.97h6.78c2.09,0,3.39-.1,4.97-.39v6.53c-1.77-.24-2.93-.34-4.97-.34h-6.78v2.08c0,3.24.09,4.98.37,7.21h-9.99Z"/></g></svg>