<?xml version="1.0" encoding="UTF-8"?><svg id="_レイヤー_2" xmlns="http://www.w3.org/2000/svg" viewBox="0 0 115.69 40.89"><defs><style>.cls-1{fill:#6ba;}.cls-2{fill:#fff;}</style></defs><g id="_文字図"><rect class="cls-1" x="0" y="0" width="115.69" height="40.89" rx="20.45" ry="20.45"/><path class="cls-2" d="M17.02,23.93c-.21,0-.39-.07-.54-.22-.15-.15-.22-.33-.22-.54s.07-.39.22-.54c.15-.15.33-.22.54-.22h1.42c.09,0,.15-.05.18-.14l.63-3.56c.02-.09-.02-.14-.12-.14h-1.23c-.21,0-.39-.07-.54-.22-.15-.15-.22-.33-.22-.54s.07-.39.22-.54c.15-.15.33-.22.54-.22h1.5c.09,0,.15-.05.18-.14l.32-1.81c.05-.25.17-.45.36-.62.19-.16.42-.25.68-.25.23,0,.42.09.57.26s.2.38.15.6l-.32,1.81c-.02.09.02.14.12.14h2.69c.09,0,.15-.05.18-.14l.32-1.81c.05-.25.17-.45.36-.62.19-.16.42-.25.68-.25.23,0,.42.09.57.26s.2.38.15.6l-.32,1.81c-.02.09.02.14.12.14h1.09c.21,0,.39.07.54.22.15.15.22.33.22.54s-.07.39-.22.54c-.15.15-.33.22-.54.22h-1.36c-.09,0-.15.05-.18.14l-.63,3.56c-.02.09.02.14.12.14h1.16c.21,0,.39.07.54.22.15.15.22.33.22.54s-.07.39-.22.54c-.15.15-.33.22-.54.22h-1.43c-.09,0-.15.05-.18.14l-.39,2.17c-.05.25-.17.45-.36.62-.19.16-.42.25-.68.25-.24,0-.43-.09-.57-.26-.15-.18-.2-.38-.15-.6l.39-2.17c.02-.09-.02-.14-.12-.14h-2.69c-.09,0-.15.05-.18.14l-.39,2.17c-.05.25-.17.45-.36.62-.19.16-.42.25-.68.25-.24,0-.43-.09-.57-.26-.15-.18-.2-.38-.15-.6l.39-2.17c.02-.09-.02-.14-.12-.14h-1.16ZM21.02,18.72l-.63,3.56c-.02.09.02.14.12.14h2.69c.09,0,.15-.05.18-.14l.63-3.56c.02-.09-.02-.14-.12-.14h-2.69c-.09,0-.15.05-.18.14Z"/><path class="cls-2" d="M33.28,27.97c-.22.09-.45.1-.67.02s-.39-.23-.49-.46c-.09-.21-.1-.43-.02-.65.08-.22.24-.38.46-.46,2.41-.97,4.26-2,5.56-3.08.02-.01.03-.03.02-.05-.01-.02-.03-.04-.05-.04h-5c-.21,0-.39-.07-.55-.22-.15-.15-.23-.33-.23-.54s.08-.39.23-.55.33-.23.55-.23h5.75c.11,0,.16-.05.16-.16v-.51c0-.27.1-.5.29-.69.19-.19.42-.28.68-.28s.48.09.68.28c.19.19.29.42.29.69v.51c0,.11.05.16.16.16h5.75c.21,0,.39.08.55.23s.23.33.23.55-.08.39-.23.54c-.15.15-.33.22-.55.22h-5s-.04.01-.04.04c0,.02,0,.05.03.07,1.3,1.08,3.16,2.11,5.56,3.08.21.09.36.25.44.46.08.21.08.42-.02.63-.11.22-.27.38-.5.46-.23.08-.46.08-.68-.02-2.32-1.03-4.19-2.15-5.6-3.34-.07-.05-.11-.03-.11.05v2.94c0,.26-.1.48-.29.68-.19.19-.42.29-.68.29s-.48-.1-.68-.29c-.19-.19-.29-.42-.29-.68v-2.94s-.01-.04-.04-.06-.05-.01-.06,0c-1.4,1.19-3.27,2.3-5.61,3.34ZM38.19,18.35s.04-.03.04-.05,0-.05-.03-.07c-.76-.42-1.54-.93-2.32-1.53-.07-.06-.15-.06-.23,0-.48.34-.97.66-1.48.95-.22.13-.46.17-.71.13-.25-.04-.47-.16-.64-.36-.15-.16-.21-.36-.18-.58.04-.22.15-.39.35-.49,1.62-.9,2.95-1.94,4-3.12.43-.49.95-.68,1.55-.56.22.05.38.17.47.38.09.21.06.4-.08.57l-.07.07c-.06.08-.04.12.07.12h6.05c.2,0,.38.07.53.22s.23.32.23.52c0,.5-.18.93-.53,1.28-.93.9-1.94,1.68-3.04,2.34-.02.01-.04.03-.04.06s.01.05.04.06c1.37.48,3.07.95,5.09,1.41.21.05.37.17.47.36.11.19.13.39.07.59-.07.22-.21.39-.4.5-.2.11-.41.14-.63.1-2.49-.55-4.63-1.21-6.44-1.99-.09-.04-.19-.04-.28,0-1.83.8-4.09,1.47-6.78,2.01-.22.05-.43.01-.63-.11s-.33-.29-.39-.51c-.06-.2-.03-.39.08-.57.11-.18.27-.3.48-.34,2.19-.42,3.99-.89,5.39-1.39ZM37.19,15.69c.89.69,1.85,1.28,2.87,1.76.11.04.2.03.28-.02,1.1-.55,2.07-1.23,2.9-2.02.02-.02.03-.05.02-.07-.01-.02-.03-.04-.05-.04h-5.68c-.11,0-.19.04-.26.11l-.07.07c-.09.07-.09.14,0,.21Z"/><path class="cls-2" d="M53.02,28.41c-.18.18-.4.26-.66.26s-.48-.09-.66-.26c-.18-.18-.27-.39-.27-.65v-6.92s0-.04-.03-.04c-.02,0-.03,0-.04,0-.18.32-.34.58-.49.79-.13.19-.31.27-.55.26s-.4-.13-.51-.33c-.3-.56-.26-1.11.12-1.65,1.28-1.78,2.2-3.87,2.76-6.25.05-.23.17-.42.38-.56.21-.14.42-.19.66-.16.24.04.42.15.56.33s.19.39.14.62c-.27,1.29-.63,2.51-1.09,3.66-.04.09-.05.19-.05.28v9.96c0,.26-.09.48-.27.65ZM65.19,21.25c.23,0,.43.08.58.23s.23.35.23.58-.08.43-.23.58-.35.23-.58.23h-3.08c-.11,0-.16.05-.16.14v4.72c0,.26-.09.48-.28.67-.19.19-.41.28-.67.28s-.48-.09-.67-.28-.28-.41-.28-.67v-4.72c0-.09-.05-.14-.14-.14h-4.89c-.23,0-.43-.08-.58-.23s-.23-.35-.23-.58.08-.43.23-.58.35-.23.58-.23h4.89c.09,0,.14-.05.14-.16v-4.01c0-.11-.05-.16-.14-.16h-2.24c-.11,0-.19-.01-.25-.04-.09-.04-.16-.01-.21.07-.45.93-.99,1.89-1.62,2.89-.13.2-.31.32-.55.37-.24.05-.46,0-.66-.14s-.32-.33-.36-.58c-.04-.25,0-.47.13-.67,1.04-1.58,1.89-3.28,2.55-5.09.09-.23.24-.41.45-.54.21-.12.43-.16.68-.11.23.05.41.17.53.37.12.2.13.41.05.63-.05.13-.12.32-.21.56-.09.25-.16.43-.21.56-.04.08,0,.12.09.12h1.83c.09,0,.14-.05.14-.14v-1.41c0-.26.09-.48.28-.67.19-.19.41-.28.67-.28s.48.09.67.28c.19.19.28.41.28.67v1.41c0,.09.05.14.16.14h2.57c.22,0,.41.08.56.23s.23.34.23.56-.08.41-.23.56-.34.23-.56.23h-2.57c-.11,0-.16.05-.16.16v4.01c0,.11.05.16.16.16h3.08Z"/><path class="cls-2" d="M68.7,25.47c-.22.1-.44.11-.66.03s-.38-.23-.47-.44c-.09-.21-.09-.42,0-.63,1.03-2.51,1.92-4.97,2.67-7.39.02-.09-.01-.14-.11-.14h-1.72c-.22,0-.41-.08-.56-.23-.15-.15-.23-.34-.23-.56s.08-.41.23-.56.34-.23.56-.23h2.18c.11,0,.17-.05.19-.14.23-.82.39-1.36.46-1.62.06-.23.19-.42.39-.55.2-.13.42-.18.65-.15.22.02.4.13.52.32.12.19.16.39.11.62-.08.32-.21.78-.37,1.39-.02.09.01.14.11.14h2.18c.22,0,.41.08.56.23.15.15.23.34.23.56s-.08.41-.23.56c-.15.15-.34.23-.56.23h-2.64c-.08,0-.15.05-.19.16-.8,2.65-1.74,5.3-2.83,7.94-.09.22-.25.38-.47.48ZM82.18,15.55c.22.02.4.12.53.3.13.18.18.38.16.6-.02.21-.12.38-.3.51-.18.13-.37.18-.58.16-.86-.11-1.65-.16-2.38-.18-.12,0-.18.05-.18.14v5.77c0,.07.05.14.14.21.97.57,1.91,1.24,2.82,2.01.18.15.27.34.28.57.01.23-.06.43-.21.61-.15.18-.35.27-.58.29-.24.02-.45-.05-.63-.2-.68-.55-1.25-.99-1.71-1.32-.08-.06-.13-.04-.16.05-.13,1.02-.51,1.76-1.14,2.22-.63.46-1.55.69-2.77.69s-2.21-.28-2.91-.85-1.05-1.34-1.05-2.31.34-1.7,1.03-2.25c.69-.55,1.66-.83,2.93-.83.64,0,1.33.13,2.06.39.09.02.14-.01.14-.11v-5.7c0-.27.1-.5.3-.7.2-.2.43-.29.7-.28,1.36.04,2.53.11,3.5.23ZM77.67,24.14v-.14c0-.09-.04-.16-.11-.19-.76-.36-1.46-.55-2.09-.55-1.47,0-2.2.52-2.2,1.55,0,.53.19.94.58,1.23.39.29.93.44,1.62.44.84,0,1.42-.16,1.73-.49.31-.33.47-.94.47-1.85Z"/><path class="cls-2" d="M92.38,28.06c-1.91,0-3.24-.48-3.99-1.43s-1.12-2.71-1.12-5.25c0-1.97.06-4.29.18-6.97.01-.27.11-.5.31-.68.19-.18.42-.27.68-.26.26.01.47.11.65.3.18.19.26.41.25.67-.12,2.64-.18,4.95-.18,6.93,0,1.03.06,1.87.18,2.52.12.65.32,1.15.6,1.5.28.36.61.6.99.72.38.12.86.18,1.46.18,2.21,0,3.97-1.48,5.3-4.45.09-.22.25-.38.48-.48.23-.09.46-.1.68-.02.23.09.4.25.5.48.1.22.1.45,0,.67-.79,1.85-1.78,3.24-2.97,4.17-1.19.93-2.53,1.39-4,1.39Z"/></g></svg>