<?xml version="1.0" encoding="UTF-8"?><svg id="_レイヤー_2" xmlns="http://www.w3.org/2000/svg" viewBox="0 0 86.18 21.82"><defs><style>.cls-1{fill:rgba(210,255,246,.9);}.cls-2{fill:#6ba;}</style></defs><g id="_文字図"><rect class="cls-1" x="0" y="0" width="86.18" height="21.82" rx="10.91" ry="10.91"/><path class="cls-2" d="M6.29,13.43c-.16,0-.29-.05-.4-.16s-.16-.24-.16-.4.05-.29.16-.4.24-.16.4-.16h1.05c.07,0,.11-.03.13-.1l.47-2.63c.02-.07-.01-.1-.09-.1h-.91c-.16,0-.29-.05-.4-.16s-.16-.24-.16-.4.05-.29.16-.4.24-.16.4-.16h1.1c.07,0,.11-.03.13-.1l.23-1.34c.04-.18.12-.33.27-.46.14-.12.31-.18.5-.18.17,0,.31.07.42.2s.15.28.11.44l-.23,1.34c-.02.07.01.1.09.1h1.99c.07,0,.11-.03.13-.1l.23-1.34c.04-.18.12-.33.27-.46.14-.12.31-.18.5-.18.17,0,.31.07.42.2s.15.28.11.44l-.23,1.34c-.02.07.01.1.09.1h.81c.16,0,.29.05.4.16.11.11.16.24.16.4s-.05.29-.16.4c-.11.11-.24.16-.4.16h-1c-.07,0-.11.03-.13.1l-.47,2.63c-.02.07.01.1.09.1h.86c.16,0,.29.05.4.16s.16.24.16.4-.05.29-.16.4-.24.16-.4.16h-1.05c-.07,0-.11.03-.13.1l-.29,1.6c-.04.18-.12.33-.27.46-.14.12-.31.18-.5.18-.17,0-.31-.06-.42-.19-.11-.13-.15-.28-.11-.44l.29-1.6c.02-.07-.01-.1-.09-.1h-1.99c-.07,0-.11.03-.13.1l-.29,1.6c-.03.18-.12.33-.27.46-.14.12-.31.18-.5.18-.17,0-.31-.06-.42-.19-.11-.13-.14-.28-.11-.44l.29-1.6c.02-.07-.01-.1-.09-.1h-.86ZM9.24,9.58l-.47,2.63c-.02.07.01.1.09.1h1.99c.07,0,.11-.03.13-.1l.47-2.63c.02-.07-.01-.1-.09-.1h-1.99c-.07,0-.11.03-.13.1Z"/><path class="cls-2" d="M18.33,16.47c-.16.06-.33.06-.49,0-.16-.06-.29-.18-.38-.34-.07-.15-.07-.29-.01-.44.06-.15.17-.25.31-.3,1.38-.48,2.58-1.12,3.61-1.92.04-.03.02-.05-.04-.05h-3.18c-.15,0-.28-.06-.39-.17-.11-.11-.17-.24-.17-.39s.06-.28.17-.39c.11-.11.24-.17.39-.17h4.29c.06,0,.09-.03.09-.08,0-.18.06-.33.18-.43.02,0,.02-.02.02-.05,0-.02-.01-.03-.03-.03-.45,0-.84,0-1.16-.01-.21,0-.39-.08-.54-.23-.15-.14-.23-.32-.24-.53v-.1c-.01-.08-.05-.1-.12-.06-.55.26-1.17.52-1.86.77-.17.06-.35.06-.53,0s-.32-.17-.42-.33c-.09-.14-.1-.28-.04-.43.06-.15.17-.24.31-.29,1.2-.36,2.29-.78,3.25-1.24,0,0,.01-.02.01-.03s0-.02-.01-.02h-3.11c-.15,0-.27-.05-.38-.16-.1-.1-.16-.23-.16-.38s.05-.27.16-.38c.1-.11.23-.16.38-.16h3.34s.03,0,.03-.01c0,0,0-.02-.01-.03-.1-.05-.29-.15-.55-.28s-.46-.24-.6-.31c-.16-.08-.26-.2-.29-.38s.02-.33.15-.46v-.03s.03-.03.03-.05c0-.02-.02-.03-.04-.03h-1.08c-.15,0-.27-.05-.38-.16-.1-.1-.16-.23-.16-.38s.05-.27.16-.38c.1-.1.23-.16.38-.16h8.23c.15,0,.27.05.38.16.1.1.16.23.16.38,0,.36-.16.63-.47.81-.84.46-1.69.88-2.56,1.25,0,.02,0,.03,0,.04h3.41c.15,0,.27.05.38.16.1.11.16.24.16.38,0,.36-.13.66-.38.9-.5.47-1.14.96-1.92,1.47-.16.1-.33.14-.51.12-.19-.03-.34-.1-.47-.23-.11-.12-.16-.26-.14-.42.02-.16.11-.27.25-.35.52-.29.98-.59,1.39-.88.02-.02.02-.03.01-.05,0-.01-.02-.02-.04-.02h-2.47c-.07,0-.1.03-.1.1v1.31c0,.36-.05.62-.14.76-.09.14-.31.24-.64.28-.05,0-.05.03,0,.08.15.1.22.26.22.47,0,.05.03.08.09.08h4.3c.15,0,.27.06.38.17.11.11.16.24.16.39s-.05.28-.16.39c-.11.11-.24.17-.38.17h-3.2s-.03,0-.04.03c0,.02,0,.03.01.04,1.01.79,2.21,1.43,3.59,1.91.16.05.26.15.32.31s.06.3-.01.44c-.08.16-.2.27-.36.34-.16.07-.33.07-.49.01-1.54-.58-2.92-1.41-4.12-2.5-.02-.02-.04-.02-.06-.01-.02,0-.03.02-.03.04v2.16c0,.19-.07.36-.21.5-.14.14-.31.21-.5.21s-.36-.07-.5-.21c-.14-.14-.21-.31-.21-.5v-2.16s-.01-.03-.03-.04c-.02,0-.04,0-.05,0-1.22,1.09-2.6,1.93-4.12,2.51ZM22.49,10.67c.32,0,.51-.02.57-.06.06-.04.08-.17.08-.38v-.82c0-.07-.03-.08-.09-.04-.59.42-1.27.82-2.05,1.22,0,0-.01.02,0,.03,0,.01.01.02.03.02.81.02,1.3.03,1.47.03ZM21.12,6.62c.65.31,1.29.64,1.92.99.06.03.12.04.19.01.86-.34,1.6-.67,2.22-.99,0,0,.01-.02.01-.04s0-.03-.03-.03h-4.32s-.03,0-.03.02,0,.02.01.03Z"/><path class="cls-2" d="M32.37,14.37c.08,0,.12-.03.12-.1v-.75c0-.08-.04-.12-.12-.12h-1.17c-.2,0-.37-.07-.52-.21-.15-.14-.22-.31-.22-.51v-3.6c0-.2.07-.37.22-.52.15-.15.32-.22.52-.22h1.17c.08,0,.12-.03.12-.1v-.69c0-.08-.04-.12-.12-.12h-1.65c-.15,0-.28-.05-.38-.16s-.16-.24-.16-.38.05-.28.16-.39.24-.17.38-.17h1.65c.08,0,.12-.03.12-.1v-.35c0-.19.07-.35.2-.48s.29-.2.48-.2.35.07.48.2.19.29.19.48v.35c0,.07.04.1.12.1h1.59c.15,0,.28.06.38.17s.16.24.16.39-.05.27-.16.38-.24.16-.38.16h-1.59c-.08,0-.12.04-.12.12v.69c0,.07.04.1.12.1h1.13c.2,0,.37.07.52.22s.22.32.22.52v.26s0,.03.02.03.02,0,.03-.01c.55-1.14.95-2.35,1.22-3.64.04-.17.14-.31.28-.42s.3-.15.47-.14c.17.02.31.1.42.24.1.14.14.3.1.46-.03.15-.07.37-.14.66-.02.07,0,.1.08.1h3.15c.2,0,.37.07.52.22s.22.32.22.52v.45c-.15,1.07-.37,2.05-.68,2.95-.06.17-.17.3-.34.38-.17.08-.33.08-.51.01-.17-.06-.28-.18-.36-.35-.07-.17-.08-.35-.02-.52.24-.68.44-1.46.6-2.37.02-.07-.01-.1-.09-.1h-2.83c-.07,0-.12.04-.14.1-.27.83-.58,1.61-.95,2.33-.08.16-.2.25-.38.29-.17.03-.33,0-.47-.09-.05-.04-.1-.09-.14-.14-.02-.02-.03-.02-.05-.02s-.02.02-.02.03v2.37c0,.2-.07.37-.22.51-.15.14-.32.21-.52.21h-1.13c-.08,0-.12.04-.12.12v.75c0,.07.04.1.12.1h1.59c.27,0,.44.13.52.4.02.05.05.06.1.03,1.29-1.06,1.94-2.62,1.94-4.68v-.9c0-.18.06-.34.19-.47.13-.13.29-.19.47-.19s.34.06.47.19c.13.13.2.29.2.47v.9c0,1.02.21,1.97.62,2.83.41.87.99,1.57,1.72,2.11.17.13.3.29.38.49s.09.39.03.59c-.05.18-.17.31-.34.37-.17.06-.33.05-.48-.06-.49-.36-.96-.83-1.4-1.41s-.8-1.22-1.1-1.89c0-.02-.02-.03-.04-.03s-.04,0-.05.03c-.62,1.46-1.46,2.57-2.52,3.3-.16.11-.32.13-.49.07-.17-.07-.29-.2-.35-.38-.07-.19-.07-.38,0-.56.02-.06,0-.09-.06-.09h-1.39c-.08,0-.12.03-.12.1v.73c0,.19-.06.35-.19.49-.13.13-.29.2-.48.2s-.35-.07-.48-.2c-.13-.13-.2-.3-.2-.49v-.73c0-.07-.04-.1-.12-.1h-1.65c-.15,0-.28-.06-.38-.17-.11-.11-.16-.24-.16-.39s.05-.28.16-.39.24-.17.38-.17h1.65ZM31.62,9.48v.75c0,.08.04.12.12.12h.62c.08,0,.12-.04.12-.12v-.75c0-.07-.04-.1-.12-.1h-.62c-.08,0-.12.03-.12.1ZM32.37,12.36c.08,0,.12-.04.12-.12v-.82c0-.07-.04-.1-.12-.1h-.62c-.08,0-.12.03-.12.1v.82c0,.08.04.12.12.12h.62ZM33.83,9.48v.75c0,.08.04.12.12.12h.62c.08,0,.12-.04.12-.12v-.75c0-.07-.04-.1-.12-.1h-.62c-.08,0-.12.03-.12.1ZM33.83,11.43v.82c0,.08.04.12.12.12h.62c.08,0,.12-.04.12-.12v-.82c0-.07-.04-.1-.12-.1h-.62c-.08,0-.12.03-.12.1Z"/><path class="cls-2" d="M44.46,14.57c-.16.07-.32.08-.49.02-.17-.06-.28-.17-.35-.32-.07-.16-.07-.31,0-.47.76-1.85,1.42-3.67,1.98-5.46.02-.07,0-.1-.08-.1h-1.27c-.16,0-.3-.06-.42-.17-.11-.11-.17-.25-.17-.42s.06-.3.17-.42c.11-.11.25-.17.42-.17h1.61c.08,0,.13-.03.14-.1.17-.61.29-1.01.34-1.2.04-.17.14-.31.29-.41s.31-.14.48-.11c.16.02.29.1.38.23s.12.29.08.46c-.06.23-.15.58-.27,1.03-.02.07,0,.1.08.1h1.61c.17,0,.3.06.42.17.11.11.17.25.17.42s-.06.3-.17.42c-.11.11-.25.17-.42.17h-1.95c-.06,0-.11.04-.14.12-.59,1.96-1.29,3.91-2.09,5.86-.07.16-.18.28-.34.36ZM54.41,7.24c.17.02.29.09.39.22.09.13.13.28.12.44-.02.16-.09.28-.22.38-.13.1-.27.13-.43.12-.63-.08-1.22-.12-1.75-.13-.09,0-.13.03-.13.1v4.26c0,.05.03.1.1.16.72.42,1.41.92,2.08,1.48.13.11.2.25.21.42,0,.17-.04.32-.16.45-.11.13-.26.2-.43.21-.17.01-.33-.04-.47-.15-.5-.41-.92-.73-1.26-.98-.06-.04-.1-.03-.12.04-.1.75-.38,1.3-.84,1.64s-1.15.51-2.05.51-1.64-.21-2.15-.63-.77-.99-.77-1.71.25-1.26.76-1.66c.51-.41,1.23-.61,2.16-.61.48,0,.98.1,1.52.29.07.02.1,0,.1-.08v-4.21c0-.2.07-.37.22-.52s.32-.22.52-.21c1.01.03,1.87.08,2.59.17ZM51.09,13.58v-.1c0-.07-.03-.12-.08-.14-.56-.27-1.08-.4-1.55-.4-1.08,0-1.62.38-1.62,1.14,0,.39.14.69.43.91.29.22.68.32,1.2.32.62,0,1.05-.12,1.28-.36.23-.24.34-.7.34-1.37Z"/><path class="cls-2" d="M57.64,16.36c-.12.13-.28.19-.46.19s-.34-.06-.46-.19-.19-.28-.19-.46V6.5c0-.2.07-.37.21-.52.14-.15.31-.22.51-.22h2.39c.2,0,.37.07.52.22.15.15.22.32.22.52v8.53c0,.2-.07.37-.22.52-.15.15-.32.22-.52.22h-1.73c-.06,0-.09.03-.09.1v.03c0,.18-.06.34-.19.46ZM57.83,7.07v2.83c0,.08.04.12.1.12h1.08c.08,0,.12-.04.12-.12v-2.83c0-.08-.04-.12-.12-.12h-1.08c-.07,0-.1.04-.1.12ZM57.83,11.3v3.2c0,.07.04.1.1.1h1.08c.08,0,.12-.03.12-.1v-3.2c0-.07-.04-.1-.12-.1h-1.08c-.07,0-.1.03-.1.1ZM66.97,10.02c-.08,0-.12.03-.12.1v.99c0,.07.04.1.12.1h.53c.16,0,.3.06.42.17s.18.25.18.42-.06.3-.18.42-.26.17-.42.17h-.53c-.08,0-.12.04-.12.12v2.38c0,.33,0,.59-.01.77,0,.19-.04.36-.09.53-.05.16-.11.28-.18.35s-.18.13-.34.19c-.16.06-.32.09-.5.1-.18,0-.42.01-.72.01-.38,0-.73,0-1.04-.03-.17,0-.32-.07-.44-.19-.12-.12-.18-.26-.19-.44,0-.16.04-.29.16-.4s.25-.16.41-.15c.27.02.55.03.86.03.34,0,.54-.03.6-.1s.09-.28.09-.64v-2.42c0-.08-.04-.12-.12-.12h-3.98c-.16,0-.3-.06-.42-.17-.11-.11-.17-.25-.17-.42s.06-.3.17-.42c.11-.11.25-.17.42-.17h3.98c.08,0,.12-.03.12-.1v-.99c0-.07-.04-.1-.12-.1h-3.98c-.16,0-.3-.06-.42-.17-.11-.11-.17-.25-.17-.42s.06-.3.17-.42c.11-.11.25-.17.42-.17h2.26c.07,0,.1-.04.1-.12v-1.21c0-.07-.04-.1-.1-.1h-1.73c-.16,0-.29-.06-.4-.17-.11-.11-.16-.25-.16-.4s.05-.29.16-.4c.11-.11.24-.17.4-.17h1.73c.07,0,.1-.04.1-.12v-.48c0-.19.07-.36.21-.49s.3-.21.49-.21.36.07.49.21.21.3.21.49v.48c0,.08.04.12.12.12h1.82c.16,0,.29.06.4.17.11.11.16.25.16.4s-.05.29-.16.4c-.11.11-.24.17-.4.17h-1.82c-.08,0-.12.04-.12.1v1.21c0,.08.04.12.12.12h2.25c.16,0,.3.06.42.17.12.11.18.25.18.42s-.06.3-.18.42c-.12.11-.26.17-.42.17h-.53ZM63.66,14.09c.12.13.18.28.18.45,0,.17-.07.32-.2.44-.12.11-.27.17-.44.16-.17,0-.32-.07-.44-.19-.4-.43-.76-.8-1.08-1.09-.12-.12-.19-.26-.19-.43,0-.16.05-.31.17-.43.13-.12.28-.19.46-.2.18,0,.33.05.46.17.32.29.68.66,1.09,1.11Z"/><path class="cls-2" d="M70.69,16.64c-.13.13-.29.19-.48.19s-.35-.06-.48-.19-.2-.29-.2-.48V6.24c0-.2.07-.37.21-.52.14-.15.31-.22.51-.22h3.73c.2,0,.37.07.52.22s.22.32.22.52v3.39c0,.2-.07.37-.22.52-.15.15-.32.22-.52.22h-2.99c-.08,0-.12.04-.12.12v5.67c0,.19-.07.35-.2.48ZM70.89,6.72v.71c0,.08.04.12.12.12h2.28c.08,0,.12-.04.12-.12v-.71c0-.08-.04-.12-.12-.12h-2.28c-.08,0-.12.04-.12.12ZM70.89,8.57v.73c0,.07.04.1.12.1h2.28c.08,0,.12-.03.12-.1v-.73c0-.07-.04-.1-.12-.1h-2.28c-.08,0-.12.03-.12.1ZM80.04,5.5c.2,0,.37.07.51.22.14.15.21.32.21.52v8.65c0,.86-.1,1.39-.29,1.59-.19.2-.71.31-1.55.31-.21,0-.58-.01-1.1-.04-.17,0-.31-.07-.42-.18-.12-.11-.18-.26-.19-.43,0-.11.02-.2.05-.27.04-.06.03-.09-.05-.09h-3.46c-.06,0-.09.03-.09.09,0,.16-.05.29-.16.4s-.24.16-.4.16h-.09c-.18,0-.34-.06-.46-.19-.13-.13-.19-.28-.19-.46v-3.91c0-.2.07-.37.22-.52.15-.15.32-.22.52-.22h4.11c.2,0,.37.07.52.22.15.15.22.32.22.52v3.17c0,.17-.06.33-.17.47-.04.05-.02.08.05.08.43.03.72.04.86.04.35,0,.55-.03.62-.1s.1-.26.1-.59v-4.43c0-.08-.04-.12-.12-.12h-3.12c-.2,0-.37-.07-.52-.22-.15-.15-.22-.32-.22-.52v-3.39c0-.2.07-.37.22-.52s.32-.22.52-.22h3.86ZM76.64,12.83v-.56c0-.08-.04-.12-.12-.12h-2.76c-.08,0-.12.04-.12.12v.56c0,.07.04.1.12.1h2.76c.08,0,.12-.03.12-.1ZM76.64,14.65v-.62c0-.08-.04-.12-.12-.12h-2.76c-.08,0-.12.04-.12.12v.62c0,.07.04.1.12.1h2.76c.08,0,.12-.03.12-.1ZM79.41,7.44v-.71c0-.08-.04-.12-.12-.12h-2.41c-.08,0-.12.04-.12.12v.71c0,.08.04.12.12.12h2.41c.08,0,.12-.04.12-.12ZM79.41,9.29v-.73c0-.07-.04-.1-.12-.1h-2.41c-.08,0-.12.03-.12.1v.73c0,.07.04.1.12.1h2.41c.08,0,.12-.03.12-.1Z"/></g></svg>