<?xml version="1.0" encoding="UTF-8"?><svg id="_レイヤー_2" xmlns="http://www.w3.org/2000/svg" viewBox="0 0 86.18 21.82"><defs><style>.cls-1{fill:rgba(210,255,246,.9);}.cls-2{fill:#6ba;}</style></defs><g id="_文字図"><rect class="cls-1" x="0" y="0" width="86.18" height="21.82" rx="10.91" ry="10.91"/><path class="cls-2" d="M19.29,13.43c-.16,0-.29-.05-.4-.16s-.16-.24-.16-.4.05-.29.16-.4.24-.16.4-.16h1.05c.07,0,.11-.03.13-.1l.47-2.63c.02-.07-.01-.1-.09-.1h-.91c-.16,0-.29-.05-.4-.16s-.16-.24-.16-.4.05-.29.16-.4.24-.16.4-.16h1.1c.07,0,.11-.03.13-.1l.23-1.34c.04-.18.12-.33.27-.46.14-.12.31-.18.5-.18.17,0,.31.07.42.2s.15.28.11.44l-.23,1.34c-.02.07.01.1.09.1h1.99c.07,0,.11-.03.13-.1l.23-1.34c.04-.18.12-.33.27-.46.14-.12.31-.18.5-.18.17,0,.31.07.42.2s.15.28.11.44l-.23,1.34c-.02.07.01.1.09.1h.81c.16,0,.29.05.4.16.11.11.16.24.16.4s-.05.29-.16.4c-.11.11-.24.16-.4.16h-1c-.07,0-.11.03-.13.1l-.47,2.63c-.02.07.01.1.09.1h.86c.16,0,.29.05.4.16s.16.24.16.4-.05.29-.16.4-.24.16-.4.16h-1.05c-.07,0-.11.03-.13.1l-.29,1.6c-.04.18-.12.33-.27.46-.14.12-.31.18-.5.18-.17,0-.31-.06-.42-.19-.11-.13-.15-.28-.11-.44l.29-1.6c.02-.07-.01-.1-.09-.1h-1.99c-.07,0-.11.03-.13.1l-.29,1.6c-.03.18-.12.33-.27.46-.14.12-.31.18-.5.18-.17,0-.31-.06-.42-.19-.11-.13-.14-.28-.11-.44l.29-1.6c.02-.07-.01-.1-.09-.1h-.86ZM22.24,9.58l-.47,2.63c-.02.07.01.1.09.1h1.99c.07,0,.11-.03.13-.1l.47-2.63c.02-.07-.01-.1-.09-.1h-1.99c-.07,0-.11.03-.13.1Z"/><path class="cls-2" d="M36.81,5.56c.16,0,.29.06.4.17.11.11.17.25.17.4s-.06.29-.17.4c-.11.11-.25.16-.4.16h-5.79c-.16,0-.29-.05-.4-.16-.11-.11-.17-.24-.17-.4s.06-.29.17-.4c.11-.11.25-.17.4-.17h5.79ZM30.53,11.86c0-.2.07-.37.21-.52.14-.15.31-.22.51-.22h5.25c.2,0,.37.07.52.22.15.15.22.32.22.52v4.35c0,.18-.07.34-.2.47-.13.13-.29.19-.47.19h-.22c-.12,0-.23-.05-.31-.14-.09-.09-.13-.2-.13-.32,0-.04-.03-.06-.08-.06h-3.89c-.05,0-.08.02-.08.06,0,.12-.04.23-.13.32-.09.09-.19.14-.31.14h-.23c-.19,0-.35-.07-.48-.2s-.2-.3-.2-.49v-4.33ZM32.31,10.5h-.62c-.2,0-.37-.07-.52-.22-.15-.15-.22-.32-.22-.52v-1.7c0-.2.07-.37.22-.52.15-.15.32-.22.52-.22h4.41c.2,0,.37.07.51.22.14.15.21.32.21.52v1.7c0,.2-.07.37-.21.52-.14.15-.31.22-.51.22h-3.78ZM31.89,12.34v.82c0,.08.04.12.12.12h1.14c.08,0,.12-.04.12-.12v-.82c0-.07-.04-.1-.12-.1h-1.14c-.08,0-.12.03-.12.1ZM31.89,14.35v.85c0,.08.04.12.12.12h1.14c.08,0,.12-.04.12-.12v-.85c0-.08-.04-.12-.12-.12h-1.14c-.08,0-.12.04-.12.12ZM32.31,8.48v.95c0,.07.04.1.12.1h2.96c.07,0,.1-.03.1-.1v-.95c0-.08-.03-.12-.1-.12h-2.96c-.08,0-.12.04-.12.12ZM34.56,12.34v.82c0,.08.03.12.1.12h1.14c.08,0,.12-.04.12-.12v-.82c0-.07-.04-.1-.12-.1h-1.14c-.07,0-.1.03-.1.1ZM34.56,14.35v.85c0,.08.03.12.1.12h1.14c.08,0,.12-.04.12-.12v-.85c0-.08-.04-.12-.12-.12h-1.14c-.07,0-.1.04-.1.12ZM39.04,13.95c-.13.13-.29.19-.47.19s-.34-.06-.47-.19c-.13-.13-.2-.29-.2-.47v-6.86c0-.18.07-.34.2-.47s.29-.19.47-.19.34.06.47.19c.13.13.2.29.2.47v6.86c0,.18-.07.34-.2.47ZM40.61,5.64c.13-.13.29-.2.48-.2s.35.07.48.2.2.3.2.49v8.8c0,.85-.09,1.38-.27,1.58-.18.2-.65.31-1.42.31-.36,0-.71,0-1.05-.03-.18,0-.34-.08-.46-.21-.12-.13-.19-.29-.2-.47,0-.16.05-.31.17-.43.12-.12.27-.18.44-.17.29.02.59.03.88.03.26,0,.42-.03.47-.1.06-.06.08-.26.08-.58V6.12c0-.19.07-.35.2-.49Z"/><path class="cls-2" d="M43.65,15.05c-.16.03-.3,0-.44-.08-.13-.09-.21-.22-.23-.38-.03-.16,0-.32.1-.46.09-.14.22-.23.39-.27,0,0,.03-.01.05-.01s.05,0,.07-.01c.06,0,.09-.05.09-.13v-6.85c0-.17.06-.32.19-.45.13-.13.28-.19.45-.19s.32.06.45.19c.12.13.19.28.19.45v6.53s0,.05.03.07.04.03.07.02c.31-.09.79-.23,1.43-.42.07-.02.1-.07.1-.14v-7.01c0-.18.06-.34.19-.47s.29-.19.47-.19.34.06.47.19.19.29.19.47v10.37c0,.18-.06.34-.19.47s-.29.19-.47.19-.34-.06-.47-.19-.19-.29-.19-.47v-1.92c0-.07-.03-.1-.09-.08-.9.29-1.85.55-2.85.78ZM54.87,15.37c.16.1.26.23.31.42.05.18.02.35-.07.51-.09.16-.22.27-.4.31s-.34.02-.5-.08c-.88-.56-1.67-1.24-2.38-2.04-.05-.06-.1-.06-.16-.01-.76.81-1.62,1.51-2.59,2.08-.16.1-.34.12-.53.07-.19-.05-.34-.15-.45-.31-.1-.15-.13-.3-.09-.47.04-.16.14-.29.29-.39.97-.58,1.82-1.28,2.54-2.09.04-.06.05-.12.01-.17-.85-1.31-1.47-2.9-1.86-4.78-.04-.18-.01-.35.09-.51.1-.16.25-.26.43-.29.18-.03.35,0,.49.1.15.1.24.25.29.43.31,1.5.79,2.81,1.43,3.93.02.02.04.02.06.02.03,0,.05-.02.07-.03.9-1.39,1.51-2.99,1.82-4.81.02-.08-.01-.12-.09-.12h-4.6c-.17,0-.32-.06-.44-.18-.12-.12-.18-.26-.18-.42s.06-.31.18-.43.26-.18.44-.18h5.32c.2,0,.37.07.52.22s.22.32.22.52v.47c-.36,2.38-1.15,4.43-2.37,6.14-.04.05-.03.11.01.17.61.74,1.33,1.38,2.18,1.94Z"/><path class="cls-2" d="M57.64,16.56c-.17.09-.34.11-.51.06s-.32-.14-.42-.29c-.09-.15-.12-.3-.08-.47.04-.16.14-.29.29-.39,1.5-.91,2.71-2.11,3.63-3.61s1.38-2.99,1.38-4.48v-.34c0-.08-.04-.12-.12-.12h-2.78c-.17,0-.31-.06-.44-.18-.13-.12-.19-.27-.19-.44s.06-.31.18-.43c.12-.12.27-.18.44-.18h3.59c.2,0,.37.07.52.22s.22.32.22.52v.43c0,1.84.37,3.52,1.12,5.04.75,1.53,1.76,2.71,3.05,3.56.15.1.24.23.28.4s.01.33-.08.47c-.1.15-.25.24-.42.29s-.34.02-.5-.08c-.92-.58-1.74-1.39-2.47-2.42-.73-1.03-1.29-2.18-1.69-3.44,0-.02-.02-.03-.03-.03-.01,0-.02,0-.03.03-.49,1.23-1.17,2.36-2.03,3.39s-1.83,1.86-2.91,2.48Z"/></g></svg>