<?xml version="1.0" encoding="UTF-8"?><svg id="_レイヤー_2" xmlns="http://www.w3.org/2000/svg" viewBox="0 0 101.29 19.36"><defs><style>.cls-1{fill:#f0f8fc;}.cls-2{stroke-linecap:round;stroke-linejoin:round;}.cls-2,.cls-3{fill:none;stroke:#fff;stroke-width:.9px;}.cls-3{stroke-miterlimit:10;}</style></defs><g id="_画像上"><path class="cls-1" d="M12.04,8.44c-.07.06-.14.09-.23.09s-.17-.03-.23-.09c-.07-.06-.1-.13-.1-.22V3.06c0-.09.03-.17.1-.23.07-.06.15-.09.25-.09.23,0,.41.09.53.29l2.82,4.47s0,0,.02,0c0,0,0,0,0,0V3.04c0-.09.03-.16.1-.22.07-.06.14-.09.23-.09s.17.03.23.09c.07.06.1.13.1.22v5.16c0,.09-.03.17-.1.23-.07.06-.15.09-.25.09-.23,0-.41-.09-.53-.29l-2.82-4.47s0,0-.02,0c0,0,0,0,0,0v4.45c0,.09-.03.16-.1.22Z"/><path class="cls-1" d="M17.77,8.53c-.13,0-.24-.04-.34-.14-.1-.09-.14-.2-.14-.32V3.18c0-.12.05-.23.14-.32.1-.09.21-.13.34-.13h2.85c.08,0,.15.03.2.08.06.05.08.11.08.18s-.03.13-.08.19c-.06.06-.12.08-.2.08h-2.58c-.05,0-.08.02-.08.06v1.76s.03.06.08.06h2.43c.08,0,.14.02.2.07.05.05.08.11.08.18s-.03.13-.08.18-.12.08-.2.08h-2.43c-.05,0-.08.02-.08.07v2.2s.03.06.08.06h2.58c.08,0,.15.03.2.08.06.06.08.12.08.19s-.03.13-.08.18c-.06.05-.12.08-.2.08h-2.85Z"/><path class="cls-1" d="M23.14,8.14l-1.19-5.09c-.02-.08,0-.16.06-.22.05-.06.13-.09.22-.09.1,0,.19.03.27.09s.13.14.15.23l1.01,4.79s0,0,0,0,0,0,0,0l1.04-4.7c.02-.12.08-.21.18-.29.1-.08.21-.12.34-.12s.24.04.34.12.17.17.2.29l1.04,4.7s0,0,0,0c0,0,0,0,0,0l1.01-4.79c.02-.09.06-.16.14-.22.07-.06.16-.09.26-.09.09,0,.16.03.21.09.06.06.08.14.06.21l-1.2,5.1c-.03.12-.09.21-.19.28s-.21.11-.33.11-.24-.04-.33-.11c-.1-.07-.16-.17-.18-.28l-1.04-4.71s0,0,0,0c0,0,0,0,0,0l-1.04,4.71c-.03.12-.09.21-.19.28-.1.07-.21.11-.33.11s-.24-.04-.33-.11c-.1-.07-.16-.17-.18-.28Z"/><path class="cls-1" d="M31.82,8.88c-.07,0-.14-.01-.2-.06-.06-.05-.09-.1-.1-.18-.01-.07,0-.14.06-.2.05-.06.11-.09.19-.1.09-.01.23-.03.42-.05.04-.01.07-.04.07-.08v-2.74s-.02-.07-.07-.07h-.32c-.08,0-.15-.03-.2-.08-.06-.05-.08-.11-.08-.18s.03-.13.08-.18c.06-.05.12-.08.2-.08h7.15c.08,0,.15.03.2.08s.08.11.08.18-.03.13-.08.18c-.05.05-.12.08-.2.08h-3.69s-.07.02-.07.07v3.49c0,.08-.03.15-.09.2s-.14.08-.22.08-.16-.03-.22-.08-.09-.12-.09-.2v-.44s-.02-.07-.07-.06c-1.04.19-1.96.32-2.75.4ZM32.76,2.31h5.37c.13,0,.24.04.34.13.1.09.14.19.14.31v1.29c0,.12-.05.23-.14.32-.1.09-.21.14-.34.14h-5.37c-.13,0-.24-.04-.34-.14-.1-.09-.14-.2-.14-.32v-1.29c0-.12.05-.23.14-.31.1-.09.21-.13.34-.13ZM32.86,5.49v.44s.03.07.08.07h1.64s.07-.02.07-.07v-.44s-.02-.07-.07-.07h-1.64c-.05,0-.08.02-.08.07ZM32.86,6.52v.48s.03.07.08.07h1.64s.07-.02.07-.07v-.48s-.02-.06-.07-.06h-1.64c-.05,0-.08.02-.08.06ZM32.86,7.59v.56s.02.07.07.06c.55-.09,1.1-.17,1.65-.26.04-.01.07-.04.07-.08v-.27s-.02-.06-.07-.06h-1.64c-.05,0-.08.02-.08.06ZM37.95,3.16v-.31s-.02-.06-.07-.06h-4.86c-.05,0-.08.02-.08.06v.31s.03.06.08.06h4.86s.07-.02.07-.06ZM37.95,3.99v-.3s-.02-.07-.07-.07h-4.86c-.05,0-.08.02-.08.07v.3s.03.07.08.07h4.86s.07-.02.07-.07ZM39.19,8.67c.03.06.04.13,0,.2-.03.07-.08.12-.15.15-.07.04-.15.04-.23.01-.52-.17-.99-.4-1.41-.68-.04-.03-.08-.03-.12,0-.4.26-.85.49-1.37.67-.07.03-.15.03-.23,0-.08-.03-.13-.08-.17-.15-.03-.07-.03-.14,0-.2s.08-.11.15-.13c.42-.14.79-.32,1.13-.54.04-.02.04-.05,0-.08-.33-.29-.62-.61-.86-.96-.05-.06-.06-.13-.03-.21s.07-.13.14-.17c.08-.04.16-.04.24-.02s.15.07.19.14c.23.34.48.63.77.87.03.02.07.02.11,0,.36-.32.64-.7.85-1.13,0-.02,0-.03,0-.05,0-.02-.02-.02-.04-.02h-2.35c-.07,0-.14-.03-.2-.08-.06-.05-.09-.11-.09-.18s.03-.13.09-.18c.06-.05.12-.08.2-.08h2.77c.08,0,.15.03.2.08.05.05.08.11.08.18,0,.19-.04.36-.11.52-.23.49-.53.92-.92,1.29-.01.01-.02.03-.02.05s0,.04.03.04c.34.21.73.39,1.16.53.07.03.13.07.16.14Z"/><path class="cls-1" d="M40.54,8.37c-.06.05-.13.08-.21.07s-.14-.04-.2-.1c-.05-.06-.07-.13-.07-.21,0-.08.04-.15.1-.2.54-.46.96-.94,1.26-1.46.01-.01.01-.02,0-.04,0-.02-.02-.02-.04-.02h-1.01c-.08,0-.15-.03-.2-.08s-.08-.11-.08-.18.03-.13.08-.18.12-.08.2-.08h1.2c.05,0,.08-.02.08-.06v-.52s-.03-.06-.08-.06h-1.21c-.07,0-.14-.03-.19-.08s-.08-.11-.08-.18.03-.13.08-.18.12-.08.19-.08h.63s.05-.02.04-.06c-.09-.37-.2-.74-.32-1.12-.02-.05-.02-.1,0-.15.01-.04,0-.06-.04-.06h-.25c-.07,0-.14-.02-.19-.07-.05-.05-.08-.11-.08-.19s.03-.13.08-.18c.05-.05.12-.07.2-.07h1.15c.05,0,.08-.02.08-.07v-.44c0-.08.03-.16.09-.22s.14-.09.23-.09.17.03.23.09.09.13.09.22v.44s.03.07.08.07h1.37c.08,0,.15.03.2.08s.08.11.08.18c0,.07-.03.14-.08.19-.05.05-.12.07-.2.07h-.25s-.05.02-.05.06c0,.04,0,.07,0,.09-.12.44-.27.83-.43,1.18-.02.04,0,.06.04.06h.69c.07,0,.14.03.19.08s.08.11.08.18-.03.13-.08.18-.12.08-.19.08h-1.37c-.05,0-.08.02-.08.06v.52s.03.06.08.06h1.27c.08,0,.15.03.2.08.05.05.08.11.08.18s-.03.13-.08.18c-.05.05-.12.08-.2.08h-1.21s-.02,0-.03.02c0,.01,0,.02,0,.03.37.31.71.63,1.04.94.06.05.08.12.08.19s-.03.14-.08.19c-.05.05-.11.08-.19.07s-.14-.03-.19-.09c-.31-.32-.55-.56-.73-.73-.01-.01-.02-.01-.04,0s-.02.01-.02.02v1.83c0,.09-.03.16-.09.21s-.14.09-.23.09-.17-.03-.23-.09-.09-.13-.09-.21v-1.79s0-.02-.02-.02c-.01,0-.02,0-.03,0-.29.46-.66.89-1.09,1.28ZM41.66,4.74h.65s.08-.02.09-.06c.19-.39.35-.81.48-1.26h0s0-.02,0-.02c.01-.04,0-.06-.04-.06h-1.53s-.05.02-.04.05h0s0,.02,0,.02c.11.33.22.71.33,1.14.01.04.01.08,0,.12-.01.04,0,.06.05.06ZM47.53,4.54c.08,0,.15.03.21.08.06.05.09.12.09.19s-.03.14-.09.2-.13.09-.21.09h-.53s-.07.02-.07.06v3.66c0,.08-.03.15-.09.21-.06.06-.14.08-.23.08s-.17-.03-.23-.08c-.06-.06-.09-.13-.09-.21v-3.66s-.03-.06-.08-.06h-1.14c-.05,0-.08.02-.08.06-.06.88-.18,1.6-.34,2.16-.16.56-.4,1.07-.7,1.51-.04.07-.11.11-.2.12-.09,0-.16-.01-.22-.07-.07-.05-.11-.12-.12-.21-.01-.09,0-.17.05-.23.35-.54.6-1.18.74-1.92.14-.74.22-1.86.23-3.36,0-.13.05-.24.14-.33.09-.09.2-.15.34-.16.89-.09,1.65-.23,2.26-.41.08-.03.16-.02.23.01.07.03.12.09.14.16.02.08.02.15-.02.23s-.09.12-.17.14c-.66.19-1.41.33-2.23.41-.05.01-.07.03-.07.07-.01.53-.02.93-.03,1.19,0,.05.03.07.08.07h2.42Z"/><path class="cls-1" d="M48.75,6.46c-.06.03-.13.05-.2.04-.07-.01-.13-.04-.17-.1-.04-.06-.05-.12-.04-.19.16-.73.27-1.46.35-2.19.01-.07.04-.12.09-.17.05-.04.11-.06.19-.06.07.01.13.04.18.09.05.05.07.11.06.18-.07.75-.18,1.49-.35,2.24-.01.07-.05.12-.11.15ZM50.02,9.13c-.07.06-.14.09-.23.09s-.17-.03-.23-.09-.09-.13-.09-.22V2.43c0-.09.03-.16.09-.22.06-.06.14-.09.23-.09s.17.03.23.09c.07.06.1.13.1.22v6.48c0,.08-.03.16-.1.22ZM50.26,3.72c.04-.06.09-.09.16-.1.07-.01.13,0,.19.03.06.03.09.08.11.14.07.32.13.59.17.8.01.04.03.05.07.02.04-.02.09-.03.13-.03h2.04c.05,0,.08-.02.08-.06v-.4s-.02-.06-.08-.06h-1.64c-.07,0-.13-.02-.18-.07s-.08-.1-.08-.17.02-.12.08-.16.11-.07.18-.07h1.64c.05,0,.08-.02.08-.06v-.4s-.02-.06-.08-.06h-1.91c-.07,0-.14-.02-.19-.07s-.08-.11-.08-.17.03-.13.08-.17c.05-.05.11-.07.19-.07h1.91c.05,0,.08-.02.08-.07v-.19c0-.09.03-.17.1-.23s.15-.09.24-.09.18.03.24.09c.06.06.1.14.1.23v.19s.02.07.08.07h1.82c.07,0,.14.02.19.07.05.05.08.11.08.17s-.02.13-.08.17-.11.07-.19.07h-1.82c-.05,0-.08.02-.08.06v.4s.02.06.08.06h1.59c.07,0,.13.02.17.07.05.04.07.1.07.16s-.02.12-.07.17c-.05.05-.11.07-.17.07h-1.59c-.05,0-.08.02-.08.06v.4s.02.06.08.06h2c.07,0,.13.02.18.07.05.04.07.1.07.17s-.02.13-.07.17c-.05.05-.11.07-.18.07h-4.92s-.03,0-.05,0-.02.02-.01.04v.02c.01.07,0,.13-.04.18s-.1.08-.17.09c-.07.01-.13,0-.19-.04-.06-.04-.09-.09-.1-.15-.06-.34-.14-.78-.25-1.3-.01-.06,0-.12.04-.18ZM54.72,8.61c.2,0,.31-.01.35-.03.03-.02.05-.09.05-.21v-.32s-.03-.06-.08-.06h-3.15c-.05,0-.08.02-.08.06v.8c0,.09-.03.16-.1.22s-.14.09-.23.09-.17-.03-.23-.09-.1-.13-.1-.22v-2.92c0-.12.05-.23.14-.31.1-.09.21-.13.34-.13h3.66c.13,0,.24.04.34.13.1.09.14.19.14.31v2.44c0,.35-.05.57-.16.65-.1.08-.38.12-.82.12-.04,0-.1,0-.17,0s-.16,0-.27-.01-.23-.01-.33-.02c-.08,0-.15-.03-.2-.09s-.08-.12-.08-.19c0-.07.03-.13.08-.18s.12-.07.2-.07c.34.02.57.02.69.02ZM51.82,6.04v.41s.03.07.08.07h3.15c.05,0,.08-.02.08-.07v-.41s-.03-.07-.08-.07h-3.15c-.05,0-.08.02-.08.07ZM55.05,7.53c.05,0,.08-.02.08-.06v-.41s-.03-.07-.08-.07h-3.15c-.05,0-.08.02-.08.07v.41s.03.06.08.06h3.15Z"/><path class="cls-1" d="M57.31,4.46c-.08,0-.14-.02-.2-.07-.05-.05-.08-.11-.08-.18s.03-.14.08-.19c.05-.05.12-.08.19-.08h1.26c.05,0,.08-.02.08-.06v-.72s-.03-.07-.08-.07h-1.03c-.07,0-.14-.02-.19-.07s-.08-.11-.08-.17.03-.13.08-.17c.05-.05.11-.07.19-.07h1.03c.05,0,.08-.02.08-.06v-.22c0-.08.03-.16.09-.22s.14-.09.23-.09.17.03.23.09.1.13.1.22v.22s.02.06.07.06h.96c.07,0,.13.02.18.07s.07.11.07.17-.02.13-.07.17c-.05.05-.11.07-.18.07h-.96s-.07.02-.07.07v.72s.02.06.07.06h1.22c.07,0,.14.02.2.08.06.05.09.11.09.19,0,.07-.03.13-.08.18s-.12.08-.2.08h-.15s-.06.02-.07.07c0,0,0,0,0,0,0,0,0,0,0,0-.11.5-.25.96-.4,1.39-.01.04,0,.06.05.06h.58c.08,0,.15.03.2.08s.08.11.08.18c0,.07-.03.14-.09.19s-.12.08-.2.08h-1.22s-.07.02-.07.06v.82s.02.07.07.07h1.01c.07,0,.14.02.19.07s.08.11.08.17-.03.13-.08.17-.11.07-.19.07h-1.01s-.07.02-.07.07v.92c0,.08-.03.16-.1.22s-.14.09-.23.09-.17-.03-.23-.09-.09-.13-.09-.22v-.92s-.03-.07-.08-.07h-1.1c-.07,0-.14-.02-.19-.07-.05-.04-.08-.1-.08-.17s.03-.13.08-.17c.05-.05.11-.07.19-.07h1.1c.05,0,.08-.02.08-.07v-.82s-.03-.06-.08-.06h-1.21c-.08,0-.15-.03-.2-.08-.05-.05-.08-.11-.08-.19,0-.07.03-.13.08-.18.05-.05.12-.08.2-.08h.59s.03,0,.05-.02.02-.03.01-.05c-.11-.52-.21-.97-.31-1.34,0-.02,0-.04,0-.06,0-.04-.02-.06-.07-.06h-.31ZM59.72,4.46h-1.42s-.06.02-.05.07c.1.4.21.86.31,1.37h0s0,.02,0,.02c0,.05.02.07.07.07h.64s.07-.02.08-.06c.17-.48.31-.94.41-1.4.01-.05,0-.08-.06-.08ZM61.09,8.88V2.77c0-.12.05-.23.14-.31.1-.09.21-.13.34-.13h2.56c.13,0,.24.04.33.14s.13.2.13.32c-.03.41-.07.7-.12.88-.04.18-.1.29-.17.34-.07.05-.18.08-.33.08-.28,0-.7,0-1.26-.02-.07,0-.14-.03-.19-.08-.05-.05-.08-.11-.08-.17s.02-.13.07-.17.11-.07.18-.06c.58.02.91.03,1.01.03.09,0,.15-.03.18-.1s.06-.27.09-.6c0-.05-.02-.07-.07-.07h-2.13s-.07.02-.07.07v1.57s.02.06.07.06h2.3c.13,0,.24.04.34.14.1.09.14.2.14.32v.06c-.12.88-.43,1.7-.92,2.47-.02.04-.02.07,0,.1.27.32.57.61.9.85.16.12.21.26.13.44-.03.07-.08.11-.16.13s-.15.01-.21-.03c-.35-.24-.68-.54-1-.91-.02-.02-.05-.02-.08,0-.26.32-.54.61-.85.86-.06.05-.13.07-.22.06-.08-.01-.15-.05-.19-.12-.04-.07-.06-.15-.05-.23s.06-.15.12-.21c.32-.26.59-.53.81-.83.03-.04.03-.07,0-.1-.37-.54-.66-1.12-.87-1.73-.03-.07-.03-.15,0-.22.03-.07.09-.13.17-.17.07-.03.14-.03.2,0,.07.03.11.08.14.15.16.5.39.98.7,1.45.02.03.05.03.07,0,.35-.6.57-1.23.68-1.89.01-.05,0-.07-.06-.07h-2.11s-.07.02-.07.07v3.76c0,.08-.03.15-.09.21-.06.06-.14.09-.22.09s-.16-.03-.22-.09c-.06-.06-.09-.13-.09-.21Z"/><path class="cls-1" d="M65.9,2.89c-.07,0-.14-.03-.19-.08-.05-.05-.08-.11-.08-.18s.03-.13.08-.17c.05-.05.12-.07.19-.07h6.87c.08,0,.14.02.2.07s.08.11.08.17-.03.13-.08.18-.12.08-.19.08h-2.98c-.05,0-.08.02-.08.07v.48s.03.06.08.06h2.1c.13,0,.24.04.33.14.09.09.14.2.14.32v2.69c0,.08-.03.16-.09.21-.06.06-.13.09-.23.09s-.17-.03-.23-.09c-.06-.06-.09-.13-.09-.21v-.14s-.02-.07-.07-.07h-2.04c-.05,0-.08.02-.09.06-.11.43-.28.8-.52,1.11-.03.04-.02.07.03.09,1.01.46,2.26.73,3.75.79.08,0,.14.04.19.09s.07.12.06.19c-.01.08-.05.14-.12.19-.07.05-.14.07-.23.06-1.57-.07-2.92-.38-4.05-.92-.05-.02-.09-.02-.13,0-.54.41-1.37.71-2.48.88-.08.01-.16,0-.23-.05-.07-.04-.12-.1-.14-.17-.02-.07-.01-.13.03-.19.05-.06.11-.1.19-.11.93-.15,1.61-.38,2.05-.67.02-.01.03-.02.03-.04,0-.02,0-.03-.02-.04-.34-.22-.61-.42-.82-.61-.06-.05-.08-.12-.08-.19s.04-.14.1-.19c.06-.05.14-.08.22-.07.08,0,.16.04.22.09.25.22.51.42.79.59.03.03.07.02.1-.02.17-.23.3-.5.39-.81.01-.05,0-.07-.05-.07h-2.04c-.13,0-.24-.04-.33-.13-.09-.09-.14-.19-.14-.31v-2.04c0-.12.05-.23.14-.32.09-.09.2-.14.33-.14h2.19c.05,0,.08-.02.08-.06v-.48s-.03-.07-.08-.07h-3.06ZM69.04,4.66v-.6s-.03-.07-.08-.07h-1.96s-.07.02-.07.07v.6s.02.06.07.06h1.96c.05,0,.08-.02.08-.06ZM68.98,5.91c.03-.21.04-.43.05-.66,0-.04-.02-.06-.07-.06h-1.96s-.07.02-.07.06v.66s.02.06.07.06h1.9s.07-.02.08-.06ZM69.71,5.26c0,.23-.02.44-.05.65-.01.04,0,.06.06.06h1.95s.07-.02.07-.06v-.66s-.02-.06-.07-.06h-1.88c-.05,0-.08.02-.08.07ZM69.72,4.06v.6s.03.06.08.06h1.87s.07-.02.07-.06v-.6s-.02-.07-.07-.07h-1.87c-.05,0-.08.02-.08.07Z"/><path class="cls-1" d="M74.47,8.37c-.06.05-.13.08-.21.07s-.14-.04-.2-.1c-.05-.06-.07-.13-.07-.21,0-.08.04-.15.1-.2.54-.46.96-.94,1.26-1.46.01-.01.01-.02,0-.04,0-.02-.02-.02-.04-.02h-1.01c-.08,0-.15-.03-.2-.08s-.08-.11-.08-.18.03-.13.08-.18.12-.08.2-.08h1.2c.05,0,.08-.02.08-.06v-.52s-.03-.06-.08-.06h-1.21c-.07,0-.14-.03-.19-.08s-.08-.11-.08-.18.03-.13.08-.18.12-.08.19-.08h.63s.05-.02.04-.06c-.09-.37-.2-.74-.32-1.12-.02-.05-.02-.1,0-.15.01-.04,0-.06-.04-.06h-.25c-.07,0-.14-.02-.19-.07-.05-.05-.08-.11-.08-.19s.03-.13.08-.18c.05-.05.12-.07.2-.07h1.15c.05,0,.08-.02.08-.07v-.44c0-.08.03-.16.09-.22s.14-.09.23-.09.17.03.23.09.09.13.09.22v.44s.03.07.08.07h1.37c.08,0,.15.03.2.08s.08.11.08.18c0,.07-.03.14-.08.19-.05.05-.12.07-.2.07h-.25s-.05.02-.05.06c0,.04,0,.07,0,.09-.12.44-.27.83-.43,1.18-.02.04,0,.06.04.06h.69c.07,0,.14.03.19.08s.08.11.08.18-.03.13-.08.18-.12.08-.19.08h-1.37c-.05,0-.08.02-.08.06v.52s.03.06.08.06h1.27c.08,0,.15.03.2.08.05.05.08.11.08.18s-.03.13-.08.18c-.05.05-.12.08-.2.08h-1.21s-.02,0-.03.02c0,.01,0,.02,0,.03.37.31.71.63,1.04.94.06.05.08.12.08.19s-.03.14-.08.19c-.05.05-.11.08-.19.07s-.14-.03-.19-.09c-.31-.32-.55-.56-.73-.73-.01-.01-.02-.01-.04,0s-.02.01-.02.02v1.83c0,.09-.03.16-.09.21s-.14.09-.23.09-.17-.03-.23-.09-.09-.13-.09-.21v-1.79s0-.02-.02-.02c-.01,0-.02,0-.03,0-.29.46-.66.89-1.09,1.28ZM75.59,4.74h.65s.08-.02.09-.06c.19-.39.35-.81.48-1.26h0s0-.02,0-.02c.01-.04,0-.06-.04-.06h-1.53s-.05.02-.04.05h0s0,.02,0,.02c.11.33.22.71.33,1.14.01.04.01.08,0,.12-.01.04,0,.06.05.06ZM81.46,4.54c.08,0,.15.03.21.08.06.05.09.12.09.19s-.03.14-.09.2-.13.09-.21.09h-.53s-.07.02-.07.06v3.66c0,.08-.03.15-.09.21-.06.06-.14.08-.23.08s-.17-.03-.23-.08c-.06-.06-.09-.13-.09-.21v-3.66s-.03-.06-.08-.06h-1.14c-.05,0-.08.02-.08.06-.06.88-.18,1.6-.34,2.16-.16.56-.4,1.07-.7,1.51-.04.07-.11.11-.2.12-.09,0-.16-.01-.22-.07-.07-.05-.11-.12-.12-.21-.01-.09,0-.17.05-.23.35-.54.6-1.18.74-1.92.14-.74.22-1.86.23-3.36,0-.13.05-.24.14-.33.09-.09.2-.15.34-.16.89-.09,1.65-.23,2.26-.41.08-.03.16-.02.23.01.07.03.12.09.14.16.02.08.02.15-.02.23s-.09.12-.17.14c-.66.19-1.41.33-2.23.41-.05.01-.07.03-.07.07-.01.53-.02.93-.03,1.19,0,.05.03.07.08.07h2.42Z"/><path class="cls-1" d="M83.37,7.07c-.06.06-.13.09-.22.09s-.17-.03-.23-.09c-.06-.06-.09-.13-.09-.21v-3.01c0-.12.05-.23.14-.32.1-.09.21-.13.34-.13h2.59s.07-.02.07-.06v-.97c0-.09.03-.17.1-.23s.15-.09.24-.09.17.03.24.09c.07.06.1.14.1.23v.97s.03.06.08.06h2.58c.13,0,.24.04.34.13s.14.2.14.32v3.01c0,.09-.03.16-.09.21-.06.06-.13.09-.22.09s-.17-.03-.23-.09c-.06-.06-.09-.13-.09-.21v-.13s-.02-.07-.07-.07h-2.36c-.05,0-.08.02-.08.07v2.26c0,.09-.03.17-.1.23-.07.06-.15.09-.24.09s-.17-.03-.24-.09-.1-.14-.1-.23v-2.26s-.02-.07-.07-.07h-2.37s-.07.02-.07.07v.13c0,.09-.03.16-.09.21ZM83.46,4v2.05s.03.07.08.07h2.36s.07-.02.07-.07v-2.05s-.02-.06-.07-.06h-2.36c-.05,0-.08.02-.08.06ZM89.07,3.94h-2.35c-.05,0-.08.02-.08.06v2.05s.03.07.08.07h2.35c.05,0,.08-.02.08-.07v-2.05s-.03-.06-.08-.06Z"/><polyline class="cls-3" points="0 13.71 47.77 13.71 50.65 18.48 53.52 13.71 101.29 13.71"/><line class="cls-2" x1="1.34" y1="5.67" x2="5.91" y2="5.67"/><line class="cls-2" x1="4.35" y1=".45" x2="6.63" y2="2.91"/><line class="cls-2" x1="4.35" y1="10.89" x2="6.63" y2="8.42"/><line class="cls-2" x1="99.95" y1="5.67" x2="95.39" y2="5.67"/><line class="cls-2" x1="96.94" y1=".45" x2="94.66" y2="2.91"/><line class="cls-2" x1="96.94" y1="10.89" x2="94.66" y2="8.42"/></g></svg>