<?xml version="1.0" encoding="UTF-8"?><svg id="_レイヤー_2" xmlns="http://www.w3.org/2000/svg" viewBox="0 0 86.18 21.82"><defs><style>.cls-1{fill:rgba(210,255,246,.9);}.cls-2{fill:#6ba;}</style></defs><g id="_文字図"><rect class="cls-1" x="0" y="0" width="86.18" height="21.82" rx="10.91" ry="10.91"/><path class="cls-2" d="M17.48,13.43c-.16,0-.29-.05-.4-.16s-.16-.24-.16-.4.05-.29.16-.4.24-.16.4-.16h1.05c.07,0,.11-.03.13-.1l.47-2.63c.02-.07-.01-.1-.09-.1h-.91c-.16,0-.29-.05-.4-.16s-.16-.24-.16-.4.05-.29.16-.4.24-.16.4-.16h1.1c.07,0,.11-.03.13-.1l.23-1.34c.04-.18.12-.33.27-.46.14-.12.31-.18.5-.18.17,0,.31.07.42.2s.15.28.11.44l-.23,1.34c-.02.07.01.1.09.1h1.99c.07,0,.11-.03.13-.1l.23-1.34c.04-.18.12-.33.27-.46.14-.12.31-.18.5-.18.17,0,.31.07.42.2s.15.28.11.44l-.23,1.34c-.02.07.01.1.09.1h.81c.16,0,.29.05.4.16.11.11.16.24.16.4s-.05.29-.16.4c-.11.11-.24.16-.4.16h-1c-.07,0-.11.03-.13.1l-.47,2.63c-.02.07.01.1.09.1h.86c.16,0,.29.05.4.16s.16.24.16.4-.05.29-.16.4-.24.16-.4.16h-1.05c-.07,0-.11.03-.13.1l-.29,1.6c-.04.18-.12.33-.27.46-.14.12-.31.18-.5.18-.17,0-.31-.06-.42-.19-.11-.13-.15-.28-.11-.44l.29-1.6c.02-.07-.01-.1-.09-.1h-1.99c-.07,0-.11.03-.13.1l-.29,1.6c-.03.18-.12.33-.27.46-.14.12-.31.18-.5.18-.17,0-.31-.06-.42-.19-.11-.13-.14-.28-.11-.44l.29-1.6c.02-.07-.01-.1-.09-.1h-.86ZM20.43,9.58l-.47,2.63c-.02.07.01.1.09.1h1.99c.07,0,.11-.03.13-.1l.47-2.63c.02-.07-.01-.1-.09-.1h-1.99c-.07,0-.11.03-.13.1Z"/><path class="cls-2" d="M28.9,9.36v-.03c-.24-.42-.23-.82.04-1.22.55-.81.99-1.61,1.31-2.4.07-.18.19-.32.35-.42s.34-.13.52-.1c.17.03.3.11.4.25.09.14.11.3.04.46,0,.02-.02.05-.03.08-.01.04-.02.07-.03.08-.04.07-.01.1.06.1h2.78c.08,0,.13-.03.16-.1.02-.03.04-.09.07-.17.03-.08.05-.14.07-.18.07-.18.19-.33.36-.43s.35-.15.54-.13c.17.02.31.1.4.25.1.15.11.3.05.47l-.08.19c-.04.07-.01.1.06.1h3.24c.15,0,.28.06.38.17.11.11.16.24.16.39s-.05.28-.16.39c-.11.11-.24.17-.38.17h-3.43c-.07,0-.1.03-.1.1v.47c0,.07.03.1.1.1h3.12c.13,0,.24.05.33.14.09.09.14.2.14.33s-.05.24-.14.33-.2.14-.33.14h-3.12c-.07,0-.1.04-.1.12v.46c0,.08.03.12.1.12h3.12c.13,0,.24.05.33.14.09.09.14.2.14.33s-.05.24-.14.34c-.09.1-.2.14-.33.14h-3.12c-.07,0-.1.03-.1.1v.47c0,.07.03.1.1.1h3.5c.14,0,.25.05.34.14.09.09.14.21.14.34s-.04.26-.14.35c-.09.1-.21.14-.34.14h-3.78c-.08,0-.12.04-.12.12v.36c0,.07.04.1.12.1h4.26c.15,0,.28.06.39.17.11.11.17.24.17.39s-.06.28-.17.38c-.11.11-.24.16-.39.16h-3.51s-.03,0-.03.01c0,0,0,.02.01.03,1.07.49,2.33.92,3.8,1.3.17.04.3.14.4.3.09.16.11.32.06.48-.05.16-.15.29-.31.37-.15.08-.31.1-.49.05-1.75-.55-3.16-1.15-4.23-1.78-.02-.02-.04-.02-.06,0-.02.01-.03.03-.03.06v1.53c0,.2-.07.37-.21.51-.14.14-.31.21-.5.21s-.36-.07-.5-.21c-.14-.14-.21-.31-.21-.51v-1.53c0-.07-.04-.08-.1-.04-1.08.62-2.48,1.21-4.19,1.77-.17.05-.34.04-.49-.05-.16-.08-.26-.21-.31-.37-.05-.16-.03-.32.05-.48.09-.16.22-.26.39-.3,1.5-.4,2.76-.83,3.78-1.29.02,0,.03-.02.03-.03s0-.02-.03-.02h-3.64c-.15,0-.28-.05-.39-.16s-.17-.24-.17-.38.06-.28.17-.39c.11-.11.24-.17.39-.17h4.39c.08,0,.12-.03.12-.1v-.36c0-.08-.04-.12-.12-.12h-3.17c-.2,0-.37-.07-.52-.22s-.22-.32-.22-.52v-2.34s0-.03-.02-.03-.02,0-.03.01c-.02.03-.05.08-.09.15-.04.06-.07.11-.09.14-.09.15-.22.22-.4.21-.18,0-.31-.09-.4-.23ZM31.29,7.4v.47c0,.07.04.1.12.1h2.73c.08,0,.12-.03.12-.1v-.47c0-.07-.04-.1-.12-.1h-2.73c-.08,0-.12.03-.12.1ZM31.29,9.02v.46c0,.08.04.12.12.12h2.73c.08,0,.12-.04.12-.12v-.46c0-.08-.04-.12-.12-.12h-2.73c-.08,0-.12.04-.12.12ZM31.29,10.65v.47c0,.07.04.1.12.1h2.73c.08,0,.12-.03.12-.1v-.47c0-.07-.04-.1-.12-.1h-2.73c-.08,0-.12.03-.12.1Z"/><path class="cls-2" d="M42.33,13.3c-.17.04-.32,0-.47-.09-.15-.1-.24-.23-.29-.4-.03-.16,0-.32.08-.46.09-.14.22-.24.4-.28,1.46-.31,2.72-.65,3.8-1.01.07-.03.08-.06.03-.09-.58-.32-1.12-.68-1.62-1.09-.07-.05-.13-.06-.18-.01-.38.25-.83.52-1.35.79-.16.08-.32.09-.48.03-.16-.06-.29-.16-.38-.31-.08-.15-.09-.3-.03-.46.06-.16.16-.27.31-.35,1.2-.61,2.19-1.3,2.99-2.08.16-.16.32-.27.48-.34,0,0,.01-.02.01-.03,0,0,0-.01-.03-.01h-2.43c-.08,0-.12.04-.12.1v.87c0,.19-.07.35-.2.48-.13.13-.29.2-.48.2s-.35-.06-.49-.2c-.13-.13-.2-.29-.2-.48v-1.31c0-.2.07-.37.22-.52.15-.15.32-.22.52-.22h4.15c.08,0,.12-.03.12-.1v-.42c0-.2.07-.37.21-.51.14-.14.31-.21.5-.21s.36.07.5.21c.14.14.21.31.21.51v.42c0,.07.04.1.12.1h4.15c.2,0,.37.07.52.22.15.15.22.32.22.52v1.31c0,.19-.07.35-.2.48-.13.13-.29.2-.48.2s-.35-.06-.49-.2c-.13-.13-.2-.29-.2-.48v-.87c0-.07-.04-.1-.12-.1h-4.84s-.03,0-.05.03c-.01.02-.01.03,0,.05.09.16.09.3-.03.43-.07.09-.12.15-.16.18-.02,0-.02.02,0,.05.01.02.03.03.04.03h4.23c.14,0,.26.05.36.15.1.1.16.22.16.37,0,.36-.12.65-.35.88-.66.65-1.37,1.2-2.12,1.65-.02.02-.03.03-.03.05s0,.03.03.04c1.05.35,2.38.69,3.99,1.04.16.03.29.12.38.27s.12.3.07.46c-.04.17-.14.3-.29.39s-.31.11-.47.08l-.82-.2c-.08-.02-.12,0-.12.08v3.09c0,.19-.07.36-.2.49-.13.14-.3.21-.5.21h-.22c-.13,0-.24-.05-.33-.14s-.14-.21-.14-.34c0-.04-.03-.06-.08-.06h-5.51c-.05,0-.08.02-.08.06,0,.13-.04.24-.14.34-.09.1-.2.14-.33.14h-.22c-.2,0-.37-.07-.5-.21s-.2-.3-.2-.49v-3.03c0-.08-.04-.11-.1-.09-.36.1-.6.16-.74.18ZM44.56,13.83v1.37c0,.08.04.12.12.12h5.43c.08,0,.12-.04.12-.12v-1.37c0-.08-.04-.12-.12-.12h-5.43c-.08,0-.12.04-.12.12ZM44.92,12.61s-.01,0-.01.02,0,.02.01.02h5.12s0-.02-.01-.04c-.89-.25-1.73-.54-2.51-.86-.07-.03-.14-.03-.22,0-.61.27-1.4.55-2.38.86ZM45.26,9.14c.53.47,1.19.88,1.99,1.25.07.03.14.03.21,0,.75-.38,1.43-.85,2.04-1.39.02,0,.02-.02.01-.05s-.02-.03-.04-.03h-3.99c-.09,0-.16.02-.21.06-.08.05-.08.1-.01.16Z"/><path class="cls-2" d="M58.16,15.9c-2.25,0-3.38-1.15-3.38-3.44v-5.45c0-.2.07-.37.21-.51.14-.14.31-.21.51-.21s.37.07.51.21c.14.14.21.31.21.51v5.51c0,.76.16,1.32.47,1.66s.81.52,1.48.52,1.16-.17,1.48-.52.47-.9.47-1.66v-5.54c0-.19.07-.35.21-.49.14-.14.3-.21.49-.21s.36.07.49.21c.14.14.21.3.21.49v5.47c0,2.3-1.13,3.44-3.38,3.44Z"/><path class="cls-2" d="M64.76,15.56c-.14.14-.31.21-.51.21s-.37-.07-.51-.21c-.14-.14-.21-.31-.21-.51v-7.97c0-.21.07-.39.21-.56.14-.16.31-.26.52-.27.74-.07,1.45-.1,2.13-.1,1.2,0,2.1.25,2.72.76.62.51.92,1.23.92,2.16,0,2.12-1.21,3.19-3.64,3.19-.51,0-.95-.02-1.33-.05-.07,0-.1.03-.1.1v2.74c0,.2-.07.37-.21.51ZM64.97,7.5v3.42c0,.07.04.11.12.13.44.06.84.09,1.18.09.76,0,1.35-.17,1.75-.5s.61-.81.61-1.44-.2-1.1-.6-1.42c-.4-.33-.99-.49-1.77-.49-.42,0-.81.03-1.18.08-.08.02-.12.06-.12.13Z"/></g></svg>