<?xml version="1.0" encoding="UTF-8"?><svg id="_レイヤー_2" xmlns="http://www.w3.org/2000/svg" viewBox="0 0 86.18 21.82"><defs><style>.cls-1{fill:rgba(210,255,246,.9);}.cls-2{fill:#6ba;}</style></defs><g id="_文字図"><rect class="cls-1" x="0" y="0" width="86.18" height="21.82" rx="10.91" ry="10.91"/><path class="cls-2" d="M17.79,13.43c-.16,0-.29-.05-.4-.16s-.16-.24-.16-.4.05-.29.16-.4.24-.16.4-.16h1.05c.07,0,.11-.03.13-.1l.47-2.63c.02-.07-.01-.1-.09-.1h-.91c-.16,0-.29-.05-.4-.16s-.16-.24-.16-.4.05-.29.16-.4.24-.16.4-.16h1.1c.07,0,.11-.03.13-.1l.23-1.34c.04-.18.12-.33.27-.46.14-.12.31-.18.5-.18.17,0,.31.07.42.2s.15.28.11.44l-.23,1.34c-.02.07.01.1.09.1h1.99c.07,0,.11-.03.13-.1l.23-1.34c.04-.18.12-.33.27-.46.14-.12.31-.18.5-.18.17,0,.31.07.42.2s.15.28.11.44l-.23,1.34c-.02.07.01.1.09.1h.81c.16,0,.29.05.4.16.11.11.16.24.16.4s-.05.29-.16.4c-.11.11-.24.16-.4.16h-1c-.07,0-.11.04-.13.1l-.47,2.63c-.02.07.01.1.09.1h.86c.16,0,.29.05.4.16s.16.24.16.4-.05.29-.16.4-.24.16-.4.16h-1.05c-.07,0-.11.04-.13.1l-.29,1.6c-.04.18-.12.33-.27.46-.14.12-.31.18-.5.18-.17,0-.31-.06-.42-.19-.11-.13-.15-.28-.11-.44l.29-1.6c.02-.07-.01-.1-.09-.1h-1.99c-.07,0-.11.04-.13.1l-.29,1.6c-.03.18-.12.33-.27.46-.14.12-.31.18-.5.18-.17,0-.31-.06-.42-.19-.11-.13-.14-.28-.11-.44l.29-1.6c.02-.07-.01-.1-.09-.1h-.86ZM20.74,9.58l-.47,2.63c-.02.07.01.1.09.1h1.99c.07,0,.11-.03.13-.1l.47-2.63c.02-.07-.01-.1-.09-.1h-1.99c-.07,0-.11.04-.13.1Z"/><path class="cls-2" d="M29.75,9.76c-.16.09-.32.1-.49.05-.17-.05-.3-.16-.38-.31-.09-.17-.1-.33-.04-.5.06-.17.16-.3.32-.4,1.51-.86,2.89-1.83,4.16-2.91.37-.32.8-.48,1.29-.48h.26c.49,0,.91.16,1.29.48,1.24,1.07,2.63,2.04,4.16,2.91.16.1.26.23.32.4.06.17.04.34-.05.5-.09.16-.21.26-.38.31-.17.05-.33.04-.49-.05-1.78-1-3.41-2.19-4.9-3.58-.05-.05-.1-.05-.16,0-1.49,1.39-3.12,2.58-4.9,3.58ZM30.8,10.28c.13-.13.3-.2.49-.2s.35.07.48.2.19.3.19.49v4.5c0,.08.04.12.12.12h2.12c.08,0,.12-.04.12-.12v-6.63c0-.2.07-.37.2-.5.13-.13.3-.2.49-.2s.37.07.5.2c.13.13.2.3.2.5v2.28c0,.08.04.12.12.12h3.48c.16,0,.31.06.42.17.12.11.18.25.18.42s-.06.3-.18.42c-.12.11-.26.17-.42.17h-3.48c-.08,0-.12.04-.12.12v2.95c0,.08.04.12.12.12h4.09c.17,0,.31.06.42.17s.18.26.18.43-.06.32-.18.43c-.12.11-.26.17-.42.17h-10.37c-.16,0-.3-.06-.42-.17-.12-.11-.18-.26-.18-.43s.06-.32.18-.43.26-.17.42-.17h.95c.07,0,.1-.04.1-.12v-4.5c0-.19.07-.35.2-.49Z"/><path class="cls-2" d="M42.87,16.58c-.17.06-.33.06-.51-.01-.17-.07-.3-.18-.39-.34-.08-.14-.08-.28-.02-.43.06-.15.17-.24.32-.29,1.61-.45,2.89-.92,3.82-1.4,0,0,.01-.02.01-.03s0-.02-.03-.02h-3.33c-.15,0-.27-.05-.38-.16-.1-.11-.16-.24-.16-.38s.05-.27.16-.38.23-.16.38-.16h4.16c.08,0,.12-.04.12-.12v-.49c0-.07-.04-.1-.12-.1h-3.6c-.14,0-.26-.05-.36-.15s-.15-.22-.15-.36.05-.26.15-.36.22-.15.36-.15h3.6c.08,0,.12-.04.12-.1v-.49c0-.08-.04-.12-.12-.12h-4.04c-.15,0-.27-.05-.37-.15-.1-.1-.15-.22-.15-.37s.05-.27.15-.37.22-.15.37-.15h2.09c.08,0,.1-.04.07-.1-.11-.29-.29-.71-.53-1.29-.03-.07-.08-.1-.16-.1h-1.7c-.15,0-.28-.05-.38-.16s-.16-.24-.16-.38.05-.28.16-.39c.11-.11.24-.17.38-.17h.84s.04-.01.06-.03c.01-.02.01-.04,0-.06-.18-.32-.28-.49-.3-.52-.09-.14-.1-.28-.05-.43.05-.15.15-.26.3-.32.16-.07.33-.08.51-.02.17.06.3.16.39.31.17.26.35.58.56.98.03.07.08.1.17.1h.68c.07,0,.1-.03.1-.1v-1.01c0-.17.06-.32.19-.45s.27-.19.45-.19.32.06.45.19c.13.13.19.28.19.45v1.01c0,.07.04.1.12.1h.94c.08,0,.12-.03.12-.1v-1.01c0-.17.06-.32.19-.45.13-.12.28-.19.45-.19s.32.06.44.19c.12.13.18.28.18.45v1.01c0,.07.04.1.12.1h.74c.08,0,.13-.03.17-.09.1-.16.27-.47.53-.95.08-.16.2-.27.36-.33.16-.07.33-.07.49-.02.16.05.26.15.32.3s.05.29-.03.44c-.04.07-.14.25-.31.56-.02.02-.02.04,0,.06.01.02.03.03.06.03h.81c.15,0,.27.06.38.17.11.11.16.24.16.39s-.05.27-.16.38c-.11.11-.24.16-.38.16h-1.65c-.07,0-.12.04-.16.12-.2.51-.39.95-.56,1.3-.04.05-.01.08.07.08h2.07c.15,0,.27.05.37.15.1.1.15.22.15.37s-.05.27-.15.37-.22.15-.37.15h-4.04c-.08,0-.12.04-.12.12v.49c0,.07.04.1.12.1h3.6c.14,0,.26.05.36.15s.15.22.15.36-.05.26-.15.36-.22.15-.36.15h-3.6c-.08,0-.12.04-.12.1v.49c0,.08.04.12.12.12h4.16c.15,0,.27.05.38.16.1.1.16.23.16.38s-.05.28-.16.38c-.1.11-.23.16-.38.16h-3.33s-.03.02-.03.04c.96.5,2.24.97,3.84,1.42.15.04.25.14.32.29.06.15.06.29-.02.43-.09.17-.21.28-.38.34-.17.06-.34.07-.51,0-1.67-.54-3.03-1.14-4.08-1.79-.05-.04-.08-.02-.08.05v1.39c0,.2-.07.37-.21.51-.14.14-.31.21-.5.21s-.36-.07-.5-.21c-.14-.14-.21-.31-.21-.51v-1.39s-.01-.05-.04-.06-.05-.01-.06,0c-1.07.67-2.42,1.26-4.06,1.79ZM46.59,9.49h2.3c.07,0,.12-.04.17-.1.27-.5.47-.93.6-1.29.02-.07,0-.1-.08-.1h-3.59s-.05.01-.06.04c-.01.03-.01.05,0,.08.24.57.42,1,.52,1.29.03.06.07.09.14.09Z"/><path class="cls-2" d="M56.44,15.56c-.14.14-.31.21-.51.21s-.37-.07-.51-.21c-.14-.14-.21-.31-.21-.51v-7.97c0-.21.07-.39.21-.56.14-.16.31-.25.52-.27.74-.07,1.45-.1,2.13-.1,1.2,0,2.1.25,2.72.76s.92,1.23.92,2.17c0,2.12-1.21,3.18-3.64,3.18-.51,0-.95-.02-1.33-.05-.07,0-.1.03-.1.1v2.74c0,.2-.07.37-.21.51ZM56.65,7.5v3.42c0,.07.04.11.12.13.44.06.84.09,1.18.09.76,0,1.35-.17,1.75-.5.41-.33.61-.81.61-1.44s-.2-1.1-.6-1.42c-.4-.33-.99-.49-1.77-.49-.42,0-.81.03-1.18.08-.08.02-.12.06-.12.13Z"/><path class="cls-2" d="M64.42,15.56c-.14.14-.31.21-.51.21s-.37-.07-.51-.21c-.14-.14-.21-.31-.21-.51v-7.97c0-.22.07-.41.21-.57.14-.16.32-.25.53-.27.64-.07,1.26-.1,1.86-.1,1.25,0,2.19.23,2.82.69.63.46.95,1.1.95,1.91,0,.66-.17,1.22-.5,1.68-.33.46-.79.79-1.37.97,0,0-.01,0-.01.01,0,.02,0,.03.01.03.37.25.71.76,1.03,1.53l.83,2.11c.07.16.05.32-.05.47-.1.15-.24.22-.42.22-.23,0-.43-.06-.61-.19-.18-.12-.31-.29-.39-.5l-.82-2.11c-.18-.47-.38-.77-.6-.9-.22-.13-.64-.2-1.25-.2h-.66c-.08,0-.12.04-.12.12v3.07c0,.2-.07.37-.21.51ZM64.63,7.5v3.13c0,.08.04.12.12.12h.66c1.84,0,2.76-.62,2.76-1.87,0-.53-.2-.92-.59-1.19s-1.03-.4-1.9-.4c-.33,0-.64.03-.94.08-.07.02-.1.06-.1.13Z"/></g></svg>