<?xml version="1.0" encoding="UTF-8"?><svg id="_レイヤー_2" xmlns="http://www.w3.org/2000/svg" viewBox="0 0 86.18 21.82"><defs><style>.cls-1{fill:rgba(210,255,246,.9);}.cls-2{fill:#6ba;}</style></defs><g id="_文字図"><rect class="cls-1" x="0" y="0" width="86.18" height="21.82" rx="10.91" ry="10.91"/><path class="cls-2" d="M12.79,13.43c-.16,0-.29-.05-.4-.16s-.16-.24-.16-.4.05-.29.16-.4.24-.16.4-.16h1.05c.07,0,.11-.03.13-.1l.47-2.63c.02-.07-.01-.1-.09-.1h-.91c-.16,0-.29-.05-.4-.16s-.16-.24-.16-.4.05-.29.16-.4.24-.16.4-.16h1.1c.07,0,.11-.03.13-.1l.23-1.34c.04-.18.12-.33.27-.46.14-.12.31-.18.5-.18.17,0,.31.07.42.2s.15.28.11.44l-.23,1.34c-.02.07.01.1.09.1h1.99c.07,0,.11-.03.13-.1l.23-1.34c.04-.18.12-.33.27-.46.14-.12.31-.18.5-.18.17,0,.31.07.42.2s.15.28.11.44l-.23,1.34c-.02.07.01.1.09.1h.81c.16,0,.29.05.4.16.11.11.16.24.16.4s-.05.29-.16.4c-.11.11-.24.16-.4.16h-1c-.07,0-.11.03-.13.1l-.47,2.63c-.02.07.01.1.09.1h.86c.16,0,.29.05.4.16s.16.24.16.4-.05.29-.16.4-.24.16-.4.16h-1.05c-.07,0-.11.03-.13.1l-.29,1.6c-.04.18-.12.33-.27.46-.14.12-.31.18-.5.18-.17,0-.31-.06-.42-.19-.11-.13-.15-.28-.11-.44l.29-1.6c.02-.07-.01-.1-.09-.1h-1.99c-.07,0-.11.03-.13.1l-.29,1.6c-.03.18-.12.33-.27.46-.14.12-.31.18-.5.18-.17,0-.31-.06-.42-.19-.11-.13-.14-.28-.11-.44l.29-1.6c.02-.07-.01-.1-.09-.1h-.86ZM15.74,9.58l-.47,2.63c-.02.07.01.1.09.1h1.99c.07,0,.11-.03.13-.1l.47-2.63c.02-.07-.01-.1-.09-.1h-1.99c-.07,0-.11.03-.13.1Z"/><path class="cls-2" d="M25.14,16.36c-.12.13-.28.19-.46.19s-.34-.06-.46-.19-.19-.28-.19-.46V6.5c0-.2.07-.37.21-.52.14-.15.31-.22.51-.22h2.39c.2,0,.37.07.52.22.15.15.22.32.22.52v8.53c0,.2-.07.37-.22.52-.15.15-.32.22-.52.22h-1.73c-.06,0-.09.03-.09.1v.03c0,.18-.06.34-.19.46ZM25.33,7.07v2.83c0,.08.04.12.1.12h1.08c.08,0,.12-.04.12-.12v-2.83c0-.08-.04-.12-.12-.12h-1.08c-.07,0-.1.04-.1.12ZM25.33,11.3v3.2c0,.07.04.1.1.1h1.08c.08,0,.12-.03.12-.1v-3.2c0-.07-.04-.1-.12-.1h-1.08c-.07,0-.1.03-.1.1ZM34.47,10.02c-.08,0-.12.03-.12.1v.99c0,.07.04.1.12.1h.53c.16,0,.3.06.42.17s.18.25.18.42-.06.3-.18.42-.26.17-.42.17h-.53c-.08,0-.12.04-.12.12v2.38c0,.33,0,.59-.01.77,0,.19-.04.36-.09.53-.05.16-.11.28-.18.35s-.18.13-.34.19c-.16.06-.32.09-.5.1-.18,0-.42.01-.72.01-.38,0-.73,0-1.04-.03-.17,0-.32-.07-.44-.19-.12-.12-.18-.26-.19-.44,0-.16.04-.29.16-.4s.25-.16.41-.15c.27.02.55.03.86.03.34,0,.54-.03.6-.1s.09-.28.09-.64v-2.42c0-.08-.04-.12-.12-.12h-3.98c-.16,0-.3-.06-.42-.17-.11-.11-.17-.25-.17-.42s.06-.3.17-.42c.11-.11.25-.17.42-.17h3.98c.08,0,.12-.03.12-.1v-.99c0-.07-.04-.1-.12-.1h-3.98c-.16,0-.3-.06-.42-.17-.11-.11-.17-.25-.17-.42s.06-.3.17-.42c.11-.11.25-.17.42-.17h2.26c.07,0,.1-.04.1-.12v-1.21c0-.07-.04-.1-.1-.1h-1.73c-.16,0-.29-.06-.4-.17-.11-.11-.16-.25-.16-.4s.05-.29.16-.4c.11-.11.24-.17.4-.17h1.73c.07,0,.1-.04.1-.12v-.48c0-.19.07-.36.21-.49s.3-.21.49-.21.36.07.49.21.21.3.21.49v.48c0,.08.04.12.12.12h1.82c.16,0,.29.06.4.17.11.11.16.25.16.4s-.05.29-.16.4c-.11.11-.24.17-.4.17h-1.82c-.08,0-.12.04-.12.1v1.21c0,.08.04.12.12.12h2.25c.16,0,.3.06.42.17.12.11.18.25.18.42s-.06.3-.18.42c-.12.11-.26.17-.42.17h-.53ZM31.16,14.09c.12.13.18.28.18.45,0,.17-.07.32-.2.44-.12.11-.27.17-.44.16-.17,0-.32-.07-.44-.19-.4-.43-.76-.8-1.08-1.09-.12-.12-.19-.26-.19-.43,0-.16.05-.31.17-.43.13-.12.28-.19.46-.2.18,0,.33.05.46.17.32.29.68.66,1.09,1.11Z"/><path class="cls-2" d="M38.19,16.64c-.13.13-.29.19-.48.19s-.35-.06-.48-.19-.2-.29-.2-.48V6.24c0-.2.07-.37.21-.52.14-.15.31-.22.51-.22h3.73c.2,0,.37.07.52.22s.22.32.22.52v3.39c0,.2-.07.37-.22.52-.15.15-.32.22-.52.22h-2.99c-.08,0-.12.04-.12.12v5.67c0,.19-.07.35-.2.48ZM38.39,6.72v.71c0,.08.04.12.12.12h2.28c.08,0,.12-.04.12-.12v-.71c0-.08-.04-.12-.12-.12h-2.28c-.08,0-.12.04-.12.12ZM38.39,8.57v.73c0,.07.04.1.12.1h2.28c.08,0,.12-.03.12-.1v-.73c0-.07-.04-.1-.12-.1h-2.28c-.08,0-.12.03-.12.1ZM47.54,5.5c.2,0,.37.07.51.22.14.15.21.32.21.52v8.65c0,.86-.1,1.39-.29,1.59-.19.2-.71.31-1.55.31-.21,0-.58-.01-1.1-.04-.17,0-.31-.07-.42-.18-.12-.11-.18-.26-.19-.43,0-.11.02-.2.05-.27.04-.06.03-.09-.05-.09h-3.46c-.06,0-.09.03-.09.09,0,.16-.05.29-.16.4s-.24.16-.4.16h-.09c-.18,0-.34-.06-.46-.19-.13-.13-.19-.28-.19-.46v-3.91c0-.2.07-.37.22-.52.15-.15.32-.22.52-.22h4.11c.2,0,.37.07.52.22.15.15.22.32.22.52v3.17c0,.17-.06.33-.17.47-.04.05-.02.08.05.08.43.03.72.04.86.04.35,0,.55-.03.62-.1s.1-.26.1-.59v-4.43c0-.08-.04-.12-.12-.12h-3.12c-.2,0-.37-.07-.52-.22-.15-.15-.22-.32-.22-.52v-3.39c0-.2.07-.37.22-.52s.32-.22.52-.22h3.86ZM44.14,12.83v-.56c0-.08-.04-.12-.12-.12h-2.76c-.08,0-.12.04-.12.12v.56c0,.07.04.1.12.1h2.76c.08,0,.12-.03.12-.1ZM44.14,14.65v-.62c0-.08-.04-.12-.12-.12h-2.76c-.08,0-.12.04-.12.12v.62c0,.07.04.1.12.1h2.76c.08,0,.12-.03.12-.1ZM46.91,7.44v-.71c0-.08-.04-.12-.12-.12h-2.41c-.08,0-.12.04-.12.12v.71c0,.08.04.12.12.12h2.41c.08,0,.12-.04.12-.12ZM46.91,9.3v-.73c0-.07-.04-.1-.12-.1h-2.41c-.08,0-.12.03-.12.1v.73c0,.07.04.1.12.1h2.41c.08,0,.12-.03.12-.1Z"/><path class="cls-2" d="M51.35,16.81c-.2,0-.37-.07-.5-.21-.13-.14-.2-.3-.2-.49V7.31c0-.2.07-.37.22-.52s.32-.22.52-.22h2.89c.07,0,.12-.03.14-.09.1-.29.21-.61.33-.96.06-.2.18-.36.35-.47.17-.11.36-.16.56-.13.19.02.34.11.44.27.1.16.13.33.08.51-.03.14-.12.4-.26.78-.02.06,0,.09.08.09h3.93c.2,0,.37.07.52.22s.22.32.22.52v8.8c0,.19-.07.36-.2.49-.13.14-.3.21-.5.21h-.13c-.16,0-.29-.05-.4-.16s-.16-.24-.16-.4c0-.06-.03-.09-.09-.09h-7.05c-.06,0-.09.03-.09.09,0,.16-.05.29-.16.4s-.24.16-.4.16h-.13ZM52.04,7.85v1.44c0,.07.04.1.12.1h6.99c.08,0,.12-.03.12-.1v-1.44c0-.08-.04-.12-.12-.12h-6.99c-.08,0-.12.04-.12.12ZM52.04,10.62v1.46c0,.08.04.12.12.12h6.99c.08,0,.12-.04.12-.12v-1.46c0-.08-.04-.12-.12-.12h-6.99c-.08,0-.12.04-.12.12ZM52.04,13.42v1.5c0,.08.04.12.12.12h6.99c.08,0,.12-.04.12-.12v-1.5c0-.08-.04-.12-.12-.12h-6.99c-.08,0-.12.04-.12.12Z"/><path class="cls-2" d="M64.05,16.91c-.19,0-.35-.07-.49-.2-.13-.13-.2-.3-.2-.5v-8.12c0-.2.07-.37.21-.52.14-.15.31-.22.51-.22h3.77c.08,0,.12-.03.12-.1v-1.55c0-.19.06-.35.19-.49.13-.13.29-.2.48-.2s.35.07.48.2c.13.13.19.3.19.49v1.55c0,.07.04.1.12.1h3.77c.2,0,.37.07.52.22.15.15.22.32.22.52v8.12c0,.19-.07.36-.21.49s-.3.21-.49.21h-.03c-.19,0-.35-.07-.48-.2s-.19-.3-.19-.49c0-.06-.04-.09-.1-.09h-7.59c-.07,0-.1.03-.1.09,0,.19-.06.35-.19.49s-.29.2-.48.2h-.03ZM64.75,8.63v2.35c0,.07.04.1.12.1h2.99c.08,0,.12-.03.12-.1v-2.35c0-.08-.04-.12-.12-.12h-2.99c-.08,0-.12.04-.12.12ZM64.75,12.34v2.55c0,.07.04.1.12.1h2.99c.08,0,.12-.03.12-.1v-2.55c0-.07-.04-.1-.12-.1h-2.99c-.08,0-.12.03-.12.1ZM69.33,8.63v2.35c0,.07.04.1.12.1h3c.07,0,.1-.03.1-.1v-2.35c0-.08-.04-.12-.1-.12h-3c-.08,0-.12.04-.12.12ZM69.33,12.34v2.55c0,.07.04.1.12.1h3c.07,0,.1-.03.1-.1v-2.55c0-.07-.04-.1-.1-.1h-3c-.08,0-.12.03-.12.1Z"/></g></svg>