<?xml version="1.0" encoding="UTF-8"?><svg id="_レイヤー_2" xmlns="http://www.w3.org/2000/svg" viewBox="0 0 204.82 94.18"><defs><style>.cls-1{stroke:#6ba;}.cls-1,.cls-2{fill:#fff;}.cls-1,.cls-3{stroke-linecap:round;stroke-linejoin:round;stroke-width:1.5px;}.cls-4{stroke-miterlimit:10;}.cls-4,.cls-3{fill:none;stroke:#ff7bac;}.cls-5{fill:#6ba;}</style></defs><g id="_イラスト"><path class="cls-2" d="M112.54,92.68c-.44,0-.89-.07-1.32-.2l-43.99-13.78c-2.32-.73-3.61-3.2-2.89-5.52L85.83,4.59c.58-1.85,2.27-3.09,4.2-3.09.44,0,.89.07,1.32.2l43.99,13.78c2.32.73,3.61,3.2,2.89,5.52l-21.49,68.58c-.58,1.85-2.27,3.09-4.2,3.09Z"/><path class="cls-5" d="M90.04,2.25h0c.37,0,.74.06,1.09.17l43.99,13.78c.93.29,1.69.93,2.15,1.79.45.87.54,1.85.25,2.79l-21.49,68.58c-.48,1.53-1.88,2.56-3.49,2.56-.37,0-.74-.06-1.09-.17l-43.99-13.78c-.93-.29-1.69-.93-2.15-1.79-.45-.87-.54-1.85-.25-2.79L86.55,4.81c.48-1.53,1.88-2.56,3.49-2.56M90.04.75c-2.19,0-4.23,1.41-4.92,3.62l-21.49,68.58c-.85,2.72.66,5.61,3.38,6.46l43.99,13.78c.51.16,1.03.24,1.54.24,2.19,0,4.23-1.41,4.92-3.62l21.49-68.58c.85-2.72-.66-5.61-3.38-6.46L91.58.99c-.51-.16-1.03-.24-1.54-.24h0Z"/><path class="cls-1" d="M90.04,4.75c.12,0,.23.02.35.05l43.99,13.78c.38.12.58.37.68.57.1.19.2.5.08.88l-21.49,68.58c-.17.56-.69.81-1.1.81-.12,0-.23-.02-.35-.05l-43.99-13.78c-.38-.12-.58-.37-.68-.57-.1-.19-.2-.5-.08-.88L88.93,5.56c.18-.56.68-.81,1.1-.81"/><path class="cls-2" d="M24.83,76.33c-13.28,0-24.08-10.8-24.08-24.08s10.8-24.08,24.08-24.08,24.08,10.8,24.08,24.08-10.8,24.08-24.08,24.08Z"/><path class="cls-5" d="M24.83,28.92c12.87,0,23.33,10.47,23.33,23.33s-10.47,23.33-23.33,23.33S1.5,65.12,1.5,52.25s10.47-23.33,23.33-23.33M24.83,27.42C11.12,27.42,0,38.53,0,52.25s11.12,24.83,24.83,24.83,24.83-11.12,24.83-24.83-11.12-24.83-24.83-24.83h0Z"/><path class="cls-2" d="M12.62,67.11c.43-4.08,4.19-10.25,9.7-11.38.35-.07.6-.38.6-.73v-1.74c0-.34-.22-.63-.55-.72-4.13-1.17-5.6-5.34-5.6-8.55,0-4.41,3.08-9.17,8.06-9.17s8.06,4.76,8.06,9.17c0,3.22-1.47,7.39-5.6,8.55-.32.09-.55.39-.55.72v1.74c0,.36.25.66.6.73,5.51,1.13,9.27,7.3,9.7,11.38H12.62Z"/><path class="cls-5" d="M24.83,35.56c4.51,0,7.31,4.37,7.31,8.42,0,2.95-1.32,6.78-5.05,7.83-.65.18-1.09.77-1.09,1.44v1.74c0,.71.5,1.33,1.2,1.47,4.66.96,8.19,6.07,8.98,9.89H13.5c.79-3.82,4.32-8.94,8.98-9.89.7-.14,1.2-.76,1.2-1.47v-1.74c0-.67-.45-1.26-1.09-1.44-3.73-1.05-5.05-4.88-5.05-7.83,0-4.05,2.79-8.42,7.31-8.42M24.83,34.06c-5.4,0-8.81,5.05-8.81,9.92,0,4.03,2.04,8.11,6.14,9.27v1.74c-5.98,1.23-10.34,8.25-10.34,12.86h26.01c0-4.62-4.36-11.63-10.34-12.86v-1.74c4.11-1.16,6.14-5.24,6.14-9.27,0-4.86-3.4-9.92-8.81-9.92h0Z"/><line class="cls-1" x1="49.67" y1="52.25" x2="61.69" y2="52.25"/><circle class="cls-1" cx="179.24" cy="29.92" r="24.83"/><path class="cls-1" d="M166.23,45.53h26.01c0-4.62-4.36-11.63-10.34-12.86v-1.74c4.11-1.16,6.14-5.24,6.14-9.27,0-4.86-3.4-9.92-8.81-9.92s-8.81,5.05-8.81,9.92c0,4.03,2.04,8.11,6.14,9.27v1.74c-5.98,1.23-10.34,8.25-10.34,12.86Z"/><line class="cls-1" x1="142.38" y1="29.92" x2="154.4" y2="29.92"/><rect class="cls-2" x="110.79" y="3.99" width="2.26" height="18.39" transform="translate(65.87 116.03) rotate(-72.6)"/><path class="cls-5" d="M103.97,10.29l16.11,5.05-.23.73-16.11-5.05.23-.73M102.99,8.41l-1.12,3.59,18.98,5.95,1.12-3.59-18.98-5.95h0Z"/><path class="cls-4" d="M109.84,38.69c-2.43-.75-4.97.09-6.5,1.93-.01.02-.04,0-.04-.01-.21-2.49-1.95-4.71-4.55-5.39-3.47-.9-6.9,1.55-7.6,5.06-1.59,7.92,6.87,16.76,6.98,16.88,0,0,0,0,0,0,.16-.03,11.62-2.36,15.14-9.39,1.75-3.5.31-7.93-3.43-9.09Z"/><path class="cls-3" d="M109.84,38.69c-2.43-.75-4.97.09-6.5,1.93-.01.02-.04,0-.04-.01-.21-2.49-1.95-4.71-4.55-5.39-3.47-.9-6.9,1.55-7.6,5.06-1.59,7.92,6.87,16.76,6.98,16.88,0,0,0,0,0,0,.16-.03,11.62-2.36,15.14-9.39,1.75-3.5.31-7.93-3.43-9.09Z"/><path class="cls-3" d="M109.84,38.69c-2.43-.75-4.97.09-6.5,1.93-.01.02-.04,0-.04-.01-.21-2.49-1.95-4.71-4.55-5.39-3.47-.9-6.9,1.55-7.6,5.06-1.59,7.92,6.87,16.76,6.98,16.88,0,0,0,0,0,0,.16-.03,11.62-2.36,15.14-9.39,1.75-3.5.31-7.93-3.43-9.09Z"/></g></svg>