<?xml version="1.0" encoding="UTF-8"?><svg id="_レイヤー_2" xmlns="http://www.w3.org/2000/svg" viewBox="0 0 86.18 21.82"><defs><style>.cls-1{fill:rgba(210,255,246,.9);}.cls-2{fill:#6ba;}</style></defs><g id="_文字図"><rect class="cls-1" x="0" y="0" width="86.18" height="21.82" rx="10.91" ry="10.91"/><path class="cls-2" d="M16.76,13.44c-.16,0-.29-.05-.4-.16s-.16-.24-.16-.4.05-.29.16-.4.24-.16.4-.16h1.05c.07,0,.11-.03.13-.1l.47-2.63c.02-.07-.01-.1-.09-.1h-.91c-.16,0-.29-.05-.4-.16s-.16-.24-.16-.4.05-.29.16-.4.24-.16.4-.16h1.1c.07,0,.11-.03.13-.1l.23-1.34c.04-.18.12-.33.27-.46.14-.12.31-.18.5-.18.17,0,.31.07.42.2s.15.28.11.44l-.23,1.34c-.02.07.01.1.09.1h1.99c.07,0,.11-.03.13-.1l.23-1.34c.04-.18.12-.33.27-.46.14-.12.31-.18.5-.18.17,0,.31.07.42.2s.15.28.11.44l-.23,1.34c-.02.07.01.1.09.1h.81c.16,0,.29.05.4.16.11.11.16.24.16.4s-.05.29-.16.4c-.11.11-.24.16-.4.16h-1c-.07,0-.11.03-.13.1l-.47,2.63c-.02.07.01.1.09.1h.86c.16,0,.29.05.4.16s.16.24.16.4-.05.29-.16.4-.24.16-.4.16h-1.05c-.07,0-.11.03-.13.1l-.29,1.6c-.04.18-.12.33-.27.46-.14.12-.31.18-.5.18-.17,0-.31-.06-.42-.19-.11-.13-.15-.28-.11-.44l.29-1.6c.02-.07-.01-.1-.09-.1h-1.99c-.07,0-.11.03-.13.1l-.29,1.6c-.03.18-.12.33-.27.46-.14.12-.31.18-.5.18-.17,0-.31-.06-.42-.19-.11-.13-.14-.28-.11-.44l.29-1.6c.02-.07-.01-.1-.09-.1h-.86ZM19.71,9.59l-.47,2.63c-.02.07.01.1.09.1h1.99c.07,0,.11-.03.13-.1l.47-2.63c.02-.07-.01-.1-.09-.1h-1.99c-.07,0-.11.03-.13.1Z"/><path class="cls-2" d="M28.66,12.27c-.14.11-.29.14-.47.09-.17-.05-.29-.16-.36-.34-.07-.2-.07-.4,0-.6s.19-.37.36-.5c.29-.22.62-.49,1.01-.83.05-.03.08-.09.08-.17v-.29c0-.2.07-.37.21-.52.14-.15.31-.22.51-.22h.23c.09,0,.15-.03.18-.08.38-.47.69-.91.94-1.31.02-.02.02-.04,0-.07-.01-.03-.03-.04-.06-.04h-2.7c-.17,0-.32-.06-.43-.18-.11-.12-.17-.26-.17-.42,0-.17.06-.32.18-.44s.26-.18.42-.18h3.33c.08,0,.13-.03.16-.1.1-.24.18-.43.22-.56.07-.19.19-.34.36-.45s.35-.15.54-.14c.17.02.31.1.42.25s.13.31.07.47c-.02.05-.04.12-.07.21-.03.09-.05.16-.07.21-.03.07-.01.1.07.1h5.24c.17,0,.31.06.42.18s.18.26.18.44-.06.31-.17.42c-.11.12-.26.18-.43.18h-5.78c-.07,0-.13.03-.17.1-.55,1.04-1.26,2.04-2.15,2.99-.05.05-.08.12-.08.21v5.49c0,.2-.07.37-.2.5-.13.13-.3.2-.5.2s-.35-.07-.49-.2-.2-.3-.2-.5v-4.37s-.01-.03-.04-.04c-.03,0-.04,0-.05.01-.19.19-.37.35-.53.48ZM34.65,15.23c.08,0,.12-.04.12-.12v-3.19c0-.08-.04-.12-.12-.12h-2.35c-.17,0-.3-.06-.42-.17-.11-.11-.17-.25-.17-.42s.06-.3.17-.42.25-.17.42-.17h2.35c.08,0,.12-.04.12-.12v-1.72c0-.19.07-.36.21-.49s.3-.21.49-.21.36.07.49.21.21.3.21.49v1.72c0,.08.04.12.1.12h2.29c.16,0,.3.06.42.17s.18.25.18.42-.06.3-.18.42c-.12.11-.26.17-.42.17h-2.29c-.07,0-.1.04-.1.12v3.19c0,.08.04.12.1.12h2.73c.17,0,.32.06.43.17.11.11.17.26.17.43s-.06.32-.17.43c-.11.11-.25.17-.43.17h-7.24c-.17,0-.32-.06-.44-.18-.12-.12-.17-.26-.17-.42s.06-.31.17-.42c.12-.12.26-.18.44-.18h2.89Z"/><path class="cls-2" d="M41.41,13.45c-.17,0-.31-.04-.43-.14-.12-.1-.19-.24-.21-.4-.02-.17.03-.33.14-.46s.25-.2.42-.21l3.09-.3c.08,0,.12-.04.12-.12v-1.59c0-.07-.04-.1-.12-.1-.49.05-1.13.11-1.94.17-.17,0-.31-.04-.44-.14-.13-.1-.2-.24-.21-.42,0-.16.04-.3.16-.43,0,0,0-.02,0-.03,0-.01-.02-.02-.03-.02-.03,0-.06.01-.12.01-.18,0-.34-.06-.47-.19-.13-.13-.19-.29-.19-.47v-1.52c0-.2.07-.37.22-.52.15-.15.32-.22.52-.22h3.9c.07,0,.1-.04.1-.12v-.47c0-.19.07-.36.21-.5.14-.14.31-.21.5-.21s.36.07.5.21c.14.14.21.31.21.5v.47c0,.08.04.12.12.12h3.89c.2,0,.37.07.52.22.15.15.22.32.22.52v1.52c0,.18-.07.34-.2.47-.13.13-.29.19-.47.19s-.34-.06-.47-.19c-.13-.13-.2-.29-.2-.47v-1.01c0-.08-.04-.12-.12-.12h-8.03c-.07,0-.1.04-.1.12v1.01c0,.17-.07.33-.2.46-.03.03-.01.04.04.04h.04c2.81-.19,5.15-.58,7.03-1.16.16-.05.33-.04.49.03s.27.19.33.36.05.32-.03.47-.2.25-.36.3c-1.08.34-2.35.61-3.8.82-.07.02-.1.06-.1.12v1.64c0,.07.04.1.1.1l5.81-.57c.17-.02.31.03.44.14s.2.24.21.41c0,.17-.04.31-.15.44-.11.13-.25.2-.42.22l-5.89.57c-.07,0-.1.04-.1.12v1.65c0,.37.09.59.27.66s.78.1,1.81.1h.8c.16,0,.36,0,.6-.03.24-.02.41-.04.49-.06.09-.02.2-.06.33-.12.13-.06.22-.12.26-.18s.09-.16.15-.28c.06-.12.1-.25.12-.39.02-.14.04-.31.07-.52.02-.19.1-.34.25-.46.15-.12.32-.16.51-.14.2.03.36.12.48.27.12.16.17.33.16.52-.04.34-.07.62-.1.84-.03.22-.09.43-.17.63-.08.2-.16.35-.23.47-.07.11-.2.22-.39.31s-.36.16-.52.2-.41.07-.75.1c-.34.03-.66.05-.96.05s-.72,0-1.27,0c-.44,0-.79,0-1.06,0-.26,0-.53-.02-.79-.04-.26-.02-.46-.05-.6-.07-.13-.03-.27-.07-.4-.14-.13-.07-.23-.14-.27-.2-.05-.06-.09-.17-.14-.31-.04-.14-.07-.27-.07-.41,0-.13,0-.31,0-.54v-1.78c0-.07-.04-.1-.12-.1l-3.02.3Z"/><path class="cls-2" d="M60.92,14.62c-.76.86-1.79,1.29-3.09,1.29s-2.33-.43-3.09-1.29c-.76-.86-1.14-2.05-1.14-3.59s.38-2.73,1.14-3.59c.76-.86,1.79-1.29,3.09-1.29s2.33.43,3.09,1.29c.76.86,1.14,2.05,1.14,3.59s-.38,2.73-1.14,3.59ZM59.88,8.26c-.48-.62-1.16-.93-2.05-.93s-1.57.31-2.05.93c-.48.62-.72,1.54-.72,2.78s.24,2.16.72,2.78c.48.62,1.16.93,2.05.93s1.57-.31,2.05-.93c.48-.62.72-1.54.72-2.78s-.24-2.16-.72-2.78Z"/><path class="cls-2" d="M64.82,15.57c-.14.14-.31.21-.51.21s-.37-.07-.51-.21c-.14-.14-.21-.31-.21-.51V7.01c0-.2.07-.37.21-.51.14-.14.31-.21.51-.21s.37.07.51.21c.14.14.21.31.21.51v3.43s0,.01.01.01h.03s3-3.6,3-3.6c.32-.37.72-.56,1.21-.56h.21c.14,0,.24.07.31.2.06.13.05.25-.05.36l-3.34,3.91c-.04.06-.05.12-.01.17l3.5,4.28c.09.12.11.25.04.38-.06.13-.17.19-.32.19h-.21c-.49,0-.89-.19-1.2-.57l-3.15-3.97s-.02-.01-.03-.01-.01,0-.01.01v3.82c0,.2-.07.37-.21.51Z"/></g></svg>