<?xml version="1.0" encoding="UTF-8"?><svg id="_レイヤー_2" xmlns="http://www.w3.org/2000/svg" viewBox="0 0 86.18 21.82"><defs><style>.cls-1{fill:rgba(210,255,246,.9);}.cls-2{fill:#6ba;}</style></defs><g id="_文字図"><rect class="cls-1" x="0" y="0" width="86.18" height="21.82" rx="10.91" ry="10.91"/><path class="cls-2" d="M12.79,13.43c-.16,0-.29-.05-.4-.16s-.16-.24-.16-.4.05-.29.16-.4.24-.16.4-.16h1.05c.07,0,.11-.03.13-.1l.47-2.63c.02-.07-.01-.1-.09-.1h-.91c-.16,0-.29-.05-.4-.16s-.16-.24-.16-.4.05-.29.16-.4.24-.16.4-.16h1.1c.07,0,.11-.03.13-.1l.23-1.34c.04-.18.12-.33.27-.46.14-.12.31-.18.5-.18.17,0,.31.07.42.2s.15.28.11.44l-.23,1.34c-.02.07.01.1.09.1h1.99c.07,0,.11-.03.13-.1l.23-1.34c.04-.18.12-.33.27-.46.14-.12.31-.18.5-.18.17,0,.31.07.42.2s.15.28.11.44l-.23,1.34c-.02.07.01.1.09.1h.81c.16,0,.29.05.4.16.11.11.16.24.16.4s-.05.29-.16.4c-.11.11-.24.16-.4.16h-1c-.07,0-.11.03-.13.1l-.47,2.63c-.02.07.01.1.09.1h.86c.16,0,.29.05.4.16s.16.24.16.4-.05.29-.16.4-.24.16-.4.16h-1.05c-.07,0-.11.03-.13.1l-.29,1.6c-.04.18-.12.33-.27.46-.14.12-.31.18-.5.18-.17,0-.31-.06-.42-.19-.11-.13-.15-.28-.11-.44l.29-1.6c.02-.07-.01-.1-.09-.1h-1.99c-.07,0-.11.03-.13.1l-.29,1.6c-.03.18-.12.33-.27.46-.14.12-.31.18-.5.18-.17,0-.31-.06-.42-.19-.11-.13-.14-.28-.11-.44l.29-1.6c.02-.07-.01-.1-.09-.1h-.86ZM15.74,9.58l-.47,2.63c-.02.07.01.1.09.1h1.99c.07,0,.11-.03.13-.1l.47-2.63c.02-.07-.01-.1-.09-.1h-1.99c-.07,0-.11.03-.13.1Z"/><path class="cls-2" d="M32.72,14.34c.08,0,.12-.03.12-.1v-6.28c0-.08-.04-.12-.12-.12h-7.12c-.17,0-.32-.06-.44-.18-.12-.12-.18-.27-.18-.44,0-.16.06-.31.18-.43s.27-.18.44-.18h7.86c.2,0,.37.07.52.22s.22.32.22.52v7.49c0,.2-.07.37-.22.52s-.32.22-.52.22h-7.86c-.17,0-.32-.06-.44-.18-.12-.12-.18-.26-.18-.43,0-.17.06-.32.18-.44.12-.12.27-.18.44-.18h7.12Z"/><path class="cls-2" d="M38.09,7.68c-.17,0-.32-.06-.45-.19s-.19-.27-.19-.45.06-.32.19-.45.28-.19.45-.19h9.1c.17,0,.32.06.44.19.12.13.18.27.18.45,0,.49-.07.9-.2,1.22-.4,1.02-1.02,1.97-1.85,2.85-.84.88-1.85,1.63-3.05,2.26-.06.03-.07.08-.03.14.57.83.94,1.38,1.12,1.65.11.17.15.34.1.53-.04.19-.15.34-.33.44-.17.1-.35.14-.54.1s-.34-.14-.45-.31c-1.11-1.65-2.16-3.15-3.16-4.51-.11-.16-.15-.33-.12-.51s.13-.33.29-.44c.16-.11.35-.15.55-.12.2.03.36.13.47.29.11.16.49.67,1.12,1.55.04.05.09.06.16.03,1.02-.52,1.93-1.18,2.72-1.99s1.35-1.62,1.67-2.46c.02-.06,0-.09-.07-.09h-8.15Z"/><path class="cls-2" d="M51,11.77c-.19,0-.35-.06-.48-.2-.13-.13-.2-.29-.2-.48s.07-.35.2-.48c.13-.13.29-.19.48-.19h9.31c.19,0,.35.06.48.19.13.13.2.29.2.48s-.07.35-.2.48c-.13.13-.29.2-.48.2h-9.31Z"/><path class="cls-2" d="M64.68,15.8c-.17.09-.33.1-.5.05-.17-.06-.3-.16-.38-.32-.09-.16-.1-.32-.05-.48s.16-.29.32-.38c1.67-.9,3.12-1.95,4.34-3.14,1.22-1.19,2.17-2.46,2.85-3.82.03-.06,0-.09-.07-.09h-5.93c-.17,0-.32-.06-.45-.19-.13-.13-.19-.28-.19-.45s.06-.32.19-.45c.12-.13.27-.19.45-.19h6.92c.17,0,.32.06.45.19s.19.27.19.45c0,.44-.09.84-.26,1.2-.55,1.15-1.33,2.28-2.34,3.39-.04.04-.04.1.01.16,1.2,1.1,2.27,2.12,3.21,3.07.13.13.2.29.2.47s-.07.34-.2.47-.29.19-.47.19-.34-.07-.47-.2c-1.18-1.2-2.24-2.22-3.17-3.08-.05-.05-.11-.05-.17,0-1.34,1.25-2.83,2.3-4.47,3.15Z"/></g></svg>