<?xml version="1.0" encoding="UTF-8"?><svg id="_レイヤー_2" xmlns="http://www.w3.org/2000/svg" viewBox="0 0 86.18 21.82"><defs><style>.cls-1{fill:rgba(210,255,246,.9);}.cls-2{fill:#6ba;}</style></defs><g id="_文字図"><rect class="cls-1" x="0" y="0" width="86.18" height="21.82" rx="10.91" ry="10.91"/><path class="cls-2" d="M6.29,13.43c-.16,0-.29-.05-.4-.16s-.16-.24-.16-.4.05-.29.16-.4.24-.16.4-.16h1.05c.07,0,.11-.03.13-.1l.47-2.63c.02-.07-.01-.1-.09-.1h-.91c-.16,0-.29-.05-.4-.16s-.16-.24-.16-.4.05-.29.16-.4.24-.16.4-.16h1.1c.07,0,.11-.03.13-.1l.23-1.34c.04-.18.12-.33.27-.46.14-.12.31-.18.5-.18.17,0,.31.07.42.2s.15.28.11.44l-.23,1.34c-.02.07.01.1.09.1h1.99c.07,0,.11-.03.13-.1l.23-1.34c.04-.18.12-.33.27-.46.14-.12.31-.18.5-.18.17,0,.31.07.42.2s.15.28.11.44l-.23,1.34c-.02.07.01.1.09.1h.81c.16,0,.29.05.4.16.11.11.16.24.16.4s-.05.29-.16.4c-.11.11-.24.16-.4.16h-1c-.07,0-.11.03-.13.1l-.47,2.63c-.02.07.01.1.09.1h.86c.16,0,.29.05.4.16s.16.24.16.4-.05.29-.16.4-.24.16-.4.16h-1.05c-.07,0-.11.03-.13.1l-.29,1.6c-.04.18-.12.33-.27.46-.14.12-.31.18-.5.18-.17,0-.31-.06-.42-.19-.11-.13-.15-.28-.11-.44l.29-1.6c.02-.07-.01-.1-.09-.1h-1.99c-.07,0-.11.03-.13.1l-.29,1.6c-.03.18-.12.33-.27.46-.14.12-.31.18-.5.18-.17,0-.31-.06-.42-.19-.11-.13-.14-.28-.11-.44l.29-1.6c.02-.07-.01-.1-.09-.1h-.86ZM9.24,9.58l-.47,2.63c-.02.07.01.1.09.1h1.99c.07,0,.11-.03.13-.1l.47-2.63c.02-.07-.01-.1-.09-.1h-1.99c-.07,0-.11.03-.13.1Z"/><path class="cls-2" d="M17.65,16.67c-.16-.07-.27-.18-.35-.34-.08-.16-.1-.32-.05-.49.31-1.3.52-2.73.61-4.3,0-.16.07-.28.19-.38s.25-.14.41-.12c.17.02.3.09.4.21.1.12.15.26.14.43-.03.54-.06.94-.09,1.21,0,.06,0,.13.03.21.16.31.3.57.44.78,0,.02.02.02.04.01.02,0,.03-.02.03-.04v-3.51c0-.08-.04-.12-.12-.12h-1.47c-.17,0-.31-.06-.42-.17-.12-.11-.17-.25-.17-.42s.06-.3.17-.42c.12-.11.26-.17.42-.17h1.18c.08,0,.12-.03.12-.1v-1.34c0-.08-.04-.12-.12-.12h-.97c-.16,0-.29-.05-.4-.16-.11-.11-.17-.24-.17-.4s.06-.29.17-.4c.11-.11.25-.17.4-.17h.97c.08,0,.12-.04.12-.12v-.52c0-.18.07-.34.2-.47.13-.13.29-.2.47-.2s.34.06.47.2c.13.13.2.29.2.47v.52c0,.08.04.12.12.12h.52c.16,0,.29.06.4.17s.16.25.16.4-.05.29-.16.4-.24.16-.4.16h-.52c-.08,0-.12.04-.12.12v1.34c0,.07.04.1.12.1h.66c.16,0,.3.06.42.17.11.11.17.25.17.42s-.06.3-.17.42c-.11.11-.25.17-.42.17h-.44c-.07,0-.1.04-.1.12v1.34c0,.07.03.1.1.1h.39c.16,0,.29.06.4.17s.17.25.17.4-.06.29-.17.4c-.11.11-.25.17-.4.17h-.39c-.07,0-.1.03-.1.1v1.88c0,.07.03.12.08.14.82.36,2.3.53,4.43.53h3.3c.16,0,.29.06.39.17.1.11.15.25.14.4,0,.16-.07.3-.18.4-.11.1-.25.16-.42.16h-3.24c-1.9,0-3.31-.14-4.24-.42s-1.67-.8-2.24-1.56c-.04-.05-.07-.04-.09.03-.09.53-.19,1.05-.31,1.57-.04.16-.12.27-.27.34s-.29.07-.44,0ZM25.54,6.73c-.08,0-.12.04-.12.12v.62c0,.07.04.1.12.1h2.65c.2,0,.37.07.52.22.15.15.22.32.22.52v.33c-.16,1.51-.49,2.83-1,3.96-.04.08-.04.14,0,.18.22.36.48.69.78,1,.12.12.19.27.21.45s-.01.34-.1.49c-.09.14-.21.22-.36.25s-.29-.02-.41-.13c-.26-.26-.51-.56-.75-.9-.02-.03-.04-.04-.07-.04s-.05.01-.07.04c-.22.3-.44.57-.65.79-.14.14-.3.19-.49.17s-.34-.12-.44-.29l-.09-.16s-.02-.01-.04,0c-.02,0-.03.02-.03.03v.29c0,.16-.06.29-.17.4-.11.11-.25.17-.4.17s-.29-.06-.4-.17-.17-.25-.17-.4v-.64c0-.07-.03-.1-.09-.08-.64.18-1.32.35-2.03.51-.15.03-.29,0-.42-.08s-.2-.21-.22-.36c-.02-.16.02-.31.12-.44s.23-.21.38-.25c.05,0,.08-.04.08-.1v-6.53c0-.05-.03-.08-.08-.08-.15,0-.27-.05-.36-.15-.09-.1-.14-.22-.14-.36v-.06c0-.16.06-.29.17-.4s.25-.16.4-.16h6.33c.16,0,.29.05.4.16.11.11.17.24.17.4s-.06.29-.17.4c-.11.11-.25.17-.4.17h-2.89ZM24.28,8.02v-1.17c0-.08-.03-.12-.1-.12h-.78c-.08,0-.12.04-.12.12v1.17c0,.07.04.1.12.1h.78c.07,0,.1-.03.1-.1ZM24.28,10.49v-1.25c0-.07-.03-.1-.1-.1h-.78c-.08,0-.12.03-.12.1v1.25c0,.07.04.1.12.1h.78c.07,0,.1-.03.1-.1ZM24.28,12.77v-1.04c0-.08-.03-.12-.1-.12h-.78c-.08,0-.12.04-.12.12v1.31c0,.07.03.1.1.08.4-.1.66-.17.79-.21.07-.02.1-.06.1-.14ZM25.54,8.64c-.08,0-.12.04-.12.12v5.2s0,.03.03.05c.02.01.04.01.05,0,.38-.34.72-.75,1-1.22.04-.06.04-.13.01-.19-.37-.82-.66-1.81-.87-2.95-.03-.16,0-.3.1-.43.1-.13.22-.21.38-.25.16-.03.3,0,.42.08s.2.21.23.37c.1.57.23,1.14.4,1.7,0,.02.02.03.03.03s.02,0,.03-.03c.23-.72.38-1.5.46-2.35,0-.08-.03-.12-.1-.12h-2.05Z"/><path class="cls-2" d="M31.66,16.22c-.13.13-.29.19-.47.19s-.34-.06-.47-.19-.2-.29-.2-.47V6.63c0-.2.07-.37.21-.52.14-.15.31-.22.51-.22h2.3c.2,0,.37.07.52.22.15.15.22.32.22.52v8.18s0,.03.03.04.03,0,.04-.01c1.1-1.18,1.96-2.38,2.59-3.6.04-.08.02-.12-.05-.12h-1.69c-.17,0-.31-.05-.42-.16s-.18-.24-.18-.41.06-.31.18-.42c.12-.12.26-.18.42-.18h2.25c.08,0,.12-.03.12-.1v-1.79c0-.08-.04-.12-.12-.12h-2.07c-.17,0-.3-.06-.41-.17-.11-.11-.16-.25-.16-.42s.05-.3.16-.42c.11-.11.24-.17.41-.17h2.07c.08,0,.12-.03.12-.1v-.87c0-.19.07-.35.2-.48.13-.13.29-.2.48-.2s.35.06.49.2c.13.13.2.29.2.48v.87c0,.07.04.1.12.1h2.22c.17,0,.3.06.42.17s.17.25.17.42-.06.3-.17.42c-.11.11-.25.17-.42.17h-2.22c-.08,0-.12.04-.12.12v1.79c0,.07.04.1.12.1h2.42c.16,0,.3.06.42.18.11.12.17.26.17.42s-.06.3-.17.41c-.11.11-.25.16-.42.16h-1.82c-.08,0-.1.03-.06.1.55,1.17,1.3,2.3,2.24,3.38.14.16.21.35.23.57.01.21-.04.41-.16.58-.1.15-.25.23-.42.23-.18,0-.32-.06-.44-.19-.82-1.02-1.51-2.1-2.05-3.24,0,0-.02-.01-.03-.01s-.01,0-.01.03v3.83c0,.19-.07.35-.2.48-.13.13-.3.19-.49.19s-.35-.06-.48-.19-.2-.29-.2-.48v-3.83s0-.03-.02-.03c-.01,0-.02,0-.03.01-.59,1.14-1.34,2.24-2.25,3.29-.12.14-.28.21-.46.22-.19,0-.35-.05-.49-.18-.11-.1-.18-.23-.21-.39,0-.02-.01-.03-.04-.03-.03,0-.04,0-.05.02-.14.11-.29.17-.47.17h-1.6c-.07,0-.1.04-.1.12,0,.18-.07.34-.2.47ZM31.86,7.2v7.16c0,.07.04.1.12.1h.91c.08,0,.12-.03.12-.1v-7.16c0-.08-.04-.12-.12-.12h-.91c-.08,0-.12.04-.12.12Z"/><path class="cls-2" d="M44.2,7.88c-.17,0-.31-.06-.43-.18-.12-.12-.18-.27-.18-.44s.06-.32.18-.44c.12-.12.26-.18.42-.18,3.15-.02,6.28-.1,9.37-.23.17,0,.32.05.45.16.13.12.19.26.2.42,0,.17-.04.32-.16.46-.11.13-.26.21-.43.23-1.98.26-3.45.78-4.43,1.57-.98.78-1.47,1.74-1.47,2.85,0,.99.31,1.76.94,2.31.63.55,1.46.83,2.5.83.29,0,.62-.02.99-.06.17-.02.33.03.47.14.14.11.22.25.23.41.02.17-.03.33-.13.47-.1.14-.24.22-.42.24-.39.05-.79.08-1.21.08-1.48,0-2.66-.38-3.53-1.15-.87-.77-1.31-1.81-1.31-3.14,0-.96.28-1.82.84-2.58.56-.76,1.37-1.38,2.44-1.88,0,0,.01,0,.01-.01s0-.01-.03-.01c-1.72.07-3.5.11-5.33.13ZM51.61,9.5c.15-.08.3-.09.46-.05.16.05.28.15.36.29.13.23.32.59.58,1.08.08.15.09.29.04.44s-.14.26-.29.33c-.14.07-.29.08-.45.03-.16-.05-.28-.14-.36-.28-.07-.12-.17-.3-.3-.53s-.23-.41-.29-.53c-.08-.14-.09-.29-.04-.44.05-.16.14-.27.28-.34ZM54.37,9.28c.14.24.34.61.6,1.09.08.14.09.29.04.45-.05.16-.15.27-.3.34-.15.07-.3.08-.46.02-.16-.06-.28-.16-.36-.31-.06-.12-.16-.3-.3-.53s-.24-.41-.3-.52c-.08-.15-.09-.3-.05-.45.05-.15.14-.27.29-.34s.3-.09.46-.05c.16.05.28.15.37.29Z"/><path class="cls-2" d="M56.6,13.01c.56-1.05.97-2.06,1.21-3.04,0-.03,0-.05-.02-.08s-.05-.04-.07-.04h-.62c-.17,0-.3-.06-.42-.17-.11-.11-.17-.25-.17-.42s.06-.3.17-.42c.11-.11.25-.17.42-.17h.64c.08,0,.12-.04.12-.12v-1.49s-.01-.05-.04-.07c-.03-.02-.05-.03-.08-.02-.21.03-.36.06-.47.06-.16.02-.29-.02-.41-.12-.12-.1-.18-.23-.2-.38,0-.16.03-.29.13-.41.1-.12.22-.18.38-.2.94-.12,1.85-.3,2.7-.53.15-.04.29-.03.42.05.13.07.22.18.27.32.02.05.03.09.03.12s.01.05.04.07c.03.02.05.03.08.02.03,0,.07-.01.13-.01h2.59c.08,0,.12-.04.12-.12v-.29c0-.19.07-.36.2-.49.13-.14.3-.21.5-.21s.35.07.49.2.2.3.2.5v.29c0,.08.04.12.12.12h2.63c.2,0,.37.07.52.22.15.15.22.32.22.52v1.16c0,.15-.05.28-.14.39s-.21.19-.34.22c-.07.02-.12.06-.14.12-.09.24-.26.36-.53.36h-1.25c-.08,0-.11.04-.09.1.11.66.28,1.32.49,1.99,0,.03.03.04.05.04s.04,0,.05-.03c.27-.31.51-.62.73-.94.1-.14.23-.22.4-.25.17-.03.32.01.46.12.15.11.23.26.26.43.03.17-.01.33-.12.48-.42.6-.82,1.09-1.2,1.47-.05.05-.06.11-.04.18.37.81.81,1.52,1.31,2.13.31.38.36.78.16,1.18-.08.16-.21.26-.38.29s-.33-.03-.45-.17c-.71-.83-1.33-1.87-1.87-3.11-.54-1.24-.91-2.53-1.12-3.85-.02-.04-.05-.07-.09-.07-.06,0-.11.02-.16.07-.21.19-.37.33-.48.43-.06.04-.06.1-.01.17.55.81.97,1.66,1.26,2.55.29.88.44,1.73.44,2.53s-.11,1.33-.32,1.64c-.21.32-.55.47-1.02.47-.43,0-.81,0-1.12-.03-.17,0-.32-.07-.44-.2-.12-.12-.19-.26-.19-.43,0-.16.04-.29.16-.4.11-.11.25-.16.4-.15.4.02.64.03.71.03.2,0,.33-.07.39-.2.06-.13.09-.45.09-.94,0-.21,0-.37-.01-.48,0-.03-.01-.04-.04-.05-.03,0-.05,0-.07.02-.89.91-1.94,1.68-3.13,2.31-.16.09-.32.1-.48.05-.16-.05-.29-.15-.39-.3-.09-.14-.11-.29-.07-.44.04-.16.14-.27.29-.34,1.43-.72,2.61-1.56,3.54-2.53.05-.05.07-.11.04-.18-.03-.09-.1-.29-.22-.61-.04-.07-.08-.08-.13-.03-.73.68-1.57,1.28-2.52,1.81-.15.09-.3.11-.47.06-.17-.04-.29-.14-.39-.29-.09-.14-.11-.28-.07-.44.04-.15.14-.26.29-.33,1.08-.54,1.98-1.14,2.7-1.79.07-.05.08-.11.03-.17-.07-.14-.16-.28-.26-.42-.04-.05-.1-.06-.16-.01-.48.32-1,.63-1.56.94-.15.08-.3.09-.46.05-.16-.05-.29-.14-.38-.28-.09-.13-.11-.27-.06-.41.05-.14.14-.25.28-.32.84-.4,1.58-.84,2.22-1.31.02-.02.02-.03.02-.05,0-.01-.01-.02-.03-.02h-1.47c-.26,0-.44-.12-.53-.36-.03-.06-.07-.09-.13-.09-.16-.02-.29-.08-.4-.2s-.16-.26-.16-.42v-1.17s0-.04,0-.06c0-.03,0-.04,0-.05,0-.03,0-.05-.03-.06s-.05-.02-.06,0c-.33.09-.58.15-.75.19-.07.02-.1.06-.1.13v1.73c0,.08.03.12.1.12h.64c.16,0,.3.06.42.17.11.11.17.25.17.42s-.06.3-.17.42c-.11.11-.25.17-.42.17h-.51s-.05.01-.06.03c-.01.02-.02.04,0,.06.09.17.25.47.47.9.23.43.4.75.51.97.08.15.09.3.05.46-.04.16-.13.28-.27.38-.12.09-.25.11-.4.06-.14-.04-.25-.13-.32-.27-.03-.05-.06-.13-.1-.23-.04-.1-.07-.16-.08-.18,0,0-.02-.01-.03-.01s-.01,0-.01.03v4.24c0,.18-.06.34-.19.46-.13.13-.28.19-.46.19s-.34-.06-.46-.19c-.13-.13-.19-.28-.19-.46v-3.11s0-.01-.02-.01c-.01,0-.02,0-.03.01-.15.42-.32.83-.51,1.22-.07.14-.18.21-.34.21s-.28-.07-.34-.22l-.04-.08c-.22-.42-.2-.86.04-1.3ZM61.43,7.06c-.08,0-.12.04-.12.12v.52c0,.08.04.12.12.12h5.59c.08,0,.12-.04.12-.12v-.52c0-.08-.04-.12-.12-.12h-5.59Z"/><path class="cls-2" d="M71.98,12.95c-.82-.58-1.33-.98-1.53-1.21-.2-.23-.3-.53-.3-.91,0-.41.11-.73.33-.96.22-.23.75-.63,1.59-1.2,1.36-.89,2.77-1.92,4.22-3.07.14-.11.3-.16.48-.13.18.03.33.11.44.26.11.16.15.33.12.51s-.12.34-.27.46c-1.43,1.12-2.82,2.12-4.16,3-.51.34-.84.57-.98.71-.14.13-.21.27-.21.41,0,.13.06.25.18.36.12.11.42.34.9.68,1.46,1.01,3.03,2.23,4.69,3.65.15.12.23.27.24.46s-.04.35-.16.49c-.11.14-.26.22-.46.23-.19.02-.36-.03-.49-.16-1.56-1.33-3.1-2.53-4.63-3.6ZM77.68,9.01c.29.52.51.91.65,1.18.09.16.1.32.05.49s-.16.29-.32.37c-.17.08-.33.09-.5.03s-.3-.17-.38-.33c-.3-.55-.52-.93-.65-1.16-.09-.15-.1-.31-.05-.47s.16-.29.31-.37c.17-.09.33-.1.5-.05.17.05.3.16.4.31ZM79.19,10.24c-.14-.26-.36-.65-.65-1.17-.09-.16-.12-.32-.07-.49s.15-.3.32-.38c.17-.09.34-.1.52-.05.18.05.32.16.4.33.29.52.51.91.65,1.18.09.16.1.32.05.49-.05.17-.16.3-.32.38-.17.08-.33.09-.51.04-.17-.05-.3-.16-.39-.32Z"/></g></svg>