<?xml version="1.0" encoding="UTF-8"?><svg id="_レイヤー_2" xmlns="http://www.w3.org/2000/svg" viewBox="0 0 115.69 40.89"><defs><style>.cls-1{fill:#6ba;}.cls-2{fill:#fff;}</style></defs><g id="_文字図"><rect class="cls-1" x="0" y="0" width="115.69" height="40.89" rx="20.45" ry="20.45"/><path class="cls-2" d="M8.22,23.93c-.21,0-.39-.07-.54-.22-.15-.15-.22-.33-.22-.54s.07-.39.22-.54c.15-.15.33-.22.54-.22h1.42c.09,0,.15-.05.18-.14l.63-3.56c.02-.09-.02-.14-.12-.14h-1.23c-.21,0-.39-.07-.54-.22-.15-.15-.22-.33-.22-.54s.07-.39.22-.54c.15-.15.33-.22.54-.22h1.5c.09,0,.15-.05.18-.14l.32-1.81c.05-.25.17-.45.36-.62.19-.16.42-.25.68-.25.23,0,.42.09.57.26s.2.38.15.6l-.32,1.81c-.02.09.02.14.12.14h2.69c.09,0,.15-.05.18-.14l.32-1.81c.05-.25.17-.45.36-.62.19-.16.42-.25.68-.25.23,0,.42.09.57.26s.2.38.15.6l-.32,1.81c-.02.09.02.14.12.14h1.09c.21,0,.39.07.54.22.15.15.22.33.22.54s-.07.39-.22.54c-.15.15-.33.22-.54.22h-1.36c-.09,0-.15.05-.18.14l-.63,3.56c-.02.09.02.14.12.14h1.16c.21,0,.39.07.54.22.15.15.22.33.22.54s-.07.39-.22.54c-.15.15-.33.22-.54.22h-1.43c-.09,0-.15.05-.18.14l-.39,2.17c-.05.25-.17.45-.36.62-.19.16-.42.25-.68.25-.24,0-.43-.09-.57-.26-.15-.18-.2-.38-.15-.6l.39-2.17c.02-.09-.02-.14-.12-.14h-2.69c-.09,0-.15.05-.18.14l-.39,2.17c-.05.25-.17.45-.36.62-.19.16-.42.25-.68.25-.24,0-.43-.09-.57-.26-.15-.18-.2-.38-.15-.6l.39-2.17c.02-.09-.02-.14-.12-.14h-1.16ZM12.22,18.72l-.63,3.56c-.02.09.02.14.12.14h2.69c.09,0,.15-.05.18-.14l.63-3.56c.02-.09-.02-.14-.12-.14h-2.69c-.09,0-.15.05-.18.14Z"/><path class="cls-2" d="M26.35,27.55c-.27.07-.53.04-.77-.09-.24-.13-.41-.33-.5-.6-.09-.25-.08-.49.04-.72.12-.23.3-.39.56-.46,2.85-.81,4.97-2.04,6.36-3.69,1.39-1.65,2.27-4.02,2.65-7.12.04-.27.16-.49.37-.67.21-.18.45-.25.72-.23h.05c.27.02.49.14.67.35.18.21.25.45.21.72-.42,3.56-1.44,6.3-3.05,8.24-1.61,1.94-4.05,3.36-7.31,4.26Z"/><path class="cls-2" d="M42.81,27.36c-.24.13-.48.16-.74.1-.26-.06-.46-.21-.6-.45-.13-.21-.16-.44-.09-.68.07-.24.21-.43.42-.55.67-.41,1.17-.91,1.5-1.49.33-.58.56-1.38.69-2.39.13-1.01.19-2.48.19-4.39v-2.55c0-.26.09-.48.28-.68.19-.19.42-.29.69-.29s.5.1.69.29c.19.19.28.42.28.68v2.55c0,2.12-.11,3.81-.32,5.07-.21,1.26-.55,2.24-1.01,2.96-.46.72-1.12,1.33-1.98,1.83ZM49.83,27.64c-.27.01-.5-.08-.7-.26-.19-.19-.29-.42-.29-.7v-11.72c0-.26.1-.48.29-.68.19-.19.42-.29.68-.29s.48.1.68.29c.19.19.29.42.29.68v10.65c0,.11.05.15.14.12,2.3-.53,3.68-2.29,4.15-5.3.04-.23.15-.43.34-.57.19-.15.41-.2.64-.17.25.04.45.15.6.33.15.19.21.4.18.65-.33,2.15-1.09,3.82-2.3,5.01-1.2,1.19-2.77,1.85-4.71,1.96Z"/><path class="cls-2" d="M60.07,16.15c-.23,0-.44-.08-.61-.26-.17-.17-.26-.37-.26-.61s.08-.44.26-.61c.17-.17.37-.25.61-.25h12.32c.23,0,.43.08.6.25.16.17.25.37.25.61,0,.67-.09,1.22-.26,1.65-.54,1.38-1.38,2.67-2.51,3.85-1.13,1.19-2.51,2.21-4.13,3.06-.08.05-.09.11-.04.19.77,1.13,1.28,1.87,1.51,2.24.15.22.2.46.14.72-.06.26-.21.46-.44.6-.24.14-.48.19-.73.13-.25-.05-.46-.19-.61-.41-1.5-2.23-2.93-4.27-4.28-6.11-.15-.21-.21-.44-.16-.7.05-.25.18-.45.39-.59.22-.15.47-.21.75-.17.28.04.49.17.64.4.15.21.66.91,1.51,2.09.05.07.12.08.21.04,1.38-.7,2.61-1.6,3.69-2.69,1.07-1.09,1.83-2.2,2.26-3.33.02-.08,0-.12-.09-.12h-11.04Z"/><path class="cls-2" d="M77.5,25.47c-.22.1-.44.11-.66.03s-.38-.23-.47-.44c-.09-.21-.09-.42,0-.63,1.03-2.51,1.92-4.97,2.67-7.39.02-.09-.01-.14-.11-.14h-1.72c-.22,0-.41-.08-.56-.23-.15-.15-.23-.34-.23-.56s.08-.41.23-.56.34-.23.56-.23h2.18c.11,0,.17-.05.19-.14.23-.82.39-1.36.46-1.62.06-.23.19-.42.39-.55.2-.13.42-.18.65-.15.22.02.4.13.52.32.12.19.16.39.11.62-.08.32-.21.78-.37,1.39-.02.09.01.14.11.14h2.18c.22,0,.41.08.56.23.15.15.23.34.23.56s-.08.41-.23.56c-.15.15-.34.23-.56.23h-2.64c-.08,0-.15.05-.19.16-.8,2.65-1.74,5.3-2.83,7.94-.09.22-.25.38-.47.48ZM90.98,15.55c.22.02.4.12.53.3.13.18.18.38.16.6-.02.21-.12.38-.3.51-.18.13-.37.18-.58.16-.86-.11-1.65-.16-2.38-.18-.12,0-.18.05-.18.14v5.77c0,.07.05.14.14.21.97.57,1.91,1.24,2.82,2.01.18.15.27.34.28.57.01.23-.06.43-.21.61-.15.18-.35.27-.58.29-.24.02-.45-.05-.63-.2-.68-.55-1.25-.99-1.71-1.32-.08-.06-.13-.04-.16.05-.13,1.02-.51,1.76-1.14,2.22-.63.46-1.55.69-2.77.69s-2.21-.28-2.91-.85-1.05-1.34-1.05-2.31.34-1.7,1.03-2.25c.69-.55,1.66-.83,2.93-.83.64,0,1.33.13,2.06.39.09.02.14-.01.14-.11v-5.7c0-.27.1-.5.3-.7.2-.2.43-.29.7-.28,1.36.04,2.53.11,3.5.23ZM86.47,24.14v-.14c0-.09-.04-.16-.11-.19-.76-.36-1.46-.55-2.09-.55-1.47,0-2.2.52-2.2,1.55,0,.53.19.94.58,1.23.39.29.93.44,1.62.44.84,0,1.42-.16,1.73-.49.31-.33.47-.94.47-1.85Z"/><path class="cls-2" d="M101.19,28.06c-1.91,0-3.24-.48-3.99-1.43s-1.12-2.71-1.12-5.25c0-1.97.06-4.29.18-6.97.01-.27.11-.5.31-.68.19-.18.42-.27.68-.26.26.01.47.11.65.3.18.19.26.41.25.67-.12,2.64-.18,4.95-.18,6.93,0,1.03.06,1.87.18,2.52.12.65.32,1.15.6,1.5.28.36.61.6.99.72.38.12.86.18,1.46.18,2.21,0,3.97-1.48,5.3-4.45.09-.22.25-.38.48-.48.23-.09.46-.1.68-.02.23.09.4.25.5.48.1.22.1.45,0,.67-.79,1.85-1.78,3.24-2.97,4.17-1.19.93-2.53,1.39-4,1.39Z"/></g></svg>