<?xml version="1.0" encoding="UTF-8"?><svg id="_レイヤー_2" xmlns="http://www.w3.org/2000/svg" viewBox="0 0 124.26 114.23"><defs><style>.cls-1,.cls-2{stroke:#6ba;stroke-miterlimit:10;stroke-width:1.5px;}.cls-1,.cls-3{fill:#fff;}.cls-2{fill:none;}.cls-4{fill:#6ba;}</style></defs><g id="_イラスト"><path class="cls-1" d="M33.63,89.19h42.91c0-7.62-7.2-19.19-17.06-21.22v-2.87c6.78-1.91,10.14-8.65,10.14-15.3,0-8.02-5.61-16.36-14.53-16.36s-14.53,8.34-14.53,16.36c0,6.65,3.36,13.39,10.14,15.3v2.87c-9.86,2.03-17.06,13.61-17.06,21.22Z"/><polyline class="cls-2" points="109.75 38.52 55.09 .91 .43 38.52"/><polyline class="cls-2" points="96.69 29.53 96.69 106.73 13.49 106.73 13.49 29.53"/><path class="cls-3" d="M101.73,69.17c-12.42,0-22.53,10.11-22.53,22.53s10.11,22.53,22.53,22.53,22.53-10.11,22.53-22.53-10.11-22.53-22.53-22.53Z"/><circle class="cls-4" cx="101.73" cy="91.7" r="17.53"/><polygon class="cls-3" points="109.79 82.38 97.29 96.7 93.66 93.83 91.65 93.83 97.29 103.38 111.81 82.38 109.79 82.38"/></g></svg>