<?xml version="1.0" encoding="UTF-8"?><svg id="_レイヤー_2" xmlns="http://www.w3.org/2000/svg" viewBox="0 0 115.69 40.89"><defs><style>.cls-1{fill:#6ba;}.cls-2{fill:#fff;}</style></defs><g id="_文字図"><rect class="cls-1" x="0" y="0" width="115.69" height="40.89" rx="20.45" ry="20.45"/><path class="cls-2" d="M8.22,23.93c-.21,0-.39-.07-.54-.22-.15-.15-.22-.33-.22-.54s.07-.39.22-.54c.15-.15.33-.22.54-.22h1.42c.09,0,.15-.05.18-.14l.63-3.56c.02-.09-.02-.14-.12-.14h-1.23c-.21,0-.39-.07-.54-.22-.15-.15-.22-.33-.22-.54s.07-.39.22-.54c.15-.15.33-.22.54-.22h1.5c.09,0,.15-.05.18-.14l.32-1.81c.05-.25.17-.45.36-.62.19-.16.42-.25.68-.25.23,0,.42.09.57.26s.2.38.15.6l-.32,1.81c-.02.09.02.14.12.14h2.69c.09,0,.15-.05.18-.14l.32-1.81c.05-.25.17-.45.36-.62.19-.16.42-.25.68-.25.23,0,.42.09.57.26s.2.38.15.6l-.32,1.81c-.02.09.02.14.12.14h1.09c.21,0,.39.07.54.22.15.15.22.33.22.54s-.07.39-.22.54c-.15.15-.33.22-.54.22h-1.36c-.09,0-.15.05-.18.14l-.63,3.56c-.02.09.02.14.12.14h1.16c.21,0,.39.07.54.22.15.15.22.33.22.54s-.07.39-.22.54c-.15.15-.33.22-.54.22h-1.43c-.09,0-.15.05-.18.14l-.39,2.17c-.05.25-.17.45-.36.62-.19.16-.42.25-.68.25-.24,0-.43-.09-.57-.26-.15-.18-.2-.38-.15-.6l.39-2.17c.02-.09-.02-.14-.12-.14h-2.69c-.09,0-.15.05-.18.14l-.39,2.17c-.05.25-.17.45-.36.62-.19.16-.42.25-.68.25-.24,0-.43-.09-.57-.26-.15-.18-.2-.38-.15-.6l.39-2.17c.02-.09-.02-.14-.12-.14h-1.16ZM12.22,18.72l-.63,3.56c-.02.09.02.14.12.14h2.69c.09,0,.15-.05.18-.14l.63-3.56c.02-.09-.02-.14-.12-.14h-2.69c-.09,0-.15.05-.18.14Z"/><path class="cls-2" d="M24.92,20.37c-.22,0-.42-.08-.58-.25-.17-.16-.25-.36-.25-.6s.08-.43.25-.6c.16-.16.36-.25.58-.25h11.9c.28,0,.52.1.71.3.19.2.29.44.27.72-.27,4.81-3.63,7.52-10.08,8.11-.24.01-.45-.06-.63-.2-.19-.15-.3-.34-.35-.57-.04-.23.02-.44.16-.62.14-.18.32-.27.55-.28,5.01-.46,7.8-2.34,8.38-5.65.01-.04,0-.06-.04-.09s-.07-.04-.11-.04h-10.75ZM26.26,14.16h9.57c.23,0,.43.08.6.25.16.16.25.36.25.58,0,.23-.08.43-.25.6-.16.16-.36.25-.6.25h-9.57c-.23,0-.43-.08-.6-.25-.16-.16-.25-.36-.25-.6,0-.22.08-.42.25-.58.16-.16.36-.25.6-.25Z"/><path class="cls-2" d="M43.21,16.15c-.23-.12-.39-.3-.47-.54-.08-.24-.06-.48.06-.71.12-.22.3-.38.56-.46.26-.08.5-.06.74.05,1.36.69,2.61,1.37,3.75,2.02.23.13.38.32.45.56.06.25.03.49-.1.72-.13.23-.32.38-.56.45-.25.06-.49.03-.72-.1-1.14-.66-2.38-1.33-3.71-2.01ZM55.36,15.92c.25.06.44.19.57.4.13.21.18.43.13.68-1.36,6.02-5.4,9.45-12.11,10.28-.26.04-.49-.03-.69-.18-.2-.16-.32-.37-.35-.62-.04-.25.02-.47.17-.66.15-.19.34-.31.59-.34,2.97-.4,5.32-1.32,7.04-2.76,1.72-1.44,2.92-3.48,3.57-6.11.06-.23.19-.42.41-.55.21-.13.43-.17.67-.12Z"/><path class="cls-2" d="M61.18,21.3c-.17.18-.37.27-.62.28s-.46-.06-.65-.23c-.18-.15-.27-.35-.28-.59-.01-.24.06-.45.23-.62,1.58-1.76,2.59-3.75,3.01-5.98.05-.25.17-.45.37-.62.2-.16.42-.24.67-.23.25.02.45.13.62.31s.22.4.18.64c-.01.07-.03.18-.06.32-.03.14-.05.25-.06.32-.02.09.02.14.12.14h6.72c.27,0,.51.1.71.3.21.2.3.43.29.7-.08,3.64-.99,6.37-2.73,8.21-1.74,1.84-4.45,2.96-8.13,3.37-.23.02-.45-.04-.63-.18-.19-.15-.3-.34-.33-.57-.04-.22.01-.42.15-.61.13-.18.32-.28.55-.31,3.1-.39,5.35-1.28,6.77-2.68,1.41-1.4,2.21-3.54,2.38-6.42,0-.09-.05-.14-.14-.14h-6.11c-.09,0-.16.05-.19.14-.61,1.62-1.55,3.1-2.83,4.45Z"/><path class="cls-2" d="M77.5,25.47c-.22.1-.44.11-.66.03s-.38-.23-.47-.44c-.09-.21-.09-.42,0-.63,1.03-2.51,1.92-4.97,2.67-7.39.02-.09-.01-.14-.11-.14h-1.72c-.22,0-.41-.08-.56-.23-.15-.15-.23-.34-.23-.56s.08-.41.23-.56.34-.23.56-.23h2.18c.11,0,.17-.05.19-.14.23-.82.39-1.36.46-1.62.06-.23.19-.42.39-.55.2-.13.42-.18.65-.15.22.02.4.13.52.32.12.19.16.39.11.62-.08.32-.21.78-.37,1.39-.02.09.01.14.11.14h2.18c.22,0,.41.08.56.23.15.15.23.34.23.56s-.08.41-.23.56c-.15.15-.34.23-.56.23h-2.64c-.08,0-.15.05-.19.16-.8,2.65-1.74,5.3-2.83,7.94-.09.22-.25.38-.47.48ZM90.98,15.55c.22.02.4.12.53.3.13.18.18.38.16.6-.02.21-.12.38-.3.51-.18.13-.37.18-.58.16-.86-.11-1.65-.16-2.38-.18-.12,0-.18.05-.18.14v5.77c0,.07.05.14.14.21.97.57,1.91,1.24,2.82,2.01.18.15.27.34.28.57.01.23-.06.43-.21.61-.15.18-.35.27-.58.29-.24.02-.45-.05-.63-.2-.68-.55-1.25-.99-1.71-1.32-.08-.06-.13-.04-.16.05-.13,1.02-.51,1.76-1.14,2.22-.63.46-1.55.69-2.77.69s-2.21-.28-2.91-.85-1.05-1.34-1.05-2.31.34-1.7,1.03-2.25c.69-.55,1.66-.83,2.93-.83.64,0,1.33.13,2.06.39.09.02.14-.01.14-.11v-5.7c0-.27.1-.5.3-.7.2-.2.43-.29.7-.28,1.36.04,2.53.11,3.5.23ZM86.47,24.14v-.14c0-.09-.04-.16-.11-.19-.76-.36-1.46-.55-2.09-.55-1.47,0-2.2.52-2.2,1.55,0,.53.19.94.58,1.23.39.29.93.44,1.62.44.84,0,1.42-.16,1.73-.49.31-.33.47-.94.47-1.85Z"/><path class="cls-2" d="M101.19,28.06c-1.91,0-3.24-.48-3.99-1.43s-1.12-2.71-1.12-5.25c0-1.97.06-4.29.18-6.97.01-.27.11-.5.31-.68.19-.18.42-.27.68-.26.26.01.47.11.65.3.18.19.26.41.25.67-.12,2.64-.18,4.95-.18,6.93,0,1.03.06,1.87.18,2.52.12.65.32,1.15.6,1.5.28.36.61.6.99.72.38.12.86.18,1.46.18,2.21,0,3.97-1.48,5.3-4.45.09-.22.25-.38.48-.48.23-.09.46-.1.68-.02.23.09.4.25.5.48.1.22.1.45,0,.67-.79,1.85-1.78,3.24-2.97,4.17-1.19.93-2.53,1.39-4,1.39Z"/></g></svg>