<?xml version="1.0" encoding="UTF-8"?><svg id="_レイヤー_2" xmlns="http://www.w3.org/2000/svg" viewBox="0 0 86.18 21.82"><defs><style>.cls-1{fill:rgba(210,255,246,.9);}.cls-2{fill:#6ba;}</style></defs><g id="_文字図"><rect class="cls-1" x="0" y="0" width="86.18" height="21.82" rx="10.91" ry="10.91"/><path class="cls-2" d="M6.29,13.43c-.16,0-.29-.05-.4-.16s-.16-.24-.16-.4.05-.29.16-.4.24-.16.4-.16h1.05c.07,0,.11-.03.13-.1l.47-2.63c.02-.07-.01-.1-.09-.1h-.91c-.16,0-.29-.05-.4-.16s-.16-.24-.16-.4.05-.29.16-.4.24-.16.4-.16h1.1c.07,0,.11-.03.13-.1l.23-1.34c.04-.18.12-.33.27-.46.14-.12.31-.18.5-.18.17,0,.31.07.42.2s.15.28.11.44l-.23,1.34c-.02.07.01.1.09.1h1.99c.07,0,.11-.03.13-.1l.23-1.34c.04-.18.12-.33.27-.46.14-.12.31-.18.5-.18.17,0,.31.07.42.2s.15.28.11.44l-.23,1.34c-.02.07.01.1.09.1h.81c.16,0,.29.05.4.16.11.11.16.24.16.4s-.05.29-.16.4c-.11.11-.24.16-.4.16h-1c-.07,0-.11.03-.13.1l-.47,2.63c-.02.07.01.1.09.1h.86c.16,0,.29.05.4.16s.16.24.16.4-.05.29-.16.4-.24.16-.4.16h-1.05c-.07,0-.11.03-.13.1l-.29,1.6c-.04.18-.12.33-.27.46-.14.12-.31.18-.5.18-.17,0-.31-.06-.42-.19-.11-.13-.15-.28-.11-.44l.29-1.6c.02-.07-.01-.1-.09-.1h-1.99c-.07,0-.11.03-.13.1l-.29,1.6c-.03.18-.12.33-.27.46-.14.12-.31.18-.5.18-.17,0-.31-.06-.42-.19-.11-.13-.14-.28-.11-.44l.29-1.6c.02-.07-.01-.1-.09-.1h-.86ZM9.24,9.58l-.47,2.63c-.02.07.01.1.09.1h1.99c.07,0,.11-.03.13-.1l.47-2.63c.02-.07-.01-.1-.09-.1h-1.99c-.07,0-.11.03-.13.1Z"/><path class="cls-2" d="M18.92,7.84c-.18,0-.34-.06-.46-.19-.13-.13-.19-.28-.19-.46s.06-.34.19-.46c.13-.13.28-.19.46-.19h8.42c.2,0,.38.07.53.22s.22.32.21.52c-.07,2.67-.74,4.71-2.02,6.14-1.27,1.42-3.2,2.31-5.79,2.67-.18.03-.35-.02-.49-.12-.15-.11-.24-.25-.27-.44-.04-.16,0-.32.11-.46s.25-.23.42-.25c2.14-.3,3.74-1,4.78-2.08,1.05-1.08,1.64-2.68,1.78-4.78,0-.07-.03-.1-.1-.1h-7.59Z"/><path class="cls-2" d="M32.7,9.46c-.16,0-.29-.05-.4-.16s-.16-.24-.16-.4.05-.29.16-.4c.11-.11.24-.17.4-.17h7.27c.16,0,.29.06.4.17.11.11.16.25.16.4,0,.43-.06.8-.18,1.09-.43,1.04-1.14,1.9-2.11,2.57-.15.1-.31.14-.47.1s-.3-.13-.41-.28c-.1-.14-.13-.29-.1-.45.03-.16.12-.29.25-.38.79-.57,1.32-1.23,1.6-1.98.02-.08,0-.12-.08-.12h-6.33ZM34.9,10.98c0-.18.07-.34.2-.47.12-.13.27-.19.46-.19.17,0,.32.06.46.19.13.13.19.28.18.46-.04,1.4-.23,2.49-.58,3.24-.35.76-.93,1.37-1.74,1.83-.16.09-.32.11-.49.06-.17-.05-.3-.15-.4-.29-.09-.15-.11-.3-.06-.46.04-.16.14-.28.29-.36.59-.36,1.01-.84,1.26-1.43.25-.59.39-1.45.43-2.57Z"/><path class="cls-2" d="M45.13,7.68c-.17-.09-.29-.22-.34-.4-.06-.18-.04-.35.04-.53.09-.16.23-.28.42-.34.19-.06.37-.05.55.04,1,.51,1.93,1.01,2.77,1.5.17.1.28.23.33.42.05.18.02.36-.07.53s-.23.28-.42.33c-.18.05-.36.02-.53-.07-.84-.49-1.75-.98-2.74-1.48ZM54.1,7.51c.18.04.32.14.42.29.1.15.13.32.1.5-1,4.45-3.99,6.98-8.94,7.59-.19.03-.36-.02-.51-.14-.15-.12-.23-.27-.26-.46-.03-.18.02-.34.12-.49s.25-.23.44-.25c2.19-.29,3.93-.98,5.2-2.04,1.27-1.07,2.15-2.57,2.64-4.51.04-.17.14-.31.3-.4.16-.1.32-.13.49-.09Z"/><path class="cls-2" d="M61.68,7.21c.08,0,.12-.03.12-.1v-.13c0-.08-.04-.12-.12-.12h-1c-.13,0-.25-.04-.34-.12s-.16-.18-.19-.31c-.02-.04-.04-.05-.08-.01-.33.42-.72.84-1.17,1.27-.05.05-.07.11-.04.18.46,1.46.69,3.13.69,4.99,0,1.03-.07,1.84-.2,2.43-.13.59-.31.99-.53,1.2-.22.21-.52.31-.9.31-.22,0-.51-.03-.87-.1-.17-.03-.3-.12-.41-.25-.11-.13-.17-.29-.17-.46,0-.15.04-.27.16-.36.12-.09.25-.12.38-.08.32.06.54.09.65.09.42,0,.62-.92.62-2.77,0-.17,0-.43-.03-.78,0-.02,0-.03-.03-.04-.02,0-.03,0-.05.01-.37.38-.8.74-1.27,1.07-.14.09-.28.11-.44.06-.15-.05-.26-.15-.33-.29-.06-.16-.07-.33-.02-.49.05-.16.14-.29.29-.39.57-.4,1.11-.89,1.62-1.47.06-.06.08-.13.07-.19-.07-.49-.18-1-.34-1.55,0-.03-.03-.04-.06-.05-.03,0-.05,0-.07.01-.23.18-.46.35-.69.49-.14.09-.29.11-.44.06-.16-.05-.27-.15-.34-.29-.07-.16-.08-.33-.03-.49.05-.16.15-.29.3-.39.24-.16.51-.36.79-.58.07-.05.09-.11.05-.17-.17-.4-.31-.69-.4-.88-.08-.16-.09-.32-.04-.49.05-.17.16-.3.31-.38.17-.09.35-.1.52-.05.17.06.3.17.39.33.06.11.14.29.25.53.03.06.08.06.13.01.36-.38.63-.68.79-.88.1-.12.24-.19.4-.21.16-.02.3.02.42.11.12.1.19.22.22.36.02.04.05.05.09.03.1-.07.2-.1.31-.1h1.01c.07,0,.1-.03.1-.09,0-.17.06-.32.18-.44.12-.12.26-.18.43-.18h.03c.16,0,.31.06.44.19.12.13.19.27.19.44,0,.06.03.09.09.09h1.86c.07,0,.1-.03.1-.09,0-.17.06-.32.18-.44.12-.12.26-.18.43-.18h.03c.17,0,.32.06.44.19.12.13.18.27.18.44,0,.06.03.09.09.09h1.08c.15,0,.28.05.38.16.11.11.16.24.16.38s-.05.28-.16.39c-.11.11-.24.17-.38.17h-1.09c-.05,0-.08.02-.08.06,0,.13-.05.24-.14.34s-.21.14-.34.14h-.16c-.07,0-.11.03-.13.1,0,.02-.02.04-.03.08s-.02.06-.03.08c-.02.07,0,.1.08.1h1.98c.12,0,.22.04.31.12.08.08.12.18.12.29s-.04.21-.13.3c-.09.09-.19.13-.3.13h-2.16c-.08,0-.12.04-.12.12v.22c0,.08.04.12.12.12h1.96c.11,0,.21.04.28.11.07.07.11.17.11.28s-.04.21-.11.28c-.07.07-.17.11-.28.11h-1.96c-.08,0-.12.04-.12.12v.22c0,.08.04.12.12.12h1.96c.11,0,.21.04.28.11.07.07.11.17.11.28s-.04.21-.11.28c-.07.07-.17.11-.28.11h-1.96c-.08,0-.12.03-.12.1v.23c0,.08.04.12.12.12h2.16c.11,0,.21.04.3.12.09.08.13.18.13.31,0,.11-.04.21-.12.29-.08.08-.18.12-.31.12h-6.54c-.2,0-.37-.07-.52-.22-.15-.15-.22-.32-.22-.52v-1.14c0-.08-.03-.13-.1-.14l-.3-.08c-.17-.04-.29-.15-.35-.32s-.04-.33.05-.47c.36-.55.65-1.1.87-1.65.09-.21.22-.37.4-.49.18-.12.38-.17.58-.16l.2.03ZM67.75,15.59c.15.03.27.1.36.23.09.13.12.26.08.41-.04.16-.13.28-.26.38-.13.1-.27.13-.43.1-1.07-.16-2.2-.45-3.41-.86-.06-.03-.13-.03-.2,0-1.05.35-2.24.63-3.59.84-.17.03-.31,0-.44-.1-.13-.09-.22-.21-.26-.37-.03-.15,0-.28.08-.41s.21-.2.36-.21c.88-.13,1.63-.26,2.24-.4.02,0,.03-.02.03-.04s0-.03-.03-.04c-.43-.2-.81-.4-1.14-.6-.12-.07-.19-.18-.2-.33-.01-.15.04-.26.15-.35,0,0,.01-.02.01-.03s0-.02-.03-.02h-.62c-.15,0-.27-.05-.37-.16s-.15-.23-.15-.36.05-.26.15-.36.22-.16.37-.16h6.72c.14,0,.26.05.36.16.1.1.16.23.16.36,0,.36-.13.65-.38.87-.41.34-.93.66-1.56.98-.02,0-.03.02-.03.03s0,.02.03.03c.71.17,1.37.31,1.99.4ZM61.84,8.62c-.08,0-.12.04-.12.12v.22c0,.08.04.12.12.12h1.99c.07,0,.1-.04.1-.12v-.22c0-.08-.04-.12-.1-.12h-1.99ZM63.93,10.19v-.22c0-.08-.04-.12-.1-.12h-1.99c-.08,0-.12.04-.12.12v.22c0,.08.04.12.12.12h1.99c.07,0,.1-.04.1-.12ZM63.93,11.43v-.23c0-.07-.04-.1-.1-.1h-1.99c-.08,0-.12.03-.12.1v.23c0,.08.04.12.12.12h1.99c.07,0,.1-.04.1-.12ZM61.94,7.66c-.02.08,0,.12.07.12h2.04c.06,0,.1-.03.12-.08.05-.16.15-.29.29-.39s.29-.14.46-.13h.1c.07.01.1-.02.1-.08v-.12c0-.08-.04-.12-.12-.12h-1.86c-.05,0-.08.03-.08.08,0,.13-.05.24-.14.34-.09.1-.21.14-.34.14h-.44c-.08,0-.13.04-.16.1,0,.02,0,.04-.01.07,0,.03-.02.05-.03.06ZM63.98,14.65c.07.03.13.03.2,0,.68-.24,1.23-.51,1.68-.81,0-.02,0-.03-.03-.05h-3.55s-.03,0-.03.02,0,.02.01.03c.49.29,1.06.56,1.72.81Z"/><path class="cls-2" d="M70.03,12.49c-.12.11-.26.15-.43.1-.17-.05-.27-.15-.31-.32-.06-.21-.06-.41.01-.62.07-.2.19-.38.36-.51.82-.68,1.53-1.47,2.13-2.38.09-.15.22-.24.39-.28.16-.04.32-.02.47.07.15.1.25.23.29.39.05.17.03.32-.06.47-.25.42-.56.85-.92,1.3-.05.05-.08.12-.08.2v5.36c0,.19-.07.35-.2.48s-.29.19-.48.19-.35-.06-.49-.19c-.13-.13-.2-.29-.2-.48v-4.19s0-.03-.02-.04-.03,0-.05.01c-.09.1-.24.25-.43.44ZM71.78,5.5c.11-.14.26-.23.43-.26.17-.03.33,0,.48.08.15.09.24.21.27.37.03.16,0,.31-.11.44-.68.87-1.52,1.63-2.51,2.3-.14.09-.29.11-.45.06-.16-.05-.28-.15-.34-.29-.07-.16-.08-.33-.03-.51s.15-.31.3-.4c.75-.52,1.41-1.11,1.96-1.78ZM80.67,12.19c.16,0,.3.06.41.17.11.11.16.25.16.42s-.05.3-.16.42c-.11.11-.25.17-.41.17h-.61c-.08,0-.12.04-.12.12v1.4c0,.33,0,.58-.01.77,0,.18-.04.36-.1.53s-.12.29-.19.36-.19.13-.36.19c-.17.06-.35.09-.55.1-.2,0-.46.01-.8.01s-.62,0-.87-.03c-.17,0-.3-.07-.42-.19-.11-.12-.17-.26-.18-.43,0-.16.04-.29.16-.4.11-.11.25-.16.4-.15.42.02.64.03.68.03.4,0,.63-.03.7-.1s.1-.28.1-.64v-1.44c0-.08-.04-.12-.1-.12h-3.5s-.03.01-.04.03c0,.02,0,.04.01.05.42.38.86.81,1.31,1.3.12.13.18.28.17.46s-.08.32-.21.44c-.12.11-.27.17-.44.16-.17,0-.31-.07-.44-.19-.22-.24-.58-.6-1.08-1.08-.15-.14-.22-.31-.22-.5s.07-.37.21-.51l.07-.08s.02-.02.01-.05c0-.02-.02-.03-.04-.03h-.79c-.17,0-.3-.06-.41-.17-.11-.11-.16-.25-.16-.42s.05-.3.16-.42c.11-.11.24-.17.41-.17h4.97c.07,0,.1-.04.1-.12v-.46c0-.08-.04-.12-.1-.12h-4.97c-.14,0-.26-.05-.36-.16-.1-.1-.16-.23-.16-.36s.05-.26.16-.36c.1-.1.23-.16.36-.16h7.23c.14,0,.26.05.36.16.1.1.16.23.16.36s-.05.26-.16.36c-.1.1-.23.16-.36.16h-.61c-.08,0-.12.04-.12.12v.46c0,.08.04.12.12.12h.61ZM74.85,9.92h-.6c-.2,0-.37-.07-.51-.22-.14-.15-.21-.32-.21-.52v-2.91c0-.2.07-.37.21-.51.14-.14.31-.21.51-.21h5.55c.2,0,.37.07.52.21s.22.31.22.51v2.91c0,.2-.07.37-.22.52s-.32.22-.52.22h-4.95ZM74.85,6.72v.46c0,.08.04.12.12.12h4.07c.07,0,.1-.04.1-.12v-.46c0-.08-.04-.12-.1-.12h-4.07c-.08,0-.12.04-.12.12ZM74.85,8.37v.49c0,.08.04.12.12.12h4.07c.07,0,.1-.04.1-.12v-.49c0-.08-.04-.12-.1-.12h-4.07c-.08,0-.12.04-.12.12Z"/></g></svg>