<?xml version="1.0" encoding="UTF-8"?><svg id="_レイヤー_2" xmlns="http://www.w3.org/2000/svg" viewBox="0 0 51.55 66.38"><defs><style>.cls-1{stroke-width:.7px;}.cls-1,.cls-2{fill:none;stroke:#6ba;stroke-miterlimit:10;}.cls-2{stroke-width:2.5px;}</style></defs><g id="_イラスト"><rect class="cls-1" x="5.11" y="37.64" width="17.18" height="28.38" rx=".07" ry=".07"/><rect class="cls-1" x="28.4" y="37.64" width="18.05" height="28.38" rx=".07" ry=".07"/><path class="cls-1" d="M28.4,20.21v11.49s.03.07.07.07h22.67s.07-.03.07-.07v-11.63s-.03-.07-.07-.07l-22.67.14s-.07.03-.07.07ZM.35,20.08v11.63s.03.07.07.07h21.81s.07-.03.07-.07v-11.47s-.03-.07-.07-.07l-21.81-.16s-.07.03-.07.07ZM29.93,20.01c.67-.11,1.37-.28,2.1-.5,5.3-1.62,11.24-5.94,11.83-10.77.19-1.58-.06-4.56-3.91-6.87-3.55-2.13-6.44-1.63-8.23-.85-3.01,1.32-5.16,4.39-6.62,7.43-.02.05-.09.05-.11,0-1.47-3.04-3.61-6.11-6.62-7.43-1.79-.79-4.68-1.28-8.23.85-3.85,2.3-4.11,5.29-3.91,6.87.59,4.83,6.54,9.15,11.83,10.77.73.22,1.43.39,2.1.5M10.83,8.17c-.04-.33-.15-1.21,1.68-2.31,1.1-.66,1.97-.87,2.64-.87.56,0,.99.14,1.33.29,3.04,1.33,5.19,6.84,6.14,10.15,0,.02,0,.04-.01.06-.71.08-1.78,0-3.21-.44-4.2-1.28-8.29-4.56-8.57-6.88ZM27.46,15.49s0-.04-.01-.06c.95-3.31,3.1-8.81,6.14-10.15.34-.15.77-.29,1.33-.29.68,0,1.54.21,2.64.87,1.83,1.09,1.72,1.98,1.68,2.31-.28,2.32-4.37,5.6-8.57,6.88-1.43.44-2.51.51-3.21.44Z"/><rect class="cls-2" x="5.11" y="37.64" width="17.18" height="28.38" rx=".07" ry=".07"/><rect class="cls-2" x="28.4" y="37.64" width="18.05" height="28.38" rx=".07" ry=".07"/><path class="cls-2" d="M28.4,20.21v11.49s.03.07.07.07h22.67s.07-.03.07-.07v-11.63s-.03-.07-.07-.07l-22.67.14s-.07.03-.07.07ZM.35,20.08v11.63s.03.07.07.07h21.81s.07-.03.07-.07v-11.47s-.03-.07-.07-.07l-21.81-.16s-.07.03-.07.07ZM29.93,20.01c.67-.11,1.37-.28,2.1-.5,5.3-1.62,11.24-5.94,11.83-10.77.19-1.58-.06-4.56-3.91-6.87-3.55-2.13-6.44-1.63-8.23-.85-3.01,1.32-5.16,4.39-6.62,7.43-.02.05-.09.05-.11,0-1.47-3.04-3.61-6.11-6.62-7.43-1.79-.79-4.68-1.28-8.23.85-3.85,2.3-4.11,5.29-3.91,6.87.59,4.83,6.54,9.15,11.83,10.77.73.22,1.43.39,2.1.5M10.83,8.17c-.04-.33-.15-1.21,1.68-2.31,1.1-.66,1.97-.87,2.64-.87.56,0,.99.14,1.33.29,3.04,1.33,5.19,6.84,6.14,10.15,0,.02,0,.04-.01.06-.71.08-1.78,0-3.21-.44-4.2-1.28-8.29-4.56-8.57-6.88ZM27.46,15.49s0-.04-.01-.06c.95-3.31,3.1-8.81,6.14-10.15.34-.15.77-.29,1.33-.29.68,0,1.54.21,2.64.87,1.83,1.09,1.72,1.98,1.68,2.31-.28,2.32-4.37,5.6-8.57,6.88-1.43.44-2.51.51-3.21.44Z"/></g></svg>