<?xml version="1.0" encoding="UTF-8"?><svg id="_レイヤー_2" xmlns="http://www.w3.org/2000/svg" viewBox="0 0 178.33 28.49"><defs><style>.cls-1{fill:none;stroke:#fff;stroke-miterlimit:10;}.cls-2{fill:#fff;}.cls-3{fill:#231815;opacity:.4;}</style></defs><g id="_画像上"><rect class="cls-3" x="0" y=".1" width="178.33" height="28.39" rx="14.19" ry="14.19"/><path class="cls-2" d="M40.55,6.64c.23.02.41.12.54.29s.19.36.15.58c-.19,1.28-.44,2.41-.73,3.4-.03.1-.05.2-.05.31v9.86c0,.24-.08.44-.25.61-.17.17-.37.25-.61.25s-.44-.08-.61-.25-.25-.37-.25-.61v-6.39s0-.02-.03-.02-.03,0-.04.02c-.03.07-.08.16-.14.29-.06.12-.1.2-.13.24-.09.17-.23.24-.42.22-.19-.02-.32-.12-.39-.31l-.05-.14c-.2-.59-.15-1.17.15-1.75.91-1.73,1.55-3.68,1.94-5.85.05-.23.16-.41.33-.55.18-.14.38-.21.6-.2ZM42.58,21.94c-.24,0-.44-.08-.61-.25s-.26-.37-.26-.61V7.95c0-.26.09-.49.28-.68.19-.19.41-.29.67-.29h9.42c.26,0,.49.1.68.29.19.19.29.42.29.68v13.11c0,.25-.08.46-.26.63-.17.17-.38.25-.63.25h-.27c-.17,0-.32-.06-.44-.19-.12-.12-.19-.27-.19-.44,0-.06-.03-.08-.1-.08h-7.62c-.07,0-.1.03-.1.08,0,.17-.06.32-.19.44-.12.12-.27.19-.44.19h-.24ZM43.44,8.61v11.02c0,.1.05.15.15.15h7.51c.1,0,.15-.05.15-.15v-11.02c0-.09-.05-.14-.15-.14h-7.51c-.1,0-.15.05-.15.14ZM44.7,11.95c-.19,0-.36-.07-.49-.2-.14-.14-.2-.3-.2-.49s.07-.36.2-.49c.14-.14.3-.2.49-.2h1.65c.1,0,.15-.05.15-.15v-.73c0-.24.08-.44.25-.6.16-.16.37-.25.6-.25s.44.08.6.25c.16.16.25.37.25.6v.73c0,.1.05.15.15.15h1.65c.19,0,.36.07.49.2.14.14.2.3.2.49s-.07.36-.2.49c-.14.14-.3.2-.49.2h-1.65c-.1,0-.15.05-.15.15v1.44c0,.1.05.15.15.15h.83c.26,0,.49.1.68.29.19.19.29.42.29.68v3.21c0,.26-.1.49-.29.68-.19.19-.42.29-.68.29h-3.67c-.26,0-.49-.1-.68-.29-.19-.19-.29-.42-.29-.68v-3.21c0-.26.1-.49.29-.68.19-.19.42-.29.68-.29h.83c.1,0,.15-.05.15-.15v-1.44c0-.1-.05-.15-.15-.15h-1.65ZM48.36,15.07h-2.01c-.1,0-.15.05-.15.15v2.09c0,.09.05.14.15.14h2.01c.09,0,.14-.04.14-.14v-2.09c0-.1-.04-.15-.14-.15Z"/><path class="cls-2" d="M55,20.96c-.14-.19-.18-.4-.12-.61.06-.22.18-.39.37-.51,1.98-1.17,3.5-2.71,4.56-4.63,1.06-1.92,1.59-4.12,1.59-6.6v-1.02c0-.26.09-.48.28-.66.19-.18.4-.27.65-.27s.47.09.65.27c.19.18.28.4.28.66v1.02c0,2.48.53,4.68,1.6,6.6,1.06,1.92,2.59,3.47,4.57,4.63.19.12.32.29.37.51.06.21.02.42-.12.61-.15.2-.34.34-.58.41-.24.07-.47.04-.7-.08-1.34-.77-2.52-1.82-3.55-3.14-1.03-1.32-1.84-2.8-2.41-4.43-.02-.03-.05-.03-.08.02-.58,1.62-1.4,3.09-2.47,4.4-1.07,1.31-2.28,2.36-3.64,3.15-.23.12-.46.15-.7.08-.24-.07-.43-.2-.58-.41Z"/><path class="cls-2" d="M74.37,14.82c-.16.17-.36.26-.59.27s-.45-.06-.63-.22c-.17-.15-.26-.34-.27-.57-.01-.23.06-.43.22-.6,1.53-1.7,2.5-3.63,2.91-5.78.05-.24.17-.44.36-.59s.41-.23.65-.22c.24.02.44.12.6.3.16.18.21.38.17.62-.01.07-.03.17-.06.31-.03.14-.05.24-.06.31-.02.09.02.14.12.14h6.49c.26,0,.49.1.69.29.2.19.29.42.28.68-.08,3.51-.96,6.16-2.63,7.93-1.68,1.77-4.3,2.86-7.85,3.26-.23.02-.43-.04-.61-.18-.18-.14-.29-.33-.32-.55-.03-.21.01-.41.14-.59.13-.18.31-.27.54-.3,2.99-.37,5.17-1.24,6.54-2.58,1.37-1.35,2.13-3.42,2.3-6.21,0-.09-.04-.14-.14-.14h-5.9c-.09,0-.15.05-.19.14-.59,1.56-1.5,3-2.74,4.3Z"/><path class="cls-2" d="M91.88,15.23c-.25,0-.46-.09-.65-.27-.18-.18-.27-.4-.27-.66v-5.69c0-.26.09-.48.27-.66.18-.18.4-.27.65-.27s.49.09.67.28c.19.19.28.41.28.65v5.69c0,.25-.09.47-.28.65-.19.19-.41.28-.67.28ZM99.94,7.94c.19-.19.41-.28.67-.28s.48.09.67.28c.19.19.28.41.28.67v3.55c0,2.74-.61,4.83-1.84,6.26s-3.18,2.37-5.88,2.8c-.24.03-.46-.02-.65-.16-.2-.14-.33-.33-.38-.57-.05-.23,0-.43.13-.62.13-.19.31-.3.54-.35,2.3-.41,3.91-1.16,4.82-2.24s1.37-2.78,1.37-5.07v-3.6c0-.26.09-.48.28-.67Z"/><path class="cls-2" d="M107.45,20.16c-.23,0-.42-.08-.58-.24s-.24-.35-.24-.56c0-.23.08-.42.24-.58.16-.16.35-.24.58-.24h4.73c.1,0,.15-.05.15-.15v-8.21c0-.09-.05-.14-.15-.14h-4.22c-.23,0-.42-.08-.58-.24-.16-.16-.24-.35-.24-.58,0-.22.08-.4.24-.56.16-.16.35-.24.58-.24h10.61c.23,0,.42.08.58.24.16.16.24.35.24.56,0,.23-.08.42-.24.58-.16.16-.35.24-.58.24h-4.22c-.1,0-.15.05-.15.14v8.21c0,.1.05.15.15.15h4.73c.23,0,.42.08.58.24.16.16.24.35.24.58s-.08.4-.24.56c-.16.16-.35.24-.58.24h-11.63Z"/><path class="cls-2" d="M124.47,15.35c-.23.05-.43,0-.61-.14-.18-.14-.29-.32-.34-.56-.03-.23.01-.43.14-.61.13-.18.31-.29.54-.34,2.13-.39,4.2-1.06,6.2-2.02s3.71-2.11,5.13-3.43c.16-.16.35-.24.59-.23s.42.09.57.26c.16.18.23.39.22.63-.01.24-.1.44-.27.59-1.19,1.12-2.64,2.15-4.35,3.08-.07.03-.09.1-.07.19.01.05.02.12.02.24v7.26c0,.26-.09.49-.28.68-.19.19-.41.29-.67.29s-.48-.1-.67-.29c-.19-.19-.28-.42-.28-.68v-6.56c0-.1-.05-.13-.14-.08-1.85.82-3.75,1.39-5.71,1.73Z"/><path class="cls-2" d="M142.21,14.75c-.16.17-.35.26-.58.26-.23,0-.42-.07-.6-.23-.17-.15-.26-.33-.27-.56-.01-.23.06-.42.22-.6,1.48-1.65,2.44-3.6,2.86-5.83.04-.24.16-.43.34-.58.18-.15.39-.22.63-.2.23.02.42.12.57.3.15.18.21.38.18.6-.01.06-.03.15-.06.27-.03.12-.05.22-.06.29-.02.08.02.12.12.12h6.78c.26,0,.49.09.68.28s.29.41.29.67c-.05,3.65-.9,6.38-2.57,8.2-1.67,1.82-4.31,2.93-7.92,3.34-.23.02-.43-.03-.62-.17-.19-.14-.3-.32-.33-.54-.03-.21.02-.41.15-.59s.31-.28.53-.31c3.35-.42,5.71-1.47,7.05-3.16.07-.07.05-.12-.05-.17-1.58-.79-3-1.48-4.27-2.06-.21-.1-.36-.26-.44-.48-.08-.22-.06-.44.05-.65s.29-.36.54-.44c.24-.08.48-.07.71.03,1.38.62,2.82,1.31,4.3,2.06.08.05.14.02.19-.07.46-1.18.73-2.57.8-4.17,0-.1-.05-.15-.15-.15h-6c-.06,0-.1,0-.14-.02-.08-.01-.14.02-.19.1-.59,1.64-1.5,3.13-2.74,4.45Z"/><path class="cls-2" d="M158.18,15.18c-.25,0-.46-.08-.63-.26-.17-.17-.26-.38-.26-.63s.09-.46.26-.63.38-.25.63-.25h12.17c.25,0,.46.08.63.25s.25.38.25.63-.08.46-.25.63c-.17.17-.38.26-.63.26h-12.17Z"/><circle class="cls-3" cx="14.19" cy="14.19" r="14.19"/><rect class="cls-1" x="6.79" y="8.62" width="11.15" height="11.15"/><rect class="cls-1" x="19.62" y="10.36" width="1.97" height="7.67"/><rect class="cls-1" x="17.95" y="11.64" width="1.67" height="5.11"/><path class="cls-1" d="M14.76,12.7c-.96-.91-2.07-.49-2.39.32-.32-.81-1.43-1.23-2.39-.32-.93,2.26,2.39,4.07,2.39,4.07,0,0,3.32-1.82,2.39-4.07Z"/></g></svg>