<?xml version="1.0" encoding="UTF-8"?><svg id="_レイヤー_2" xmlns="http://www.w3.org/2000/svg" viewBox="0 0 157.85 28.39"><defs><style>.cls-1{fill:none;stroke:#fff;stroke-miterlimit:10;}.cls-2{fill:#fff;}.cls-3{fill:#231815;opacity:.4;}</style></defs><g id="_画像上"><rect class="cls-3" x="0" y="0" width="157.85" height="28.39" rx="14.19" ry="14.19"/><path class="cls-2" d="M36.74,21.01l-.03-.03c-.4-.44-.48-.97-.26-1.58.66-1.65.99-4.07.99-7.24v-3.28c0-.26.1-.49.29-.68s.42-.29.68-.29h4.88c.1,0,.15-.05.15-.15v-.66c0-.25.09-.46.27-.65s.4-.27.66-.27.48.09.66.27c.18.18.27.4.27.65v.66c0,.1.05.15.15.15h5.13c.2,0,.38.07.53.22.15.15.22.32.22.53s-.07.38-.22.53c-.15.15-.32.22-.53.22h-5.05s-.04.01-.05.03c-.01.02,0,.05.02.07.15.17.22.37.22.6v1.02c0,.09.05.14.15.14h4.54c.2,0,.38.07.53.22.15.15.22.32.22.53s-.07.38-.22.53c-.15.15-.32.22-.53.22h-4.54c-.1,0-.15.05-.15.15v1.73c0,.1.05.15.15.15h3.89c.26,0,.49.1.68.29.19.19.29.42.29.68v5.17c0,.25-.09.46-.26.65s-.39.27-.65.27h-.17c-.2,0-.38-.07-.52-.21-.14-.14-.21-.31-.21-.52,0-.08-.04-.12-.12-.12h-7.26c-.08,0-.12.04-.12.12,0,.2-.07.38-.21.52s-.31.21-.52.21h-.17c-.25,0-.46-.09-.65-.27s-.27-.4-.27-.65v-5.17c0-.26.1-.49.29-.68.19-.19.42-.29.68-.29h3.18c.1,0,.15-.05.15-.15v-4.54c0-.23.07-.43.22-.6.02-.02.03-.04.02-.07-.01-.02-.03-.03-.05-.03h-4.73c-.09,0-.14.05-.14.14v3.81c0,3.11-.46,5.62-1.39,7.53-.1.22-.27.33-.51.36-.24.02-.44-.05-.6-.22ZM48.78,16.27h-7.19c-.1,0-.15.05-.15.15v2.98c0,.1.05.15.15.15h7.19c.1,0,.15-.05.15-.15v-2.98c0-.1-.05-.15-.15-.15Z"/><path class="cls-2" d="M52.99,10.71l-.03-.15c-.12-.6.04-1.11.49-1.53.6-.57,1.16-1.16,1.67-1.79.4-.49.91-.73,1.53-.73s1.16.23,1.63.68c.43.43.99.92,1.67,1.46.19.16.32.36.38.6.06.24.04.47-.06.7-.09.19-.24.31-.46.37-.22.05-.4,0-.56-.13-.82-.69-1.64-1.5-2.48-2.43-.07-.07-.12-.07-.17,0-.74,1.02-1.56,1.97-2.48,2.86-.02.01-.03.03-.02.06s.03.04.05.04h1.44c.1,0,.15-.05.15-.15v-.58c0-.24.08-.44.25-.6.16-.16.37-.25.6-.25s.44.08.6.25.25.37.25.6v.58c0,.1.05.15.14.15h1.17c.19,0,.35.07.48.2.13.13.2.29.2.48s-.07.35-.2.48-.29.2-.48.2h-1.17c-.09,0-.14.05-.14.15v1.22c0,.1.05.15.14.15h1.61c.19,0,.36.07.49.2.14.14.2.3.2.49s-.07.36-.2.5c-.14.14-.3.21-.49.21h-5.47c-.19,0-.36-.07-.49-.21-.14-.14-.2-.31-.2-.5s.07-.36.2-.49.3-.2.49-.2h1.87c.1,0,.15-.05.15-.15v-1.22c0-.1-.05-.15-.15-.15h-.8c-.26,0-.49-.1-.68-.29-.19-.19-.29-.42-.29-.68v-.1s0-.04-.03-.05c-.02-.01-.04-.01-.06,0-.12.11-.27.14-.44.09-.17-.05-.27-.16-.31-.33ZM54.29,16.1h4.4c.26,0,.49.1.68.29.19.19.29.42.29.68v3.86c0,.23-.08.42-.25.59s-.36.25-.59.25h-.14c-.19,0-.36-.07-.49-.2-.14-.14-.2-.3-.2-.49,0-.07-.03-.1-.1-.1h-2.77c-.07,0-.1.03-.1.1,0,.19-.07.36-.2.49-.14.14-.3.2-.49.2h-.15c-.24,0-.44-.08-.6-.25s-.25-.37-.25-.6v-3.84c0-.26.1-.49.29-.68.19-.19.42-.29.68-.29ZM57.99,19.45v-1.84c0-.1-.05-.15-.15-.15h-2.67c-.1,0-.15.05-.15.15v1.84c0,.1.05.15.15.15h2.67c.1,0,.15-.05.15-.15ZM68.41,7.77c.28.14.43.36.43.66,0,.2-.07.38-.22.53-.15.15-.32.22-.53.22h-2.69c-.09,0-.14.05-.14.15v1.02c0,.1.04.15.14.15h2.16c.26,0,.49.09.68.28s.29.41.29.67v7.97c0,.46-.01.83-.03,1.1-.02.27-.06.5-.1.69-.05.19-.13.33-.26.4s-.27.12-.42.15c-.15.03-.37.04-.65.04-.03,0-.1,0-.2,0s-.18,0-.24,0c-.2-.01-.38-.09-.54-.23-.15-.14-.24-.31-.25-.52-.01-.18.05-.34.18-.48.13-.14.29-.2.48-.2.16,0,.25-.04.29-.11s.05-.31.05-.71v-1.29c0-.1-.05-.15-.14-.15h-1.29c-.09,0-.14.05-.14.15v2.33c0,.23-.08.42-.25.59-.16.16-.36.25-.59.25s-.42-.08-.59-.25c-.16-.16-.25-.36-.25-.59v-2.33c0-.1-.05-.15-.15-.15h-1.27c-.1,0-.15.05-.15.15v2.75c0,.23-.08.42-.24.59-.16.16-.35.25-.58.25s-.42-.08-.59-.25c-.16-.16-.25-.36-.25-.59v-9.55c0-.26.1-.48.29-.67s.42-.28.68-.28h2.11c.1,0,.15-.05.15-.15v-1.02c0-.1-.05-.15-.15-.15h-2.46c-.2,0-.38-.07-.53-.22-.15-.15-.22-.32-.22-.53s.07-.38.22-.52c.15-.14.32-.21.53-.21h2.46c.1,0,.15-.05.15-.15v-.39c0-.23.08-.42.25-.58.16-.16.36-.24.59-.24s.42.08.59.24c.16.16.25.35.25.58v.39c0,.1.04.15.14.15h.95s.04-.01.05-.04c.01-.03.01-.05,0-.08l-.36-.46c-.11-.14-.14-.29-.09-.46.05-.17.16-.28.33-.32.49-.15.89-.03,1.21.36.16.19.4.49.71.9.07.08.14.14.2.17ZM63.6,13.45v-1.39c0-.1-.05-.15-.15-.15h-1.27c-.1,0-.15.05-.15.15v1.39c0,.1.05.15.15.15h1.27c.1,0,.15-.05.15-.15ZM63.6,16.64v-1.58c0-.1-.05-.15-.15-.15h-1.27c-.1,0-.15.05-.15.15v1.58c0,.09.05.14.15.14h1.27c.1,0,.15-.04.15-.14ZM65.4,11.9c-.09,0-.14.05-.14.15v1.39c0,.1.04.15.14.15h1.29c.09,0,.14-.05.14-.15v-1.39c0-.1-.05-.15-.14-.15h-1.29ZM66.83,16.64v-1.58c0-.1-.05-.15-.14-.15h-1.29c-.09,0-.14.05-.14.15v1.58c0,.09.04.14.14.14h1.29c.09,0,.14-.04.14-.14Z"/><path class="cls-2" d="M71.68,10.96c-.23,0-.41-.07-.56-.22s-.22-.33-.22-.56.07-.41.22-.56.33-.22.56-.22h7.62c.09,0,.14-.05.14-.15v-1.62c0-.24.09-.44.26-.62.18-.18.38-.26.62-.26s.44.09.61.26c.17.18.25.38.25.62v1.62c0,.1.05.15.15.15h2.72c.23,0,.41.07.56.22.15.15.22.33.22.56s-.07.41-.22.56c-.15.15-.33.22-.56.22h-2.72c-.1,0-.15.05-.15.15v7.12c0,1.09-.14,1.77-.42,2.04s-.96.41-2.05.41c-.73,0-1.41-.03-2.04-.08-.23-.02-.41-.12-.56-.29-.15-.17-.22-.37-.2-.6.01-.21.1-.4.27-.54.17-.15.37-.21.6-.19.71.07,1.3.1,1.77.1.39,0,.63-.05.73-.15s.15-.35.15-.75v-5.27s-.01-.04-.03-.05c-.02-.01-.04-.01-.05,0-2.19,2.15-4.5,3.97-6.95,5.46-.19.11-.39.14-.6.08-.21-.06-.37-.19-.48-.38s-.14-.4-.08-.62.18-.39.37-.5c2.64-1.58,5.07-3.52,7.29-5.83.02-.02.03-.04,0-.07-.02-.02-.04-.03-.06-.03h-7.16Z"/><path class="cls-2" d="M88.61,15.08c-.25,0-.46-.08-.63-.26-.17-.17-.26-.38-.26-.63s.09-.46.26-.63.38-.25.63-.25h12.17c.25,0,.46.08.63.25s.26.38.26.63-.09.46-.26.63c-.17.17-.38.26-.63.26h-12.17Z"/><path class="cls-2" d="M105.4,11.98c-.24,0-.44-.08-.6-.25-.16-.16-.25-.37-.25-.6s.08-.44.25-.6.37-.25.6-.25h5.8c.1,0,.15-.05.15-.15v-2.23c0-.25.09-.47.27-.65.18-.19.4-.28.66-.28s.48.09.66.28.27.41.27.65v2.23c0,.1.05.15.15.15h4.61c.24,0,.44.08.6.25.16.16.25.37.25.6s-.08.44-.25.6-.37.25-.6.25h-4.61c-.1,0-.15.05-.15.15v.27c0,2.46-.44,4.33-1.33,5.63-.88,1.29-2.35,2.21-4.39,2.75-.24.07-.47.04-.69-.08-.22-.12-.38-.31-.47-.54-.08-.22-.07-.43.04-.63.11-.2.27-.33.48-.39,1.67-.45,2.83-1.18,3.48-2.18.66-1,.99-2.52.99-4.56v-.27c0-.1-.05-.15-.15-.15h-5.8Z"/><path class="cls-2" d="M122.61,15.08c-.25,0-.46-.08-.63-.26-.17-.17-.26-.38-.26-.63s.09-.46.26-.63.38-.25.63-.25h12.17c.25,0,.46.08.63.25s.26.38.26.63-.09.46-.26.63c-.17.17-.38.26-.63.26h-12.17Z"/><circle class="cls-3" cx="14.19" cy="14.19" r="14.19"/><rect class="cls-1" x="9.28" y="15.95" width="9.84" height="5.9"/><polygon class="cls-1" points="20.74 15.95 7.65 15.95 8.89 6.54 19.5 6.54 20.74 15.95"/><rect class="cls-1" x="10.41" y="12.34" width="7.58" height="1.61"/></g></svg>