<?xml version="1.0" encoding="UTF-8"?><svg id="_レイヤー_2" xmlns="http://www.w3.org/2000/svg" viewBox="0 0 157.85 28.39"><defs><style>.cls-1{stroke-miterlimit:10;}.cls-1,.cls-2{fill:none;stroke:#fff;}.cls-3{fill:#fff;}.cls-4{fill:#231815;opacity:.4;}.cls-2{stroke-linecap:round;stroke-linejoin:round;}</style></defs><g id="_画像上"><rect class="cls-4" x="0" y="0" width="157.85" height="28.39" rx="14.19" ry="14.19"/><path class="cls-3" d="M37.67,13.2c-.23-.04-.41-.16-.54-.35s-.18-.39-.14-.62c.04-.23.17-.41.37-.54.2-.14.41-.18.64-.14,1.61.29,2.91.54,3.91.75.23.05.4.16.53.36.12.19.16.4.12.63-.05.23-.16.41-.36.54-.19.13-.4.17-.63.13-.99-.2-2.28-.45-3.89-.75ZM49.67,9.65c.23.05.41.17.54.37.14.2.18.41.14.64-.67,3.16-1.92,5.52-3.76,7.08s-4.49,2.54-7.96,2.93c-.24.02-.45-.04-.65-.19-.19-.15-.31-.34-.34-.58-.03-.23.02-.43.16-.62s.33-.29.55-.31c3.13-.36,5.47-1.19,7.04-2.49,1.56-1.3,2.65-3.33,3.25-6.11.06-.24.18-.43.37-.57.19-.14.41-.19.65-.14ZM42.85,8.14c.23.05.41.16.54.36.14.19.18.4.14.63-.05.23-.17.41-.37.54-.2.13-.42.17-.65.13-1.46-.28-2.83-.53-4.1-.75-.23-.04-.41-.16-.54-.35-.13-.19-.17-.39-.13-.62.04-.23.16-.41.36-.55.19-.14.4-.19.63-.14.85.15,2.22.4,4.11.77Z"/><path class="cls-3" d="M54.97,9.58c-.23-.11-.38-.29-.45-.52-.07-.23-.05-.46.06-.69.11-.22.29-.36.54-.44.25-.08.49-.06.71.05,1.31.67,2.52,1.32,3.62,1.96.23.12.37.31.43.54.06.24.03.47-.09.7-.12.23-.31.37-.54.43-.24.06-.47.03-.7-.09-1.1-.63-2.29-1.28-3.59-1.94ZM66.7,9.36c.24.06.42.18.55.38.13.2.17.42.13.65-1.31,5.81-5.21,9.12-11.7,9.93-.25.03-.47-.03-.66-.18-.19-.15-.31-.35-.34-.6-.03-.24.02-.45.16-.64.14-.19.33-.3.57-.33,2.87-.39,5.13-1.27,6.8-2.67s2.82-3.36,3.45-5.9c.06-.23.19-.4.39-.53.2-.12.42-.16.65-.12Z"/><path class="cls-3" d="M71.82,14.73c-.16.17-.36.26-.6.27-.24.01-.45-.06-.63-.22-.17-.15-.26-.33-.27-.56-.01-.23.06-.42.2-.58,1.53-1.69,2.5-3.63,2.92-5.81.04-.24.16-.43.35-.59.19-.15.4-.22.65-.21.24.02.43.12.59.3.15.18.21.38.18.6-.01.08-.03.21-.07.39-.03.18-.06.31-.08.39-.02.09.01.14.1.14h6.38s.04,0,.05-.03,0-.04-.02-.06c-.03-.04-.06-.09-.08-.14-.39-.7-.61-1.12-.68-1.24-.09-.17-.11-.35-.05-.53s.17-.32.34-.41c.18-.09.37-.11.55-.05.19.06.33.17.42.34.4.71.63,1.13.7,1.26.09.17.11.35.05.54s-.18.33-.36.41c-.03.01-.11.03-.22.07-.02,0-.04.01-.04.04s0,.05.03.06c.18.17.27.4.27.68-.11,3.47-1.01,6.07-2.68,7.82-1.67,1.75-4.27,2.82-7.79,3.21-.23.02-.43-.04-.61-.18-.18-.14-.29-.33-.32-.55s.01-.43.14-.6c.13-.17.3-.27.52-.29,2.96-.36,5.12-1.21,6.49-2.53,1.37-1.33,2.15-3.35,2.35-6.09,0-.09-.04-.14-.14-.14h-5.78c-.09,0-.16.05-.2.15-.59,1.5-1.47,2.87-2.65,4.11ZM83.94,8.43c-.15-.28-.38-.71-.7-1.27-.09-.17-.11-.35-.06-.54s.17-.33.35-.41c.18-.09.37-.11.56-.05s.34.18.44.36c.32.57.55,1,.71,1.29.09.18.1.37.04.55s-.18.33-.37.42c-.18.08-.37.09-.56.03-.19-.06-.33-.18-.43-.37Z"/><path class="cls-3" d="M88.58,20.41c-.23.12-.46.16-.71.09-.25-.06-.44-.21-.58-.43-.12-.2-.15-.42-.08-.65.07-.23.2-.41.41-.54.65-.4,1.13-.88,1.44-1.44s.54-1.33.66-2.31c.12-.98.19-2.39.19-4.24v-2.46c0-.25.09-.47.27-.65s.4-.28.66-.28.48.09.66.28c.18.19.27.41.27.65v2.46c0,2.05-.1,3.68-.31,4.9-.2,1.21-.53,2.17-.98,2.86-.45.69-1.08,1.28-1.91,1.77ZM95.36,20.68c-.26.01-.49-.07-.67-.25-.19-.18-.28-.41-.28-.68v-11.32c0-.25.09-.47.28-.65.19-.19.41-.28.65-.28s.47.09.65.28c.19.19.28.41.28.65v10.29c0,.1.04.14.14.12,2.22-.51,3.56-2.22,4.01-5.12.03-.23.14-.41.33-.55.19-.14.39-.2.62-.16.24.03.43.14.58.32.15.18.2.39.17.63-.32,2.07-1.06,3.69-2.22,4.84-1.16,1.15-2.68,1.78-4.55,1.9Z"/><path class="cls-3" d="M105.26,9.58c-.23,0-.42-.08-.59-.25-.16-.16-.25-.36-.25-.59s.08-.42.25-.59c.17-.16.36-.25.59-.25h11.9c.23,0,.42.08.58.25.16.16.24.36.24.59,0,.65-.08,1.18-.25,1.6-.52,1.34-1.33,2.58-2.42,3.72-1.09,1.15-2.42,2.13-3.99,2.96-.08.05-.09.11-.03.19.75,1.09,1.24,1.81,1.46,2.16.15.22.19.45.14.7s-.2.44-.42.58c-.23.14-.46.18-.71.13-.24-.05-.44-.18-.59-.4-1.45-2.15-2.83-4.12-4.13-5.9-.15-.2-.2-.43-.15-.67.04-.24.17-.43.37-.57.21-.15.46-.2.72-.16.27.04.47.17.62.38.15.2.63.88,1.46,2.02.04.07.11.08.2.03,1.34-.68,2.52-1.55,3.56-2.6,1.04-1.05,1.76-2.12,2.18-3.21.02-.08,0-.12-.08-.12h-10.66Z"/><path class="cls-3" d="M121.29,11.66c-.22,0-.4-.08-.56-.24-.16-.16-.24-.35-.24-.58s.08-.42.23-.57c.15-.15.34-.23.57-.23h1.77c.1,0,.15-.05.15-.15v-1.96c0-.24.08-.44.25-.61s.37-.25.61-.25.44.08.62.25.26.37.26.61v1.96c0,.1.04.15.14.15h4.98c.1,0,.15-.05.15-.15v-1.9c0-.26.09-.48.26-.65.18-.18.39-.26.64-.26s.48.09.65.27.26.4.26.65v1.9c0,.1.05.15.15.15h2.28c.23,0,.42.08.57.23.15.15.23.34.23.57s-.08.42-.24.58c-.16.16-.35.24-.56.24h-2.28c-.1,0-.15.05-.15.14v.88c0,2.65-.56,4.6-1.67,5.86-1.11,1.25-3,2.05-5.68,2.39-.23.02-.43-.04-.62-.18-.19-.14-.3-.33-.35-.55-.05-.22,0-.41.13-.59.13-.18.3-.27.52-.3,2.24-.29,3.78-.92,4.61-1.87.83-.95,1.24-2.54,1.24-4.76v-.88c0-.09-.05-.14-.15-.14h-4.98c-.09,0-.14.05-.14.14v2.65c0,.24-.09.44-.26.61s-.38.25-.62.25-.44-.08-.61-.25-.25-.37-.25-.61v-2.65c0-.09-.05-.14-.15-.14h-1.77ZM132.41,6.51c.08-.18.22-.29.4-.35.18-.06.36-.04.54.05.18.09.31.23.37.41.05.16.12.39.22.68.1.29.18.52.24.68.06.18.04.36-.05.54-.09.18-.23.29-.42.35-.18.06-.36.04-.54-.05-.18-.09-.29-.23-.35-.43-.03-.1-.19-.55-.46-1.34-.06-.18-.04-.36.04-.54ZM135.87,6.39c.06.15.21.61.46,1.39.06.19.04.38-.06.56-.1.18-.24.29-.42.34-.19.06-.38.03-.55-.07-.18-.1-.29-.25-.35-.44-.05-.15-.12-.37-.24-.68s-.19-.54-.24-.7c-.07-.18-.06-.36.03-.54s.23-.29.42-.35c.19-.06.38-.04.56.05.18.09.31.23.37.42Z"/><path class="cls-3" d="M139.14,14.92c-.25,0-.46-.08-.63-.26-.17-.17-.25-.38-.25-.63s.08-.46.25-.63.38-.25.63-.25h12.17c.25,0,.46.08.63.25s.26.38.26.63-.09.46-.26.63c-.17.17-.38.26-.63.26h-12.17Z"/><circle class="cls-4" cx="14.19" cy="14.19" r="14.19"/><path class="cls-2" d="M17.77,15.77c-.45-.07-.85.18-1,.56-.15-.38-.55-.63-1-.56s-.79.55-.75,1.02c.1,1.22,1.75,2.12,1.75,2.12,0,0,1.64-.9,1.75-2.12.04-.47-.29-.94-.75-1.02Z"/><path class="cls-1" d="M15.38,14.83v-.77c1.83-.52,2.74-2.34,2.74-4.13,0-2.17-1.52-4.42-3.92-4.42s-3.92,2.25-3.92,4.42c0,1.8.91,3.61,2.74,4.13v.77c-2.66.55-4.61,3.67-4.61,5.73h11.59"/></g></svg>