<?xml version="1.0" encoding="UTF-8"?><svg id="_レイヤー_2" xmlns="http://www.w3.org/2000/svg" viewBox="0 0 140.33 28.39"><defs><style>.cls-1{fill:none;stroke:#fff;stroke-miterlimit:10;}.cls-2{fill:#fff;}.cls-3{fill:#231815;opacity:.4;}</style></defs><g id="_画像上"><rect class="cls-3" x="0" y="0" width="140.33" height="28.39" rx="14.19" ry="14.19"/><path class="cls-2" d="M37.56,21.46c-.22,0-.4-.07-.55-.22-.15-.15-.23-.33-.23-.56s.08-.41.23-.56c.15-.15.34-.22.55-.22h5.53c.1,0,.15-.05.15-.15v-3.54c0-.1-.05-.15-.15-.15h-4.01c-.21,0-.4-.07-.54-.22s-.22-.33-.22-.54.07-.4.22-.54.33-.22.54-.22h4.01c.1,0,.15-.04.15-.14v-2.91c0-.09-.05-.14-.15-.14h-5.19c-.21,0-.4-.08-.55-.23-.15-.15-.23-.34-.23-.55,0-.23.08-.42.23-.57.15-.15.34-.23.55-.23h12.55c.22,0,.4.08.55.23.15.15.23.34.23.57s-.08.4-.23.55c-.15.15-.34.23-.55.23h-5.18c-.1,0-.15.05-.15.14v2.91c0,.09.05.14.15.14h4.01c.21,0,.4.07.54.22s.22.33.22.54-.07.4-.22.54-.33.22-.54.22h-4.01c-.1,0-.15.05-.15.15v3.54c0,.1.05.15.15.15h5.52c.22,0,.4.07.55.22.15.15.23.33.23.56s-.08.41-.23.56c-.15.15-.34.22-.55.22h-13.23ZM41.91,6.46c1.62.28,3.33.71,5.12,1.27.22.07.37.2.46.41s.09.41,0,.61c-.09.23-.24.39-.46.48-.21.1-.43.1-.65.03-1.58-.51-3.26-.93-5.05-1.26-.22-.03-.38-.14-.49-.32-.11-.18-.13-.37-.05-.58.08-.23.23-.4.44-.53.21-.12.44-.16.68-.12Z"/><path class="cls-2" d="M53.99,10.83c-.21,0-.39-.07-.54-.22-.14-.15-.21-.33-.21-.54s.07-.4.21-.54c.14-.15.32-.22.54-.22h.75c.09,0,.15-.05.17-.14.02-.17.09-.77.2-1.79.02-.23.12-.42.3-.57s.38-.22.6-.21c.23.01.41.1.56.27s.21.36.19.58c-.02.17-.05.45-.09.83-.04.39-.07.67-.09.87-.02.1.02.15.12.15h.92c.26,0,.49.09.68.28.19.19.29.41.29.67-.01,2.65-.36,4.92-1.05,6.8-.03.09-.02.18.03.25.24.33.55.82.95,1.48.12.2.17.43.13.67s-.15.44-.33.6c-.16.15-.34.2-.54.16s-.36-.15-.46-.33c-.12-.22-.3-.52-.53-.9-.02-.02-.05-.03-.08-.03s-.06.01-.07.03c-.59,1-1.29,1.88-2.11,2.65-.16.15-.34.2-.55.16-.21-.04-.36-.16-.45-.35-.24-.48-.17-.92.22-1.33.74-.77,1.35-1.65,1.85-2.65.03-.07.02-.14-.03-.22-.27-.35-.47-.59-.6-.71-.01-.02-.03-.03-.06-.03s-.05.02-.06.04c-.06.16-.16.25-.31.28-.15.03-.29-.01-.42-.13l-.15-.15c-.41-.41-.52-.9-.34-1.46.39-1.19.72-2.57,1-4.13.02-.09-.02-.14-.12-.14h-.51ZM55.46,14.67c-.02.09,0,.17.07.24.29.29.52.52.66.68.02.02.05.03.08.03.03,0,.05-.02.06-.04.4-1.33.62-2.86.66-4.61,0-.09-.04-.14-.14-.14h-.41c-.09,0-.15.05-.17.14-.24,1.37-.51,2.61-.82,3.71ZM69.25,16.31c0,.2-.07.38-.21.52s-.31.21-.52.21c-.08,0-.12.04-.12.12v1.87c0,.94-.1,1.51-.29,1.71s-.73.3-1.62.3c-.24,0-.46,0-.66-.02-.2-.01-.38-.1-.53-.25-.15-.16-.23-.35-.24-.56-.01-.2.06-.37.21-.51.15-.14.33-.2.54-.19h.29c.29,0,.47-.02.52-.06.05-.04.08-.18.08-.42v-1.29c0-.1-.04-.15-.14-.15h-1.94c-.09,0-.14.05-.14.15v3.52c0,.25-.08.46-.25.63-.17.17-.38.26-.63.26s-.46-.08-.64-.26c-.18-.17-.26-.38-.26-.63v-3.52c0-.1-.05-.15-.15-.15h-1.62c-.1,0-.15.05-.15.15v2.5c0,.24-.08.44-.25.6-.16.16-.37.25-.6.25s-.44-.08-.6-.25c-.16-.16-.25-.37-.25-.6v-3.08c0-.08-.03-.12-.1-.12-.2,0-.38-.07-.53-.21-.15-.14-.22-.31-.22-.52v-1.7c0-.26.1-.49.29-.68.19-.19.42-.29.68-.29h9.08c.26,0,.49.1.68.29.19.19.29.42.29.68v1.7ZM66.51,11.51c.1,0,.15-.05.15-.14v-.56c0-.1-.05-.15-.15-.15h-6.41c-.18,0-.33-.06-.45-.18-.12-.12-.18-.27-.18-.45s.06-.33.18-.46c.12-.12.27-.19.45-.19h6.41c.1,0,.15-.05.15-.14v-.56c0-.1-.05-.15-.15-.15h-6.63c-.2,0-.38-.07-.53-.22-.15-.15-.22-.32-.22-.53s.07-.38.22-.52c.15-.14.32-.21.53-.21h7.63c.26,0,.49.09.68.28s.29.41.29.67v3.89c0,.26-.1.49-.29.68-.19.19-.42.29-.68.29h-7.7c-.19,0-.35-.06-.48-.2-.13-.13-.2-.29-.2-.48s.06-.35.2-.48c.13-.13.29-.2.48-.2h6.7ZM62.71,16.09v-.85c0-.1-.05-.15-.15-.15h-2.46c-.1,0-.15.05-.15.15v.85c0,.09.05.14.15.14h2.46c.1,0,.15-.05.15-.14ZM67.55,16.09v-.85c0-.1-.05-.15-.15-.15h-2.77c-.09,0-.14.05-.14.15v.85c0,.09.05.14.14.14h2.77c.1,0,.15-.05.15-.14Z"/><path class="cls-2" d="M77.87,15.59c-.26,0-.49-.1-.68-.29s-.29-.42-.29-.68v-.61c0-.26.1-.49.29-.68.19-.19.42-.29.68-.29h.61c.26,0,.49.1.68.29.19.19.29.42.29.68v.61c0,.26-.1.49-.29.68-.19.19-.42.29-.68.29h-.61Z"/><path class="cls-2" d="M89.21,9.86c-.23,0-.42-.08-.59-.25-.16-.16-.25-.36-.25-.59s.08-.42.25-.59c.16-.16.36-.25.59-.25h11.9c.23,0,.42.08.58.25.16.16.24.36.24.59,0,.65-.08,1.18-.25,1.6-.52,1.34-1.33,2.58-2.42,3.72-1.09,1.15-2.42,2.13-3.99,2.96-.08.05-.09.11-.03.19.75,1.09,1.24,1.81,1.46,2.16.15.22.19.45.14.7s-.2.44-.42.58c-.23.14-.46.18-.71.13-.24-.05-.44-.18-.59-.4-1.45-2.15-2.83-4.12-4.13-5.9-.15-.2-.2-.43-.15-.67.05-.24.17-.43.37-.57.22-.15.46-.2.72-.16.27.04.47.17.62.38.15.2.63.88,1.46,2.02.04.07.11.08.2.03,1.34-.68,2.53-1.55,3.56-2.6,1.04-1.05,1.77-2.12,2.18-3.21.02-.08,0-.12-.08-.12h-10.66Z"/><path class="cls-2" d="M106.21,9.86c-.23,0-.42-.08-.59-.25-.16-.16-.25-.36-.25-.59s.08-.42.25-.59c.16-.16.36-.25.59-.25h11.9c.23,0,.42.08.58.25.16.16.24.36.24.59,0,.65-.08,1.18-.25,1.6-.52,1.34-1.33,2.58-2.42,3.72-1.09,1.15-2.42,2.13-3.99,2.96-.08.05-.09.11-.03.19.75,1.09,1.24,1.81,1.46,2.16.15.22.19.45.14.7s-.2.44-.42.58c-.23.14-.46.18-.71.13-.24-.05-.44-.18-.59-.4-1.45-2.15-2.83-4.12-4.13-5.9-.15-.2-.2-.43-.15-.67.05-.24.17-.43.37-.57.22-.15.46-.2.72-.16.27.04.47.17.62.38.15.2.63.88,1.46,2.02.04.07.11.08.2.03,1.34-.68,2.53-1.55,3.56-2.6,1.04-1.05,1.77-2.12,2.18-3.21.02-.08,0-.12-.08-.12h-10.66Z"/><circle class="cls-3" cx="14.19" cy="14.19" r="14.19"/><polyline class="cls-1" points="19.75 12.64 19.75 21.47 8.64 21.47 8.64 12.64"/><polyline class="cls-1" points="23.14 15.68 14.19 6.92 5.25 15.68"/><path class="cls-1" d="M17.5,13.47c-1.32-1.25-2.83-.68-3.28.44-.44-1.12-1.96-1.69-3.28-.44-1.27,3.1,3.28,5.59,3.28,5.59,0,0,4.55-2.49,3.28-5.59Z"/></g></svg>