<?xml version="1.0" encoding="UTF-8"?><svg id="_レイヤー_2" xmlns="http://www.w3.org/2000/svg" viewBox="0 0 157.85 28.39"><defs><style>.cls-1{fill:none;stroke:#fff;stroke-miterlimit:10;}.cls-2{fill:#fff;}.cls-3{fill:#231815;opacity:.4;}</style></defs><g id="_画像上"><rect class="cls-3" x="0" y="0" width="157.85" height="28.39" rx="14.19" ry="14.19"/><path class="cls-2" d="M38.33,10.04c-.24,0-.44-.08-.6-.25-.16-.16-.25-.37-.25-.6s.08-.44.25-.6.37-.25.6-.25h11.02c.26,0,.49.1.69.29.2.19.29.42.28.68-.09,3.49-.97,6.17-2.63,8.02-1.67,1.86-4.19,3.02-7.57,3.49-.24.03-.45-.02-.65-.16-.19-.14-.31-.33-.36-.57-.05-.21,0-.42.14-.6s.33-.3.55-.33c2.8-.4,4.88-1.3,6.26-2.72,1.37-1.42,2.15-3.5,2.33-6.26,0-.09-.05-.14-.14-.14h-9.93Z"/><path class="cls-2" d="M56.47,15.23c-.25,0-.46-.09-.65-.27-.18-.18-.27-.4-.27-.66v-5.69c0-.26.09-.48.27-.66.18-.18.4-.27.65-.27s.48.09.67.28.28.41.28.65v5.69c0,.25-.09.47-.28.65s-.41.28-.67.28ZM64.53,7.94c.19-.19.41-.28.67-.28s.48.09.67.28.28.41.28.67v3.55c0,2.74-.61,4.83-1.84,6.26-1.22,1.43-3.18,2.37-5.88,2.8-.24.03-.46-.02-.65-.16-.2-.14-.33-.33-.38-.57-.05-.23,0-.43.13-.62s.31-.3.54-.35c2.3-.41,3.91-1.16,4.82-2.24.91-1.09,1.37-2.78,1.37-5.07v-3.6c0-.26.09-.48.28-.67Z"/><path class="cls-2" d="M71.77,15.18c-.25,0-.46-.08-.63-.26-.17-.17-.26-.38-.26-.63s.09-.46.26-.63.38-.25.63-.25h12.17c.25,0,.46.08.63.25s.26.38.26.63-.09.46-.26.63c-.17.17-.38.26-.63.26h-12.17Z"/><path class="cls-2" d="M88.94,13.92c-.22,0-.4-.08-.56-.24s-.24-.35-.24-.58.08-.42.24-.58c.16-.16.35-.24.56-.24h11.49c.27,0,.5.1.69.29s.27.42.26.7c-.26,4.65-3.51,7.26-9.74,7.84-.23.01-.43-.05-.61-.2s-.29-.33-.34-.55c-.03-.23.02-.43.15-.6.14-.17.31-.26.53-.27,4.84-.44,7.54-2.26,8.09-5.46.01-.03,0-.06-.03-.08-.03-.02-.07-.03-.1-.03h-10.39ZM90.23,7.92h9.25c.23,0,.42.08.58.24.16.16.24.35.24.56,0,.23-.08.42-.24.58s-.35.24-.58.24h-9.25c-.23,0-.42-.08-.58-.24-.16-.16-.24-.35-.24-.58s.08-.4.24-.56.35-.24.58-.24Z"/><path class="cls-2" d="M106.6,9.84c-.23-.11-.38-.29-.45-.52s-.05-.46.06-.69c.11-.22.29-.36.54-.44.25-.08.49-.06.71.05,1.31.67,2.52,1.32,3.62,1.96.23.12.37.31.43.54.06.24.03.47-.09.7-.12.23-.31.37-.54.43-.24.06-.47.03-.7-.09-1.1-.63-2.29-1.28-3.59-1.94ZM118.33,9.62c.24.06.42.18.55.38.13.2.17.42.13.65-1.31,5.81-5.21,9.12-11.7,9.93-.25.03-.47-.03-.66-.18-.19-.15-.31-.35-.34-.6-.03-.24.02-.45.16-.64.14-.19.33-.3.57-.33,2.87-.39,5.13-1.27,6.8-2.67,1.67-1.39,2.82-3.36,3.45-5.9.06-.23.19-.4.39-.53.2-.12.42-.16.65-.12Z"/><path class="cls-2" d="M122.26,11.74c-.22,0-.4-.08-.56-.24-.16-.16-.24-.35-.24-.58s.08-.42.23-.57c.15-.15.34-.23.57-.23h1.94c.1,0,.15-.05.15-.15v-1.96c0-.24.08-.44.25-.61s.37-.25.61-.25.44.08.62.25.26.37.26.61v1.96c0,.1.04.15.14.15h5.15c.1,0,.15-.05.15-.15v-1.9c0-.26.09-.48.26-.65.18-.18.39-.26.64-.26s.48.09.65.27c.18.18.26.4.26.65v1.9c0,.1.05.15.15.15h1.94c.23,0,.42.08.57.23.15.15.23.34.23.57s-.08.42-.24.58-.35.24-.56.24h-1.94c-.1,0-.15.05-.15.14v.88c0,2.65-.56,4.6-1.67,5.86s-3,2.05-5.68,2.39c-.23.02-.43-.04-.62-.18-.19-.14-.3-.33-.35-.55-.05-.21,0-.41.13-.59.13-.18.3-.27.52-.3,2.24-.29,3.78-.92,4.61-1.87.83-.95,1.24-2.54,1.24-4.76v-.88c0-.09-.05-.14-.15-.14h-5.15c-.09,0-.14.05-.14.14v2.65c0,.24-.09.44-.26.61s-.38.25-.62.25-.44-.08-.61-.25-.25-.37-.25-.61v-2.65c0-.09-.05-.14-.15-.14h-1.94Z"/><path class="cls-2" d="M139.77,15.18c-.25,0-.46-.08-.63-.26-.17-.17-.26-.38-.26-.63s.09-.46.26-.63.38-.25.63-.25h12.17c.25,0,.46.08.63.25s.26.38.26.63-.09.46-.26.63c-.17.17-.38.26-.63.26h-12.17Z"/><circle class="cls-3" cx="14.19" cy="14.19" r="14.19"/><rect class="cls-1" x="7.71" y="8.24" width="12.97" height="10.17" rx=".87" ry=".87"/><rect class="cls-1" x="10.75" y="18.41" width="6.89" height="1.74" rx=".7" ry=".7"/></g></svg>