<?xml version="1.0" encoding="UTF-8"?><svg id="_レイヤー_2" xmlns="http://www.w3.org/2000/svg" viewBox="0 0 140.33 28.49"><defs><style>.cls-1{fill:none;stroke:#fff;stroke-miterlimit:10;}.cls-2{fill:#fff;}.cls-3{fill:#231815;opacity:.4;}</style></defs><g id="_画像上"><rect class="cls-3" x="0" y=".1" width="140.33" height="28.39" rx="14.19" ry="14.19"/><path class="cls-2" d="M38.28,13.1c-.2.11-.42.14-.65.07-.23-.07-.39-.2-.49-.41-.11-.22-.13-.43-.06-.65.07-.22.21-.39.42-.52,1.97-1.12,3.79-2.39,5.44-3.81.49-.42,1.05-.63,1.68-.63h.34c.63,0,1.2.21,1.68.63,1.62,1.39,3.43,2.66,5.44,3.81.2.12.34.3.42.52.07.22.05.44-.06.65-.11.2-.28.34-.5.41-.22.07-.43.05-.64-.07-2.32-1.3-4.46-2.86-6.41-4.67-.07-.07-.14-.07-.2,0-1.95,1.81-4.09,3.37-6.41,4.67ZM39.65,13.77c.18-.18.39-.26.64-.26s.46.09.63.26c.17.18.25.39.25.64v5.88c0,.1.05.15.15.15h2.77c.1,0,.15-.05.15-.15v-8.67c0-.26.09-.48.26-.65s.39-.26.64-.26.48.09.65.26.26.39.26.65v2.98c0,.1.05.15.15.15h4.56c.22,0,.4.07.55.22s.23.33.23.54-.08.4-.23.54c-.15.15-.34.22-.55.22h-4.56c-.1,0-.15.05-.15.15v3.86c0,.1.05.15.15.15h5.35c.22,0,.4.07.55.22.15.15.23.33.23.56s-.08.41-.23.56c-.15.15-.34.22-.55.22h-13.57c-.22,0-.4-.07-.55-.22-.15-.15-.23-.33-.23-.56s.08-.41.23-.56c.15-.15.34-.22.55-.22h1.24c.09,0,.14-.05.14-.15v-5.88c0-.25.09-.46.26-.64Z"/><path class="cls-2" d="M55.43,22.01c-.21.08-.44.07-.66-.02-.23-.09-.4-.24-.51-.44-.1-.18-.11-.37-.03-.56.08-.19.22-.32.42-.37,2.11-.59,3.77-1.2,5-1.84.01-.01.02-.03.02-.04s-.01-.03-.03-.03h-4.35c-.19,0-.36-.07-.49-.21-.14-.14-.2-.31-.2-.5s.07-.36.2-.49c.14-.14.3-.2.49-.2h5.44c.1,0,.15-.05.15-.15v-.65c0-.09-.05-.14-.15-.14h-4.71c-.18,0-.34-.07-.47-.2-.13-.13-.2-.29-.2-.47s.07-.34.2-.47c.13-.13.29-.2.47-.2h4.71c.1,0,.15-.04.15-.14v-.65c0-.1-.05-.15-.15-.15h-5.29c-.19,0-.35-.06-.48-.2-.13-.13-.2-.29-.2-.48s.06-.35.2-.48c.13-.13.29-.2.48-.2h2.74c.1,0,.13-.05.08-.14-.15-.37-.38-.94-.7-1.68-.03-.09-.1-.14-.2-.14h-2.23c-.19,0-.36-.07-.5-.21s-.21-.31-.21-.5.07-.36.21-.51c.14-.15.31-.22.5-.22h1.1s.06-.01.08-.04c.02-.03.01-.05,0-.08-.24-.42-.37-.65-.39-.68-.11-.18-.14-.37-.07-.57s.2-.34.39-.42c.22-.09.44-.1.66-.03s.4.21.51.4c.22.34.46.77.73,1.27.03.09.11.14.22.14h.88c.09,0,.14-.05.14-.14v-1.33c0-.23.08-.42.25-.59.16-.16.36-.25.59-.25s.42.08.59.25c.16.16.25.36.25.59v1.33c0,.09.05.14.15.14h1.22c.1,0,.15-.05.15-.14v-1.33c0-.23.08-.42.25-.59.16-.16.36-.25.59-.25s.42.08.58.25c.16.16.24.36.24.59v1.33c0,.09.05.14.15.14h.97c.1,0,.18-.04.22-.12.12-.2.36-.62.7-1.24.1-.2.26-.35.48-.43.22-.08.43-.09.65-.03.2.07.35.2.42.39.08.19.07.39-.03.58-.04.09-.18.33-.41.73-.02.02-.03.05,0,.08.02.03.04.04.08.04h1.05c.19,0,.36.07.5.22.14.15.21.32.21.51s-.07.36-.21.5-.31.21-.5.21h-2.16c-.09,0-.16.05-.2.15-.26.67-.5,1.24-.73,1.7-.04.07-.02.1.08.1h2.7c.19,0,.35.07.48.2.13.13.2.29.2.48s-.06.35-.2.48c-.13.13-.29.2-.48.2h-5.29c-.1,0-.15.05-.15.15v.65c0,.09.05.14.15.14h4.71c.18,0,.34.07.47.2.13.13.2.29.2.47s-.07.34-.2.47c-.13.13-.29.2-.47.2h-4.71c-.1,0-.15.05-.15.14v.65c0,.1.05.15.15.15h5.44c.19,0,.36.07.49.2.14.14.2.3.2.49s-.07.36-.2.5c-.14.14-.3.21-.49.21h-4.35s-.03.03-.03.05c1.26.66,2.93,1.27,5.01,1.85.19.06.33.18.42.37.08.19.08.38-.03.56-.11.21-.28.37-.5.45-.22.08-.45.09-.67,0-2.19-.7-3.97-1.48-5.34-2.35-.07-.04-.1-.02-.1.07v1.82c0,.26-.09.48-.28.66-.19.18-.41.27-.65.27s-.47-.09-.65-.27c-.19-.18-.28-.4-.28-.66v-1.82s-.02-.06-.05-.08c-.03-.02-.06-.01-.08,0-1.39.87-3.16,1.65-5.3,2.35ZM60.29,12.74h3.01c.09,0,.16-.05.22-.14.35-.66.61-1.22.78-1.68.02-.09-.01-.14-.1-.14h-4.69s-.06.02-.08.05c-.02.03-.02.07,0,.1.32.75.54,1.31.68,1.68.03.08.1.12.19.12Z"/><path class="cls-2" d="M78.38,16.11c-.26,0-.49-.1-.68-.29-.19-.19-.29-.42-.29-.68v-.61c0-.26.1-.49.29-.68.19-.19.42-.29.68-.29h.61c.26,0,.49.1.68.29.19.19.29.42.29.68v.61c0,.26-.1.49-.29.68-.19.19-.42.29-.68.29h-.61Z"/><path class="cls-2" d="M88.24,12.8c-.17-.14-.27-.31-.3-.53s.03-.41.18-.58c.15-.17.33-.27.55-.3.22-.03.42.03.6.16.59.43,1.21.94,1.85,1.51.18.16.28.35.3.58.02.23-.05.43-.2.61-.15.17-.33.26-.55.28-.22.02-.42-.05-.59-.2-.71-.63-1.33-1.15-1.85-1.55ZM90.4,16.86c.08-.21.22-.37.43-.46.2-.09.41-.1.61-.02.22.09.37.24.48.45.1.21.11.42.03.64-.51,1.48-1.15,2.86-1.92,4.11-.12.2-.31.33-.54.38-.24.05-.46,0-.66-.13-.2-.14-.33-.32-.37-.55-.04-.23,0-.45.12-.65.69-1.14,1.3-2.4,1.84-3.77ZM89.01,9.07c-.17-.14-.27-.31-.3-.54s.03-.42.18-.59c.15-.18.33-.28.56-.31.23-.02.43.03.61.17.74.58,1.25,1,1.55,1.26.18.15.28.34.29.57.01.23-.06.44-.2.62-.15.17-.33.26-.55.28-.22.02-.42-.05-.59-.2-.4-.35-.91-.78-1.55-1.27ZM102.76,13.36c.23,0,.41.08.56.23.15.15.22.34.22.55s-.07.4-.22.55c-.15.15-.33.23-.56.23h-4.76c-.11,0-.18.04-.19.12-.5,1.62-1.08,3.23-1.73,4.83-.05.09-.02.14.07.14,1.61-.14,3.05-.28,4.32-.42.03,0,.06-.02.08-.05.02-.03.02-.07,0-.1-.32-.62-.66-1.29-1.04-1.99-.11-.2-.13-.41-.05-.63.08-.22.23-.37.44-.46.23-.09.46-.1.71-.02.24.08.42.23.54.44.76,1.42,1.46,2.81,2.11,4.18.1.23.11.45.02.66-.09.21-.25.37-.48.46-.23.09-.46.09-.69,0-.23-.1-.4-.25-.5-.47-.04-.09-.11-.24-.2-.44-.03-.1-.1-.14-.2-.12-3.09.41-5.99.67-8.69.78-.23.01-.42-.06-.58-.21-.16-.15-.24-.34-.25-.55-.01-.22.05-.4.2-.56s.32-.24.54-.25c.63-.02,1.1-.05,1.41-.07.09,0,.16-.05.2-.15.66-1.54,1.27-3.2,1.84-4.96.02-.09-.01-.14-.1-.14h-2.91c-.21,0-.4-.08-.55-.23-.15-.15-.23-.34-.23-.55s.08-.4.23-.55c.15-.15.34-.23.55-.23h3.74c.1,0,.15-.05.15-.15v-2.55c0-.1-.05-.15-.15-.15h-3.04c-.22,0-.39-.07-.54-.22-.14-.15-.21-.33-.21-.54s.07-.4.21-.54c.14-.15.32-.22.54-.22h3.04c.1,0,.15-.05.15-.15v-.76c0-.26.09-.48.27-.65.18-.18.4-.26.65-.26s.46.09.65.26c.18.18.27.39.27.65v.76c0,.1.04.15.14.15h3.3c.21,0,.4.07.54.22.15.15.22.33.22.54s-.07.4-.22.54c-.15.15-.33.22-.54.22h-3.3c-.09,0-.14.05-.14.15v2.55c0,.1.04.15.14.15h4.05Z"/><path class="cls-2" d="M105.43,21.5c-.14-.19-.18-.4-.12-.61.06-.22.18-.39.37-.51,1.98-1.17,3.5-2.71,4.56-4.63s1.59-4.12,1.59-6.6v-1.02c0-.26.09-.48.28-.66.19-.18.41-.27.65-.27s.47.09.65.27c.19.18.28.4.28.66v1.02c0,2.48.53,4.68,1.6,6.6s2.59,3.47,4.57,4.63c.19.12.32.29.37.51.06.21.02.42-.12.61-.15.2-.34.34-.58.41-.24.07-.47.04-.7-.08-1.34-.77-2.52-1.82-3.55-3.14s-1.84-2.8-2.41-4.43c-.02-.03-.05-.03-.08.02-.58,1.62-1.4,3.09-2.46,4.4-1.07,1.31-2.28,2.36-3.64,3.15-.23.12-.46.15-.7.08-.24-.07-.43-.2-.58-.41Z"/><circle class="cls-3" cx="14.19" cy="14.19" r="14.19"/><polygon class="cls-1" points="14.1 20.25 9.19 20.25 9.19 10.21 14.1 8.14 14.1 20.25"/><polygon class="cls-1" points="19.02 20.25 14.1 20.25 14.1 12.12 19.02 14.19 19.02 20.25"/><line class="cls-1" x1="6.79" y1="20.25" x2="21.6" y2="20.25"/></g></svg>