<?xml version="1.0" encoding="UTF-8"?><svg id="_レイヤー_2" xmlns="http://www.w3.org/2000/svg" viewBox="0 0 148.96 23.59"><defs><style>.cls-1{fill:#ff7bac;}.cls-2{fill:#6ba;}</style></defs><g id="_文字"><path d="M40.13,20.77c-.06-.01-.11-.04-.14-.09-.03-.05-.04-.1-.03-.17.01-.06.04-.11.09-.14s.1-.04.16-.03c.61.11,1.12.21,1.52.29.06.01.11.04.14.09.03.05.04.1.03.17s-.04.11-.09.14-.1.04-.16.03c-.68-.13-1.18-.23-1.52-.29ZM44.44,19.65c.06,0,.11.04.14.09s.05.1.04.17c-.23,1.13-.67,1.98-1.33,2.53s-1.6.91-2.85,1.04c-.06,0-.12,0-.17-.04-.05-.04-.08-.09-.08-.15,0-.06,0-.11.04-.16s.09-.07.15-.08c1.15-.12,2.02-.43,2.6-.92s.98-1.25,1.19-2.28c.01-.06.04-.11.09-.14.05-.04.1-.05.17-.04ZM42.22,19.25c.03.05.04.1.03.16-.01.06-.04.11-.09.14s-.11.04-.17.03c-.63-.12-1.16-.22-1.61-.29-.06,0-.1-.04-.14-.09s-.05-.1-.04-.16c.01-.06.04-.11.1-.14.05-.03.11-.05.17-.04.44.07.98.17,1.61.29.06.01.11.04.14.09Z"/><path d="M50.99,23.28c-.06,0-.1-.02-.14-.06-.04-.04-.06-.09-.06-.14s.02-.1.06-.14.09-.06.14-.06h2.31s.06-.02.06-.05l.19-2.38s-.02-.05-.05-.05h-2c-.05,0-.1-.02-.14-.06s-.06-.08-.06-.14.02-.1.06-.14.09-.06.14-.06h2.22c.09,0,.17.03.23.1.06.07.09.15.08.24l-.19,2.48s.02.05.05.05h.71c.06,0,.1.02.14.06s.06.09.06.14-.02.1-.06.14c-.04.04-.09.06-.14.06h-3.61Z"/><path d="M61.49,20.77c-.06-.01-.11-.04-.14-.09-.03-.05-.04-.1-.03-.17.01-.06.04-.11.09-.14s.1-.04.16-.03c.61.11,1.12.21,1.52.29.06.01.11.04.14.09.03.05.04.1.03.17s-.04.11-.09.14-.1.04-.16.03c-.68-.13-1.18-.23-1.52-.29ZM65.8,19.65c.06,0,.11.04.14.09s.05.1.04.17c-.23,1.13-.67,1.98-1.33,2.53s-1.6.91-2.85,1.04c-.06,0-.12,0-.17-.04-.05-.04-.08-.09-.08-.15,0-.06,0-.11.04-.16s.09-.07.15-.08c1.15-.12,2.02-.43,2.6-.92s.98-1.25,1.19-2.28c.01-.06.04-.11.09-.14.05-.04.1-.05.17-.04ZM63.58,19.25c.03.05.04.1.03.16-.01.06-.04.11-.09.14s-.11.04-.17.03c-.63-.12-1.16-.22-1.61-.29-.06,0-.1-.04-.14-.09s-.05-.1-.04-.16c.01-.06.04-.11.1-.14.05-.03.11-.05.17-.04.44.07.98.17,1.61.29.06.01.11.04.14.09Z"/><path d="M72.35,23.28c-.06,0-.1-.02-.14-.06-.04-.04-.06-.09-.06-.14s.02-.1.06-.14.09-.06.14-.06h2.31s.06-.02.06-.05l.19-2.38s-.02-.05-.05-.05h-2c-.05,0-.1-.02-.14-.06s-.06-.08-.06-.14.02-.1.06-.14.09-.06.14-.06h2.22c.09,0,.17.03.23.1.06.07.09.15.08.24l-.19,2.48s.02.05.05.05h.71c.06,0,.1.02.14.06s.06.09.06.14-.02.1-.06.14c-.04.04-.09.06-.14.06h-3.61Z"/><path d="M82.71,20.91c-.06,0-.11-.02-.15-.06s-.06-.09-.06-.15.02-.1.06-.15.09-.06.15-.06h4.08c.09,0,.17.03.24.1.07.07.1.15.09.24-.1,1.6-1.26,2.51-3.47,2.71-.06,0-.11,0-.16-.04-.05-.04-.08-.09-.08-.15,0-.06,0-.11.04-.15.04-.04.08-.07.14-.08,1.88-.18,2.89-.9,3.05-2.16,0-.04,0-.05-.04-.05h-3.88ZM83.17,18.96h3.34c.06,0,.11.02.15.06s.06.09.06.15-.02.1-.06.15c-.04.04-.09.06-.15.06h-3.34c-.06,0-.11-.02-.15-.06-.04-.04-.06-.09-.06-.15s.02-.1.06-.15.09-.06.15-.06Z"/><path d="M93.4,21.47c-.06,0-.11,0-.16-.04-.05-.03-.08-.08-.08-.14,0-.06,0-.11.04-.16.04-.05.08-.08.14-.08.78-.13,1.55-.38,2.29-.75.74-.37,1.36-.8,1.86-1.29.04-.04.09-.06.15-.06s.1.02.14.07.06.1.06.16-.02.11-.06.16c-.44.44-.98.84-1.61,1.18-.03.01-.04.04-.03.08v2.77c0,.07-.02.13-.07.17s-.11.07-.17.07-.12-.02-.17-.07-.07-.11-.07-.17v-2.53s-.02-.04-.05-.02c-.7.32-1.43.55-2.18.68Z"/><path d="M107.78,19.16s.02,0,.03-.02c0-.01,0-.02,0-.03-.11-.21-.2-.36-.26-.46-.03-.04-.04-.08-.02-.14.01-.05.04-.09.09-.11.04-.02.09-.03.14-.01.05.02.09.05.12.09.07.12.15.26.25.43.11.2.16.41.16.64-.04,1.19-.36,2.11-.95,2.74s-1.48,1.03-2.67,1.19c-.06,0-.11,0-.16-.04-.05-.04-.08-.08-.09-.14s0-.11.04-.16c.04-.05.08-.08.14-.08,1.06-.14,1.84-.49,2.36-1.03.51-.54.8-1.34.85-2.38,0-.04-.02-.05-.05-.05h-3.7c-.06,0-.11-.02-.16-.07-.04-.04-.07-.1-.07-.16s.02-.11.07-.15.1-.06.16-.06h3.74ZM108.68,19.13c-.12-.22-.23-.41-.32-.58-.03-.04-.03-.09-.02-.14.02-.05.05-.08.09-.11.05-.02.1-.03.15-.01.05.02.09.05.12.09.15.26.26.45.34.58.02.04.03.09,0,.14-.02.05-.05.08-.09.11-.05.02-.1.03-.15.01-.05-.02-.09-.05-.12-.1Z"/><path class="cls-1" d="M138.55,1.2l-2.92,11.04c-.25.96-1.05,1.6-2,1.69-1.69.17-3.76.16-4.33-1.84l-2.83-9.93c-.22-.78.2-1.51.89-1.76.88-.32,2.72-.34,3.64.08.05.02.09.05.13.08.44.32.83.75.98,1.32l1.52,5.4c.19.68,1.15.67,1.33,0l1.72-6.46c.13-.49.5-.68.99-.64.03,0,.06,0,.09.02.21.06.44.15.59.27.16.13.25.49.18.74Z"/><path class="cls-1" d="M118.57,11.95s.02.06.03.09c.13.63.09,1.86-.76,1.86l-7.95-.02c-.83,0-1.49-.66-1.67-1.4-.11-.47-.14-.9-.14-1.38V3.01c0-.48.03-.92.13-1.37.17-.79.83-1.37,1.66-1.43.65-.04,1.27-.04,1.94,0,.98.06,1.76.86,1.77,1.9l.03,8.52c0,.38.31.69.69.69h3.4c.42,0,.72.28.88.63Z"/><path class="cls-1" d="M125.32,11.27c0,1.19-.33,2.47-1.71,2.6-.68.06-1.34.06-2.06,0-.89-.07-1.71-.82-1.71-1.81V2.03c0-.99.82-1.75,1.71-1.82.7-.05,1.34-.05,2.01,0,.83.06,1.48.65,1.65,1.44.1.45.12.88.12,1.36v8.26Z"/><path class="cls-1" d="M145.87,11.28c1.47.08,2.2-1.07,2.91-.2s-.8,1.93-1.51,2.25c-2.44,1.1-5.83.92-7.36-1.51-.56-.89-.69-1.92-.6-2.96.13-1.66,1.16-3.03,2.74-3.61,1.86-.68,4.51-.63,6.08.81.86.78,1.01,2.11.27,3.01-.51.62-1.5.79-2.48.8-.87.01-.95,1.34-.07,1.4,0,0,.02,0,.03,0ZM144.95,8.36c.14-.34.21-.72.17-1.07-.05-.45-.68-.52-.81-.09-.08.27-.13.62-.15.96-.03.46.61.63.79.21Z"/><path class="cls-2" d="M25.47,12.16c.29.34.19.88-.21,1.07-1.09.51-2.16.83-3.41.62-2.53-.43-2.18-4.12-2.15-6.05,0-.12,0-.25-.03-.36-.08-.49-.81-.41-.82.09l-.03,4.56c0,.63-.36,1.32-.93,1.56-.94.4-2.05.41-2.97-.02-.59-.28-.91-1.02-.91-1.69V2.19c0-.7.32-1.44.94-1.72.92-.41,1.99-.4,2.91-.03.57.23.94.9.95,1.53l.03,2.91c0,.49.52.83.97.63,1.18-.54,2.34-.86,3.68-.33,2.47.98.15,4.82,1.98,6.98Z"/><path class="cls-2" d="M77.4,12.16c.29.34.19.88-.21,1.07-1.09.51-2.16.83-3.41.62-2.53-.43-2.18-4.12-2.15-6.05,0-.12,0-.25-.03-.36-.08-.49-.81-.41-.82.09l-.03,4.56c0,.63-.36,1.32-.93,1.56-.94.4-2.05.41-2.97-.02-.59-.28-.91-1.02-.91-1.69V2.19c0-.7.32-1.44.94-1.72.92-.41,1.99-.4,2.91-.03.57.23.94.9.95,1.53l.03,2.91c0,.49.52.83.97.63,1.18-.54,2.34-.86,3.68-.33,2.47.98.15,4.82,1.98,6.98Z"/><path class="cls-2" d="M5.58,8.02c.08,1.16.6,2.77,1.8,3.22.77.28,1.67.17,2.34-.3.59-.42,1.01-1.01,1.34-1.63.28-.54.79-.7,1.32-.43.37.19.61.54.44.97-.78,1.98-2.08,3.59-4.29,3.99-3.58.64-7.31-.78-8.24-4.54-.39-1.56-.39-3.16.01-4.71C.9,2.3,2.67.64,4.98.19c1.58-.31,3.18-.25,4.74.18,1.41.38,3.24,1.51,3.13,3.18-.05.8-.58,1.44-1.37,1.64-1.34.34-3.63.16-3.71-1.58-.03-.67,0-2.1-.72-2.22-.96-.16-1.24,1.05-1.34,1.84-.19,1.6-.23,3.18-.13,4.79Z"/><path class="cls-2" d="M49.24,9.45c0,.67.15,1.31.33,1.88.1.32.25.58.45.82.31.35.23.9-.2,1.09-1.54.69-3.52,1.13-4.68-.08-.19-.2-.55-.26-.79-.14-.34.17-.74.36-.74.36-1.53.74-3.9.98-4.71-.94-.68-1.61-.63-4.16-.38-5.86s2.11-1.86,3.43-1.54c.78.19,1.32.88,1.31,1.73-.01,1.02-.15,2.52.11,3.79.11.51.85.38.81-.13,0,0,0-.01,0-.02-.08-1.17-.06-2.32.04-3.48.07-.78.47-1.47,1.18-1.76.8-.33,1.66-.33,2.49-.09.73.21,1.31.88,1.32,1.68l.03,2.69Z"/><path class="cls-2" d="M101.17,9.45c0,.67.15,1.31.33,1.88.1.32.25.58.45.82.31.35.23.9-.2,1.09-1.54.69-3.52,1.13-4.68-.08-.19-.2-.55-.26-.79-.14-.34.17-.74.36-.74.36-1.53.74-3.9.98-4.71-.94-.68-1.61-.63-4.16-.38-5.86s2.11-1.86,3.43-1.54c.78.19,1.32.88,1.31,1.73-.01,1.02-.15,2.52.11,3.79.11.51.85.38.81-.13,0,0,0-.02,0-.02-.08-1.17-.06-2.32.04-3.47.07-.78.47-1.47,1.18-1.76.8-.33,1.66-.33,2.49-.09.73.21,1.31.88,1.32,1.68l.03,2.69Z"/><path class="cls-2" d="M35.05,13.24c-1.84.94-4.85,1.06-6.69-.04-1.17-.7-1.91-1.83-2.03-3.2-.09-.95,0-1.89.46-2.74,1.49-2.75,5.32-2.85,7.81-1.88,1.77.69,2.72,2.25,2.7,4.1-.02,1.63-.77,3.01-2.25,3.75ZM31.14,12.37c.14.27.53.28.69.03.13-.19.21-.44.24-.63.1-.76.38-4.13-.2-5.27-.15-.29-.55-.32-.72-.05-.15.24-.22.55-.25.83-.06.58-.31,4.01.24,5.08Z"/><path class="cls-2" d="M86.98,13.24c-1.84.94-4.85,1.06-6.69-.04-1.17-.7-1.91-1.83-2.03-3.2-.09-.95,0-1.89.46-2.74,1.49-2.75,5.32-2.85,7.81-1.88,1.77.69,2.72,2.25,2.7,4.1-.02,1.63-.77,3.01-2.25,3.75ZM83.07,12.37c.14.27.53.28.69.03.13-.19.21-.44.24-.63.1-.76.38-4.13-.2-5.27-.15-.29-.55-.32-.72-.04-.15.24-.22.55-.25.83-.06.58-.31,4.01.24,5.08Z"/><path class="cls-2" d="M62.21,10.8c1.26.64,1.72-.76,2.52.02.3.29.38.71.16,1.12-1.15,2.15-4.35,2.46-6.45,1.58-1.5-.63-2.43-1.91-2.59-3.52-.1-1.07,0-2.12.55-3.04,1.25-2.11,4.04-2.41,6.25-1.88.63.15,1.21.45,1.7.86.37.31.38.77.18,1.16s-.62.48-1.09.37c-.66-.15-1.4-.02-1.8.55-.52.75-.42,2.28.57,2.78Z"/></g></svg>