<?xml version="1.0" encoding="UTF-8"?><svg id="_レイヤー_2" xmlns="http://www.w3.org/2000/svg" viewBox="0 0 319 44.25"><defs><style>.cls-1{fill:#ff7bac;}.cls-2{fill:#6ba;}</style></defs><g id="_文字"><path d="M106.42,39.9c-.09-.02-.17-.07-.22-.14-.05-.08-.07-.16-.05-.25.02-.09.06-.17.14-.22s.16-.07.25-.05c.94.17,1.72.32,2.35.44.09.02.17.07.22.14.05.08.07.16.05.25-.02.09-.07.17-.14.22s-.16.07-.25.05c-1.04-.2-1.83-.35-2.35-.44ZM113.07,38.16c.09.01.17.06.22.13.06.08.07.16.06.25-.36,1.75-1.04,3.05-2.05,3.92-1.01.86-2.48,1.4-4.4,1.61-.1.01-.18-.01-.26-.07-.07-.06-.12-.14-.13-.24-.01-.09.01-.17.07-.25s.13-.11.23-.13c1.78-.19,3.12-.67,4.02-1.42.9-.76,1.52-1.93,1.84-3.53.02-.09.06-.17.14-.22s.16-.08.26-.06ZM109.66,37.54c.05.08.06.16.05.25-.02.09-.07.16-.14.21-.08.05-.16.06-.25.05-.97-.19-1.8-.34-2.48-.45-.09-.01-.16-.06-.21-.13-.06-.08-.07-.16-.06-.25.02-.09.07-.17.15-.22.08-.05.17-.07.26-.06.69.11,1.51.26,2.48.45.09.02.16.07.21.14Z"/><path d="M123.2,43.77c-.09,0-.16-.03-.22-.09-.06-.06-.09-.13-.09-.21s.03-.15.09-.21c.06-.06.14-.09.22-.09h3.57c.06,0,.09-.03.09-.08l.29-3.67c0-.06-.02-.08-.07-.08h-3.09c-.08,0-.15-.03-.21-.09-.06-.06-.09-.13-.09-.22s.03-.16.09-.22c.06-.06.13-.09.21-.09h3.43c.14,0,.26.05.36.16s.14.23.12.37l-.29,3.84c0,.06.02.08.07.08h1.1c.09,0,.16.03.22.09s.09.13.09.21-.03.15-.09.21-.14.09-.22.09h-5.58Z"/><path d="M139.41,39.9c-.09-.02-.17-.07-.22-.14-.05-.08-.07-.16-.05-.25.02-.09.06-.17.14-.22s.16-.07.25-.05c.94.17,1.72.32,2.35.44.09.02.17.07.22.14.05.08.07.16.05.25-.02.09-.07.17-.14.22s-.16.07-.25.05c-1.04-.2-1.83-.35-2.35-.44ZM146.06,38.16c.09.01.17.06.22.13.06.08.07.16.06.25-.36,1.75-1.04,3.05-2.05,3.92-1.01.86-2.48,1.4-4.4,1.61-.1.01-.18-.01-.26-.07-.07-.06-.12-.14-.13-.24-.01-.09.01-.17.07-.25s.13-.11.23-.13c1.78-.19,3.12-.67,4.02-1.42.9-.76,1.52-1.93,1.84-3.53.02-.09.06-.17.14-.22s.16-.08.26-.06ZM142.64,37.54c.05.08.06.16.05.25-.02.09-.07.16-.14.21-.08.05-.16.06-.25.05-.97-.19-1.8-.34-2.48-.45-.09-.01-.16-.06-.21-.13-.06-.08-.07-.16-.06-.25.02-.09.07-.17.15-.22.08-.05.17-.07.26-.06.69.11,1.51.26,2.48.45.09.02.16.07.21.14Z"/><path d="M156.19,43.77c-.09,0-.16-.03-.22-.09-.06-.06-.09-.13-.09-.21s.03-.15.09-.21c.06-.06.14-.09.22-.09h3.57c.06,0,.09-.03.09-.08l.29-3.67c0-.06-.02-.08-.07-.08h-3.09c-.08,0-.15-.03-.21-.09-.06-.06-.09-.13-.09-.22s.03-.16.09-.22c.06-.06.13-.09.21-.09h3.43c.14,0,.26.05.36.16s.14.23.12.37l-.29,3.84c0,.06.02.08.07.08h1.1c.09,0,.16.03.22.09s.09.13.09.21-.03.15-.09.21-.14.09-.22.09h-5.58Z"/><path d="M172.18,40.11c-.09,0-.16-.03-.23-.1-.06-.06-.1-.14-.1-.23s.03-.16.1-.23c.07-.06.14-.1.23-.1h6.3c.14,0,.26.05.37.16.1.11.15.23.14.37-.16,2.48-1.95,3.87-5.37,4.19-.09.01-.18-.01-.25-.07-.07-.06-.12-.13-.13-.23-.01-.09,0-.16.06-.23.06-.07.13-.11.21-.12,2.9-.27,4.47-1.38,4.72-3.34.01-.06,0-.08-.06-.08h-6ZM172.89,37.1h5.15c.09,0,.16.03.23.1.07.06.1.14.1.23s-.03.16-.1.23c-.06.06-.14.1-.23.1h-5.15c-.09,0-.16-.03-.23-.1s-.1-.14-.1-.23.03-.16.1-.23c.06-.06.14-.1.23-.1Z"/><path d="M188.68,40.97c-.09.01-.18,0-.25-.06s-.12-.13-.13-.22c-.01-.09,0-.18.07-.25s.13-.12.21-.13c1.21-.2,2.39-.59,3.54-1.15,1.15-.57,2.1-1.23,2.87-2,.07-.06.14-.09.23-.09s.16.03.22.1c.06.07.09.15.09.24s-.03.17-.09.24c-.69.69-1.52,1.29-2.49,1.83-.04.02-.06.06-.05.12v4.27c0,.1-.04.19-.11.27-.07.07-.16.11-.27.11s-.19-.04-.26-.11c-.07-.07-.11-.16-.11-.27v-3.91s-.03-.06-.08-.04c-1.09.5-2.21.85-3.37,1.05Z"/><path d="M210.9,37.41s.03,0,.04-.03c0-.02,0-.03,0-.05-.17-.32-.31-.56-.4-.71-.04-.06-.05-.13-.03-.21.02-.08.07-.13.13-.17s.14-.04.22-.02c.08.02.14.07.18.14.11.19.24.41.38.67.17.31.25.64.24.99-.07,1.84-.56,3.25-1.47,4.23s-2.28,1.6-4.12,1.84c-.09.01-.18,0-.25-.06-.07-.06-.12-.13-.14-.22-.02-.09,0-.18.06-.25.06-.07.13-.12.22-.13,1.63-.22,2.84-.75,3.64-1.59s1.23-2.06,1.31-3.67c0-.06-.03-.08-.07-.08h-5.72c-.09,0-.17-.03-.24-.1-.07-.07-.1-.15-.1-.24s.03-.17.1-.24c.07-.06.15-.1.24-.1h5.77ZM212.29,37.37c-.19-.33-.35-.63-.5-.89-.04-.07-.05-.14-.03-.21s.07-.13.14-.17c.07-.04.15-.04.23-.02s.14.07.18.14c.23.4.41.7.52.9.04.07.04.14.01.21-.03.07-.08.13-.14.17-.07.04-.15.04-.23.02s-.14-.07-.18-.15Z"/><path class="cls-1" d="M296.72,2.57l-6.25,23.63c-.55,2.06-2.24,3.42-4.27,3.62-3.62.36-8.05.34-9.27-3.94l-6.06-21.25c-.48-1.67.42-3.23,1.91-3.77,1.91-.7,5.92-.72,7.87.2.06.03.11.06.16.1.97.7,1.82,1.63,2.17,2.86l3.84,13.65c.24.87,1.47.86,1.71-.01l4.24-15.93c.28-1.05,1.06-1.46,2.12-1.37.07,0,.13.02.19.04.44.13.95.32,1.26.57.34.27.53,1.06.39,1.59Z"/><path class="cls-1" d="M253.93,25.6c.03.06.05.13.06.2.28,1.35.2,3.98-1.64,3.98l-17.02-.04c-1.78,0-3.2-1.42-3.57-3-.24-1.01-.3-1.92-.3-2.96V6.45c0-1.02.07-1.98.28-2.94.37-1.69,1.79-2.94,3.55-3.06,1.39-.09,2.73-.09,4.15,0,2.09.13,3.77,1.84,3.78,4.07l.07,18.85c0,.49.4.88.88.88h7.87c.9.01,1.54.6,1.89,1.36Z"/><path class="cls-1" d="M268.36,24.14c0,2.55-.71,5.3-3.67,5.56-1.47.13-2.87.13-4.4.01-1.9-.14-3.67-1.75-3.67-3.87V4.35c0-2.12,1.75-3.74,3.65-3.89,1.49-.11,2.86-.11,4.3,0,1.77.12,3.16,1.4,3.53,3.09.2.96.27,1.89.27,2.91v17.68Z"/><path class="cls-1" d="M312.39,24.17c3.15.17,4.7-2.3,6.22-.42,1.5,1.85-1.71,4.13-3.23,4.81-5.22,2.36-12.49,1.97-15.76-3.23-1.2-1.91-1.47-4.11-1.3-6.33.29-3.57,2.48-6.48,5.88-7.73,3.98-1.46,9.65-1.35,13.03,1.73,1.83,1.67,2.17,4.51.57,6.45-1.5,1.83-4.95,1.82-7.64,1.66-.7-.04-1.18.72-.82,1.32.59.99,1.7,1.67,3.05,1.74ZM310.41,17.91c.31-.73.44-1.53.36-2.3-.1-.96-1.45-1.11-1.73-.19-.17.59-.27,1.33-.32,2.05-.07.99,1.3,1.36,1.69.44Z"/><path class="cls-2" d="M55.01,26.53c.45.43.37,1.16-.18,1.44-2.58,1.31-5.08,2.19-8.04,1.68-5.41-.93-4.67-8.82-4.61-12.96,0-.26-.01-.53-.06-.78-.17-1.04-1.74-.87-1.75.18l-.07,9.76c0,1.35-.77,2.82-1.99,3.33-2,.85-4.39.89-6.36-.04-1.27-.59-1.94-2.18-1.94-3.62V4.69c0-1.5.68-3.09,2.01-3.69,1.96-.88,4.26-.86,6.24-.06,1.22.5,2.02,1.93,2.04,3.27l.08,7.16c0,.65.68,1.07,1.26.79,2.82-1.36,5.5-2.33,8.68-1.07,5.49,2.17-.05,10.93,4.71,15.43Z"/><path class="cls-2" d="M166.22,26.53c.45.43.37,1.16-.18,1.44-2.58,1.31-5.08,2.19-8.04,1.68-5.41-.93-4.67-8.82-4.61-12.96,0-.26-.01-.53-.06-.78-.17-1.04-1.74-.87-1.75.18l-.07,9.76c0,1.35-.77,2.82-1.99,3.33-2,.85-4.39.89-6.36-.04-1.27-.59-1.94-2.18-1.94-3.62V4.69c0-1.5.68-3.09,2.01-3.69,1.96-.88,4.26-.86,6.24-.06,1.22.5,2.02,1.93,2.04,3.27l.08,7.16c0,.65.68,1.07,1.26.79,2.82-1.36,5.5-2.33,8.68-1.07,5.49,2.17-.05,10.93,4.71,15.43Z"/><path class="cls-2" d="M11.96,17.18c.16,2.49,1.28,5.94,3.86,6.89,1.66.61,3.57.37,5.02-.64,1.27-.89,2.16-2.17,2.87-3.5.61-1.15,1.68-1.5,2.83-.91.78.4,1.3,1.15.94,2.08-1.67,4.23-4.46,7.69-9.19,8.54-7.66,1.38-15.65-1.67-17.65-9.73-.83-3.34-.84-6.77.03-10.08C1.93,4.93,5.73,1.37,10.67.41c3.39-.66,6.8-.53,10.14.37,3.01.81,6.95,3.23,6.71,6.81-.12,1.72-1.25,3.09-2.93,3.51-2.88.73-7.77.34-7.95-3.38-.07-1.43-.01-4.49-1.55-4.76-2.06-.35-2.66,2.25-2.86,3.94-.4,3.43-.49,6.81-.27,10.26Z"/><path class="cls-2" d="M105.46,20.24c.01,1.42.32,2.8.71,4.03.3.94.79,1.67,1.5,2.28.48.41.35,1.18-.21,1.45-3.48,1.7-8.39,3.05-11-.08-.26-.31-.7-.41-1.06-.23l-1.98.96c-3.27,1.59-8.35,2.1-10.09-2.01-1.46-3.44-1.34-8.9-.81-12.54.52-3.58,4.52-3.98,7.34-3.3,1.68.41,2.84,1.88,2.81,3.7-.03,2.18-.33,5.4.24,8.11.23,1.08,1.82.82,1.74-.28,0-.02,0-.03,0-.05-.16-2.5-.14-4.96.08-7.44.14-1.66,1.01-3.15,2.52-3.76,1.72-.7,3.55-.71,5.33-.19,1.57.46,2.8,1.89,2.82,3.59l.06,5.77Z"/><path class="cls-2" d="M216.67,20.24c.01,1.42.32,2.8.71,4.03.3.94.79,1.67,1.5,2.28.48.41.35,1.18-.21,1.45-3.48,1.7-8.39,3.05-11-.08-.26-.31-.7-.41-1.06-.23l-1.98.96c-3.27,1.59-8.35,2.1-10.09-2.01-1.46-3.44-1.34-8.9-.81-12.54.52-3.58,4.52-3.98,7.34-3.3,1.68.41,2.84,1.88,2.81,3.7-.03,2.18-.33,5.41.24,8.11.23,1.08,1.82.82,1.74-.28,0-.02,0-.03,0-.05-.16-2.5-.14-4.96.08-7.44.14-1.66,1.01-3.15,2.52-3.76,1.72-.7,3.55-.71,5.33-.19,1.57.46,2.8,1.89,2.82,3.59l.06,5.77Z"/><path class="cls-2" d="M75.06,28.36c-3.95,2.01-10.38,2.28-14.33-.08-2.5-1.5-4.08-3.92-4.35-6.85-.19-2.03,0-4.05.99-5.87,3.19-5.88,11.39-6.1,16.72-4.02,3.79,1.48,5.83,4.82,5.78,8.77-.05,3.48-1.66,6.44-4.81,8.04ZM66.68,26.49c.3.57,1.13.61,1.49.07.27-.41.46-.94.51-1.35.22-1.62.8-8.84-.43-11.29-.31-.62-1.18-.69-1.55-.1-.32.51-.48,1.18-.54,1.78-.13,1.25-.67,8.59.52,10.89Z"/><path class="cls-2" d="M186.27,28.36c-3.95,2.01-10.39,2.28-14.33-.08-2.5-1.5-4.08-3.92-4.35-6.85-.18-2.03,0-4.05.99-5.87,3.19-5.88,11.39-6.1,16.72-4.02,3.79,1.48,5.83,4.82,5.78,8.77-.05,3.48-1.66,6.44-4.81,8.04ZM177.89,26.49c.3.57,1.13.61,1.49.07.27-.41.46-.94.51-1.35.22-1.62.8-8.84-.43-11.29-.32-.62-1.18-.69-1.55-.1-.32.51-.48,1.18-.54,1.78-.13,1.25-.67,8.59.52,10.89Z"/><path class="cls-2" d="M133.23,23.12c2.71,1.38,3.68-1.63,5.39.05.63.62.81,1.51.33,2.4-2.47,4.6-9.31,5.27-13.8,3.38-3.21-1.35-5.21-4.1-5.54-7.54-.22-2.28,0-4.53,1.18-6.52,2.69-4.53,8.65-5.16,13.38-4.03,1.35.32,2.6.97,3.64,1.84.79.66.82,1.66.38,2.49s-1.33,1.03-2.33.8c-1.41-.32-3-.04-3.85,1.19-1.11,1.61-.89,4.87,1.21,5.95Z"/></g></svg>