<?xml version="1.0" encoding="UTF-8"?><svg id="_レイヤー_2" xmlns="http://www.w3.org/2000/svg" viewBox="0 0 550.83 51.74"><defs><style>.cls-1{fill:#fff;}</style></defs><g id="_文字"><path class="cls-1" d="M512.35,4.43l-10.8,40.81c-.94,3.56-3.87,5.91-7.38,6.25-6.25.62-13.9.59-16.01-6.8l-10.46-36.7c-.82-2.89.73-5.57,3.3-6.51,3.31-1.2,10.23-1.24,13.58.35.1.05.19.1.28.17,1.67,1.2,3.14,2.82,3.74,4.95l6.64,23.57c.42,1.49,2.55,1.48,2.94-.02l7.32-27.51c.48-1.82,1.84-2.51,3.65-2.36.11,0,.23.03.33.06.76.22,1.64.56,2.18.99.59.47.92,1.82.67,2.75Z"/><path class="cls-1" d="M438.47,44.2c.05.11.09.22.11.34.49,2.33.34,6.88-2.83,6.87l-29.4-.07c-3.08,0-5.52-2.46-6.16-5.17-.41-1.74-.53-3.32-.53-5.11V11.13c0-1.77.12-3.42.49-5.08.64-2.92,3.09-5.08,6.13-5.28,2.39-.16,4.71-.16,7.17,0,3.61.23,6.52,3.18,6.53,7.02l.12,32.55c0,.84.68,1.52,1.52,1.52l13.58.02c1.56,0,2.66,1.01,3.26,2.33Z"/><path class="cls-1" d="M463.4,41.68c0,4.4-1.23,9.15-6.33,9.61-2.53.23-4.96.22-7.6.02-3.27-.24-6.34-3.02-6.34-6.68V7.51c0-3.65,3.03-6.46,6.31-6.71,2.57-.2,4.94-.19,7.42-.01,3.06.22,5.46,2.41,6.09,5.34.35,1.65.46,3.27.46,5.02v30.53Z"/><path class="cls-1" d="M539.41,41.73c5.43.29,8.12-3.97,10.75-.73s-2.96,7.13-5.58,8.31c-9.01,4.07-21.56,3.4-27.21-5.58-2.08-3.3-2.54-7.1-2.24-10.94.49-6.16,4.29-11.2,10.15-13.34,6.88-2.52,16.66-2.33,22.5,2.98,3.16,2.88,3.74,7.79.99,11.14-2.6,3.16-8.55,3.14-13.2,2.87-1.21-.07-2.04,1.24-1.42,2.28,1.03,1.71,2.94,2.88,5.26,3.01ZM536,30.93c.54-1.27.77-2.64.62-3.97-.18-1.65-2.51-1.92-2.98-.33-.3,1.01-.47,2.29-.56,3.53-.12,1.71,2.25,2.34,2.92.76Z"/><path class="cls-1" d="M94.98,45.8c.78.73.63,2.01-.32,2.49-4.46,2.25-8.77,3.78-13.88,2.91-9.35-1.6-8.07-15.23-7.97-22.38,0-.46-.03-.91-.1-1.34-.3-1.8-3.01-1.51-3.02.32l-.12,16.85c-.02,2.33-1.33,4.86-3.44,5.76-3.46,1.46-7.58,1.53-10.99-.06-2.19-1.03-3.35-3.76-3.35-6.25V8.1c0-2.59,1.17-5.34,3.47-6.37,3.39-1.51,7.36-1.49,10.77-.1,2.1.86,3.49,3.33,3.51,5.65l.13,12.37c.01,1.11,1.18,1.85,2.18,1.36,4.86-2.35,9.5-4.02,14.99-1.85,9.48,3.74-.08,18.88,8.13,26.64Z"/><path class="cls-1" d="M287.01,45.8c.78.73.63,2.01-.32,2.49-4.46,2.25-8.77,3.78-13.88,2.91-9.35-1.6-8.07-15.23-7.97-22.38,0-.46-.03-.91-.1-1.34-.3-1.8-3.01-1.51-3.02.31l-.12,16.85c-.02,2.33-1.33,4.86-3.44,5.76-3.46,1.46-7.58,1.53-10.99-.06-2.19-1.03-3.35-3.76-3.35-6.25V8.1c0-2.59,1.17-5.34,3.47-6.37,3.39-1.51,7.36-1.49,10.77-.1,2.1.86,3.49,3.33,3.51,5.65l.13,12.37c.01,1.11,1.18,1.85,2.18,1.36,4.86-2.35,9.5-4.02,14.99-1.85,9.48,3.74-.08,18.88,8.13,26.64Z"/><path class="cls-1" d="M20.64,29.66c.28,4.3,2.21,10.26,6.66,11.9,2.86,1.05,6.17.65,8.67-1.11,2.19-1.54,3.73-3.74,4.95-6.04,1.05-1.98,2.91-2.58,4.88-1.57,1.36.69,2.25,1.98,1.62,3.59-2.89,7.31-7.71,13.27-15.88,14.74-13.23,2.38-27.02-2.88-30.48-16.8-1.43-5.76-1.45-11.69.05-17.41C3.33,8.52,9.89,2.37,18.42.71c5.86-1.14,11.75-.91,17.51.65,5.2,1.41,12,5.57,11.58,11.77-.2,2.96-2.15,5.33-5.06,6.06-4.97,1.26-13.43.59-13.73-5.84-.12-2.47-.03-7.76-2.68-8.21-3.55-.61-4.6,3.89-4.94,6.8-.69,5.92-.85,11.75-.46,17.72Z"/><path class="cls-1" d="M182.1,34.95c.03,2.46.56,4.83,1.23,6.95.51,1.62,1.37,2.88,2.59,3.93.82.71.61,2.03-.36,2.5-6.01,2.94-14.49,5.27-18.99-.14-.45-.54-1.2-.71-1.83-.4l-3.42,1.66c-5.65,2.74-14.42,3.62-17.43-3.47-2.52-5.94-2.32-15.37-1.4-21.66.91-6.18,7.8-6.88,12.68-5.69,2.9.7,4.9,3.25,4.86,6.39-.05,3.76-.57,9.33.41,14,.39,1.87,3.14,1.42,3.01-.48,0-.03,0-.06,0-.08-.28-4.31-.24-8.57.13-12.85.25-2.87,1.74-5.43,4.35-6.49,2.97-1.21,6.14-1.23,9.21-.33,2.71.79,4.83,3.26,4.86,6.2l.1,9.96Z"/><path class="cls-1" d="M374.13,34.95c.03,2.46.56,4.83,1.23,6.95.51,1.62,1.37,2.88,2.59,3.93.82.71.61,2.03-.36,2.5-6.01,2.94-14.49,5.27-18.99-.14-.45-.54-1.2-.71-1.83-.4l-3.42,1.66c-5.65,2.74-14.42,3.62-17.43-3.47-2.52-5.94-2.32-15.37-1.4-21.66.91-6.18,7.8-6.88,12.68-5.69,2.9.7,4.9,3.25,4.86,6.39-.05,3.76-.57,9.33.41,14,.39,1.87,3.14,1.42,3.01-.48,0-.03,0-.06,0-.08-.28-4.31-.24-8.57.13-12.85.25-2.87,1.74-5.43,4.35-6.49,2.97-1.21,6.14-1.23,9.21-.33,2.71.79,4.83,3.26,4.86,6.2l.1,9.96Z"/><path class="cls-1" d="M129.61,48.96c-6.81,3.47-17.93,3.94-24.74-.13-4.32-2.58-7.05-6.77-7.51-11.82-.32-3.51.02-7,1.72-10.13,5.51-10.16,19.67-10.53,28.87-6.95,6.55,2.55,10.07,8.33,9.97,15.15-.08,6.01-2.86,11.11-8.31,13.89ZM115.14,45.74c.51.99,1.95,1.05,2.57.12.47-.71.79-1.62.88-2.33.38-2.8,1.39-15.26-.74-19.5-.54-1.08-2.03-1.19-2.68-.17-.56.88-.82,2.04-.93,3.08-.22,2.16-1.16,14.83.9,18.8Z"/><path class="cls-1" d="M321.64,48.96c-6.81,3.47-17.93,3.94-24.74-.13-4.32-2.59-7.05-6.77-7.51-11.82-.32-3.51.02-7,1.72-10.13,5.51-10.16,19.67-10.53,28.87-6.95,6.55,2.55,10.07,8.33,9.97,15.15-.08,6.01-2.86,11.11-8.31,13.88ZM307.17,45.74c.51.99,1.95,1.05,2.57.12.47-.71.79-1.62.88-2.33.37-2.8,1.39-15.27-.75-19.5-.54-1.08-2.03-1.19-2.68-.17-.56.88-.82,2.04-.93,3.08-.22,2.16-1.16,14.83.9,18.8Z"/><path class="cls-1" d="M230.05,39.93c4.67,2.38,6.36-2.81,9.31.09,1.1,1.07,1.4,2.61.58,4.14-4.27,7.94-16.07,9.1-23.84,5.83-5.55-2.34-8.99-7.08-9.56-13.01-.38-3.94,0-7.82,2.03-11.26,4.64-7.82,14.93-8.9,23.1-6.95,2.33.56,4.48,1.67,6.29,3.17,1.37,1.14,1.42,2.86.66,4.29s-2.3,1.77-4.03,1.38c-2.44-.55-5.18-.07-6.64,2.05-1.92,2.77-1.54,8.42,2.1,10.27Z"/></g></svg>