<?xml version="1.0" encoding="UTF-8"?><svg id="_レイヤー_2" xmlns="http://www.w3.org/2000/svg" viewBox="0 0 67.86 67.86"><defs><style>.cls-1{fill:none;stroke:#fff;stroke-miterlimit:1;}.cls-2{fill:#6ba;}.cls-3{fill:#fff;}</style></defs><g id="_イラスト"><path class="cls-2" d="M60.71,54.75c4.48-5.75,7.15-12.97,7.15-20.82C67.86,15.19,52.67,0,33.93,0S0,15.19,0,33.93s15.19,33.93,33.93,33.93c8.19,0,15.7-2.9,21.56-7.73l12.37,7.73-7.15-13.11Z"/><circle class="cls-1" cx="33.93" cy="32.47" r="15.82"/><polygon class="cls-3" points="33.93 22.85 37.11 28.98 44.05 30.2 39.07 35.03 40.18 42.09 33.93 38.76 27.68 42.09 28.79 35.03 23.82 30.2 30.75 28.98 33.93 22.85"/><polyline class="cls-1" points="23.06 43.95 20.11 51.21 26.38 51.21"/><polyline class="cls-1" points="44.8 43.95 47.75 51.21 41.48 51.21"/></g></svg>