<?xml version="1.0" encoding="UTF-8"?><svg id="_レイヤー_2" xmlns="http://www.w3.org/2000/svg" viewBox="0 0 67.86 67.86"><defs><style>.cls-1{fill:#ff7bac;}.cls-2{fill:none;stroke:#fff;stroke-miterlimit:1;}</style></defs><g id="_イラスト"><path class="cls-1" d="M60.71,54.75c4.48-5.75,7.15-12.97,7.15-20.82C67.86,15.19,52.67,0,33.93,0S0,15.19,0,33.93s15.19,33.93,33.93,33.93c8.19,0,15.7-2.9,21.56-7.73l12.37,7.73-7.15-13.11Z"/><polygon class="cls-2" points="40.56 16.51 19.53 16.51 19.53 51.36 48.33 51.36 48.33 24.28 40.56 24.28 40.56 16.51"/><polygon class="cls-2" points="40.56 16.51 40.56 24.28 48.33 24.28 40.56 16.51"/><line class="cls-2" x1="24.99" y1="42.79" x2="44.45" y2="42.79"/><line class="cls-2" x1="24.99" y1="36.27" x2="44.45" y2="36.27"/><line class="cls-2" x1="24.99" y1="29.75" x2="44.45" y2="29.75"/></g></svg>