<?xml version="1.0" encoding="UTF-8"?><svg id="_レイヤー_2" xmlns="http://www.w3.org/2000/svg" viewBox="0 0 67.86 67.86"><defs><style>.cls-1{fill:#ff7bac;}.cls-2{fill:#fff;}</style></defs><g id="_イラスト"><path class="cls-1" d="M60.71,54.75c4.48-5.75,7.15-12.97,7.15-20.82C67.86,15.19,52.67,0,33.93,0S0,15.19,0,33.93s15.19,33.93,33.93,33.93c8.19,0,15.7-2.9,21.56-7.73l12.37,7.73-7.15-13.11Z"/><rect class="cls-2" x="17.2" y="18.39" width="1" height="32.64"/><rect class="cls-2" x="21.86" y="41.42" width="4.68" height="9.6"/><rect class="cls-2" x="29.55" y="34.7" width="4.68" height="16.32"/><rect class="cls-2" x="37.24" y="37.03" width="4.68" height="13.99"/><rect class="cls-2" x="44.94" y="30.63" width="4.68" height="20.39"/><polygon class="cls-2" points="21.51 35.09 20.88 34.31 31.86 25.48 39.01 29.99 46.73 21.45 47.47 22.12 39.19 31.28 31.93 26.71 21.51 35.09"/><polygon class="cls-2" points="47.91 26.99 46.91 27 46.84 22.07 41.93 22.5 41.84 21.5 47.83 20.98 47.91 26.99"/></g></svg>