<?xml version="1.0" encoding="UTF-8"?><svg id="_レイヤー_2" xmlns="http://www.w3.org/2000/svg" xmlns:xlink="http://www.w3.org/1999/xlink" viewBox="0 0 541.58 133.39"><defs><style>.cls-1{filter:url(#drop-shadow-1);}.cls-2{fill:#f0f8fc;stroke:#6ba;stroke-miterlimit:10;stroke-width:2px;}</style><filter id="drop-shadow-1" x="-8.06" y="-8.8" width="566" height="159" filterUnits="userSpaceOnUse"><feOffset dx="4" dy="4"/><feGaussianBlur result="blur" stdDeviation="4"/><feFlood flood-color="#4d998b" flood-opacity=".75"/><feComposite in2="blur" operator="in"/><feComposite in="SourceGraphic"/></filter></defs><g id="_文字"><g class="cls-1"><path class="cls-2" d="M79.44,54.29c-3.91,0-7.05-1.13-9.42-3.4-2.38-2.27-3.56-5.36-3.56-9.26,0-4.24,1.28-8.01,3.84-11.31s6.2-5.81,10.9-7.53c.29-.13.44-.36.44-.69v-5.48c0-.34-.17-.51-.5-.51h-8.19c-.97,0-1.81-.36-2.52-1.07-.72-.71-1.07-1.55-1.07-2.52v-.95c0-.96.36-1.81,1.07-2.52.71-.71,1.55-1.07,2.52-1.07h8.19c.34,0,.5-.17.5-.5v-2.65c0-.96.36-1.79,1.07-2.49.71-.69,1.55-1.04,2.52-1.04h2.08c.97,0,1.81.35,2.52,1.04s1.07,1.52,1.07,2.49v2.65c0,.34.19.5.57.5h21.81c.96,0,1.8.36,2.52,1.07.71.71,1.07,1.56,1.07,2.52v.95c0,.97-.36,1.81-1.07,2.52s-1.55,1.07-2.52,1.07h-21.81c-.38,0-.57.17-.57.51v3.46c0,.29.17.44.5.44,1.51-.17,3.3-.25,5.36-.25,7.39,0,13.08,1.61,17.05,4.82,3.97,3.21,5.96,7.59,5.96,13.14,0,4.33-1.31,8.1-3.94,11.31-2.63,3.21-6.25,5.55-10.87,7.03-.92.29-1.83.19-2.71-.31s-1.47-1.24-1.77-2.21l-.57-1.77c-.29-.88-.21-1.75.25-2.62.46-.86,1.15-1.48,2.08-1.86,2.39-1.01,4.31-2.37,5.73-4.1s2.14-3.55,2.14-5.48c0-2.77-.88-4.94-2.65-6.49-.21-.21-.4-.13-.57.25-2.98,7.1-6.94,12.6-11.88,16.48-4.94,3.89-10.14,5.83-15.6,5.83ZM81.2,32.73c-3.4,2.14-5.1,4.75-5.1,7.81,0,1.64.39,2.91,1.17,3.81.78.9,1.86,1.35,3.24,1.35.08,0,.19,0,.32-.03.12-.02.21-.03.25-.03.38,0,.57-.19.57-.57v-12.16c0-.34-.15-.4-.44-.19ZM96.77,28.89c-1.85,0-3.63.12-5.36.38-.34.09-.5.28-.5.57v9.96c0,.09.05.15.16.19.11.04.18.02.22-.06,2.73-2.86,5.04-6.37,6.93-10.53.04-.13.02-.24-.06-.35-.08-.11-.19-.16-.31-.16h-1.07Z"/><path class="cls-2" d="M130.99,47.29c-.92-.34-1.59-.93-1.98-1.8-.4-.86-.43-1.75-.1-2.68,2.86-7.6,5.55-15.8,8.07-24.58.08-.34-.04-.51-.38-.51h-3.91c-.97,0-1.81-.35-2.52-1.04-.71-.69-1.07-1.52-1.07-2.49v-1.51c0-.97.36-1.8,1.07-2.49.71-.69,1.55-1.04,2.52-1.04h6.24c.34,0,.54-.17.63-.5.5-2.02.88-3.55,1.13-4.6.21-.96.73-1.74,1.58-2.33.84-.59,1.77-.82,2.77-.69l2.02.25c.97.13,1.72.58,2.27,1.36.54.78.71,1.63.5,2.55-.08.38-.21.96-.38,1.73-.17.78-.29,1.36-.38,1.73-.08.34.06.5.44.5h5.73c.97,0,1.81.35,2.52,1.04.71.69,1.07,1.52,1.07,2.49v1.51c0,.97-.36,1.8-1.07,2.49-.71.69-1.55,1.04-2.52,1.04h-7.94c-.34,0-.54.19-.63.57-2.44,9.07-5.42,18.26-8.95,27.54-.34.92-.96,1.6-1.86,2.02-.9.42-1.84.46-2.8.12l-2.08-.69ZM174.41,18.05c-.34,0-.5.17-.5.5v17.71c0,.34.15.61.44.82,2.73,1.89,5.53,4.14,8.38,6.74.71.67,1.09,1.5,1.13,2.49.04.99-.27,1.84-.95,2.55l-1.13,1.26c-.67.71-1.51,1.1-2.52,1.17-1.01.06-1.89-.24-2.65-.91-1.05-.96-2.06-1.85-3.03-2.65-.08-.08-.2-.1-.35-.06-.15.04-.24.12-.28.25-1.85,5.5-6.62,8.26-14.31,8.26-4.92,0-8.75-1.13-11.5-3.4-2.75-2.27-4.13-5.33-4.13-9.2s1.36-6.86,4.07-9.11c2.71-2.25,6.56-3.37,11.56-3.37,1.76,0,3.44.23,5.04.69.34.09.5-.04.5-.38V12.69c0-.97.37-1.81,1.1-2.52.73-.71,1.59-1.05,2.55-1.01,5.17.12,9.64.4,13.42.82.97.09,1.75.53,2.36,1.32.61.8.85,1.68.72,2.65l-.19,1.51c-.12.97-.58,1.74-1.36,2.33s-1.65.82-2.62.69c-1.68-.21-3.61-.36-5.8-.44ZM158.66,48.11c2.1,0,3.55-.46,4.35-1.39s1.2-2.71,1.2-5.36c0-.42-.17-.69-.5-.82-1.76-.88-3.45-1.32-5.04-1.32-1.98,0-3.47.39-4.47,1.17-1.01.78-1.51,1.84-1.51,3.18s.53,2.49,1.58,3.31c1.05.82,2.52,1.23,4.41,1.23Z"/><path class="cls-2" d="M195.65,54.67c-.92-.21-1.62-.72-2.08-1.54-.46-.82-.55-1.69-.25-2.62,3.57-11.34,6.49-22.46,8.76-33.34.04-.13,0-.25-.09-.38-.11-.12-.22-.19-.35-.19h-3.97c-.97,0-1.81-.36-2.52-1.07-.71-.71-1.07-1.55-1.07-2.52v-1.45c0-.96.36-1.81,1.07-2.52s1.55-1.07,2.52-1.07h5.61c.38,0,.61-.19.69-.57.08-.38.19-.9.32-1.57.12-.67.21-1.2.25-1.58.17-1.01.65-1.82,1.45-2.43.8-.61,1.7-.87,2.71-.79l2.52.19c.97.09,1.74.52,2.33,1.29s.8,1.63.63,2.55c-.04.25-.11.65-.19,1.2-.08.54-.15.95-.19,1.2-.08.34.06.5.44.5h17.46c.97,0,1.8.36,2.49,1.07.69.71,1.04,1.56,1.04,2.52v1.45c0,.97-.35,1.81-1.04,2.52s-1.52,1.07-2.49,1.07h-19.1c-.34,0-.55.17-.63.5-2.48,12.56-5.48,24.41-9.01,35.54-.29.96-.89,1.7-1.8,2.21-.9.5-1.84.65-2.8.44l-2.71-.63ZM241.16,45.78c.96-.13,1.84.09,2.62.66.78.57,1.23,1.34,1.35,2.3l.19,1.51c.13,1.01-.11,1.9-.69,2.68s-1.37,1.25-2.33,1.42c-3.45.46-6.7.69-9.77.69-6.01,0-10.79-1.1-14.34-3.31-3.55-2.21-5.33-5.03-5.33-8.48,0-2.39,1.11-4.79,3.34-7.19.71-.8,1.63-1.28,2.74-1.45,1.11-.17,2.15,0,3.12.5l1.07.51c.76.38,1.2.99,1.32,1.83.12.84-.11,1.58-.69,2.21-.8.88-1.2,1.72-1.2,2.52,0,1.22.87,2.23,2.62,3.03,1.74.8,4.19,1.2,7.34,1.2,2.69,0,5.57-.21,8.63-.63ZM222.18,29.77c-.97.08-1.82-.19-2.55-.82-.74-.63-1.14-1.43-1.23-2.39l-.13-1.26c-.08-.97.2-1.84.85-2.62.65-.78,1.46-1.21,2.43-1.29,6.81-.63,13.21-.97,19.22-1.01.97,0,1.8.36,2.49,1.07.69.71,1.04,1.55,1.04,2.52v1.26c0,.97-.36,1.81-1.07,2.52s-1.55,1.07-2.52,1.07c-6.26.04-12.44.36-18.53.95Z"/><path class="cls-2" d="M268.63,53.6c-3.57,0-6.86-2.02-9.86-6.05s-4.51-8.95-4.51-14.75c0-8.28,2.79-15.01,8.38-20.2s12.94-7.79,22.06-7.79c7.35,0,13.42,2.32,18.21,6.96,4.79,4.64,7.19,10.56,7.19,17.74,0,6.72-1.55,12.25-4.66,16.57-3.11,4.33-7.35,7.1-12.73,8.32-1.01.21-1.95.02-2.8-.57-.86-.59-1.4-1.39-1.61-2.39l-.5-2.14c-.21-.92-.04-1.8.5-2.62.54-.82,1.28-1.38,2.21-1.67,6.64-2.14,9.96-7.31,9.96-15.5,0-3.82-1.07-7.09-3.21-9.8-2.14-2.71-4.98-4.48-8.51-5.33-.29-.04-.48.13-.57.5-1.09,7.73-2.32,14.19-3.69,19.38-1.37,5.19-2.89,9.16-4.57,11.91-1.68,2.75-3.4,4.68-5.17,5.77-1.76,1.09-3.8,1.64-6.11,1.64ZM277.58,14.84c-4.29,1.13-7.64,3.29-10.05,6.46-2.42,3.17-3.62,7.01-3.62,11.5,0,2.82.56,5.37,1.67,7.66,1.11,2.29,2.13,3.44,3.06,3.44.46,0,.97-.29,1.51-.85.54-.57,1.15-1.55,1.83-2.96.67-1.41,1.34-3.17,2.02-5.29s1.37-4.86,2.08-8.22,1.37-7.14,1.95-11.34c.04-.13,0-.23-.09-.32-.11-.08-.22-.1-.35-.06Z"/><path class="cls-2" d="M319.87,10.11c-.97,0-1.81-.35-2.52-1.04-.71-.69-1.07-1.52-1.07-2.49v-.82c0-.96.36-1.79,1.07-2.49.71-.69,1.55-1.04,2.52-1.04h23c.97,0,1.81.35,2.52,1.04.71.69,1.07,1.52,1.07,2.49v.82c0,.97-.36,1.8-1.07,2.49-.71.69-1.55,1.04-2.52,1.04h-2.27c-.38,0-.57.19-.57.57v2.4c0,.38.19.57.57.57h2.4c.96,0,1.8.35,2.52,1.04s1.07,1.52,1.07,2.49v36.93c0,.97-.36,1.81-1.07,2.52-.71.71-1.55,1.07-2.52,1.07h-1.7c-.59,0-1.09-.22-1.51-.66-.42-.44-.63-.94-.63-1.48,0-.21-.11-.31-.31-.31h-13.55c-.21,0-.31.1-.31.31,0,.59-.21,1.09-.63,1.51-.42.42-.9.63-1.45.63h-2.27c-.97,0-1.81-.36-2.52-1.07s-1.07-1.55-1.07-2.52V17.17c0-.97.36-1.8,1.07-2.49.71-.69,1.55-1.04,2.52-1.04h2.65c.38,0,.57-.19.57-.57v-2.4c0-.38-.19-.57-.57-.57h-3.4ZM324.98,21.39v8.7c.04.08.1.12.19.12.76-1.76,1.13-4.71,1.13-8.82,0-.38-.17-.57-.51-.57h-.25c-.38,0-.57.19-.57.57ZM324.98,35.45v2.02c0,.38.19.57.57.57h1.96c.08,0,.16-.05.22-.16.06-.1.05-.18-.03-.22l-2.33-2.33c-.04-.08-.12-.1-.22-.06-.11.04-.16.11-.16.19ZM324.98,45.34v1.95c0,.34.19.5.57.5h13.11c.34,0,.5-.17.5-.5v-1.95c0-.38-.17-.57-.5-.57h-13.11c-.38,0-.57.19-.57.57ZM328.88,37.53c-.17.34-.06.5.31.5h9.45c.34,0,.5-.19.5-.57v-2.65c0-.34-.17-.5-.5-.5h-2.77c-1.43,0-2.31-.21-2.65-.63s-.5-1.51-.5-3.28v-9.01c0-.38-.19-.57-.57-.57-.34,0-.51.19-.51.57,0,4.16-.18,7.27-.54,9.33s-1.1,4.33-2.24,6.81ZM331.03,10.68v2.4c0,.38.19.57.57.57h.76c.38,0,.57-.19.57-.57v-2.4c0-.38-.19-.57-.57-.57h-.76c-.38,0-.57.19-.57.57ZM337.83,21.39v5.04c0,.59.08.9.25.95.08.04.27.06.57.06.34,0,.5-.19.5-.57v-5.48c0-.38-.17-.57-.5-.57h-.31c-.34,0-.5.19-.5.57ZM352.01,10.68c-.97,0-1.8-.36-2.49-1.07s-1.04-1.55-1.04-2.52v-1.32c0-.96.35-1.79,1.04-2.49s1.52-1.04,2.49-1.04h17.84c.96,0,1.8.35,2.52,1.04s1.07,1.52,1.07,2.49v24.27c0,.97-.36,1.79-1.07,2.49s-1.55,1.04-2.52,1.04h-3.09c-.84,0-1.58-.3-2.21-.91-.63-.61-.95-1.33-.95-2.17,0-.29-.15-.44-.44-.44h-4.47c-.38,0-.57.17-.57.5v16.07c0,1.13.06,1.81.19,2.02.12.21.54.34,1.26.38.17,0,.44.01.82.03.38.02.65.03.82.03.21,0,.54,0,.98-.03.44-.02.79-.03,1.04-.03.42,0,.72-.05.91-.16.19-.11.37-.43.54-.98.17-.55.28-1.29.35-2.24.06-.95.14-2.38.22-4.32.04-.97.42-1.77,1.13-2.4.71-.63,1.55-.9,2.52-.82l2.39.25c1.01.13,1.84.58,2.49,1.36.65.78.96,1.67.91,2.68-.12,2.9-.3,5.21-.54,6.93s-.5,3.16-.82,4.32c-.32,1.15-.8,2-1.45,2.52-.65.52-1.32.88-2.02,1.07-.69.19-1.69.3-2.99.35-2.1.12-4.33.19-6.68.19-1.93,0-3.8-.06-5.61-.19-1.18-.09-2.06-.2-2.65-.35-.59-.15-1.12-.36-1.61-.63-.48-.28-.81-.77-.98-1.48-.17-.71-.29-1.54-.38-2.49s-.12-2.3-.12-4.07v-23.44c0-.97.36-1.81,1.07-2.52.71-.71,1.55-1.07,2.52-1.07h10.65c.34,0,.5-.17.5-.5v-9.83c0-.34-.17-.51-.5-.51h-11.09Z"/><path class="cls-2" d="M379.17,34.88l-.88-5.17c-.34-2.14.15-4.29,1.45-6.43,3.23-5.04,5.78-11.49,7.62-19.35.21-.97.72-1.72,1.54-2.27.82-.54,1.71-.73,2.68-.57l2.21.38c.96.21,1.73.71,2.3,1.51.57.8.77,1.68.6,2.65-.88,4.5-2.08,8.61-3.59,12.35-.17.42-.25.78-.25,1.07v35.67c0,.96-.35,1.8-1.04,2.52s-1.52,1.07-2.49,1.07h-2.46c-.97,0-1.79-.36-2.49-1.07s-1.04-1.55-1.04-2.52v-20.55c0-.08-.04-.13-.12-.16-.09-.02-.15,0-.19.03-.09.17-.25.42-.5.76s-.42.59-.5.76c-.42.55-.97.75-1.64.6-.67-.15-1.07-.58-1.2-1.29ZM438.67,15.47c0,.97-.36,1.81-1.07,2.52-.71.72-1.55,1.07-2.52,1.07h-35.61c-.97,0-1.8-.36-2.49-1.07-.69-.71-1.04-1.55-1.04-2.52v-.69c0-.97.35-1.81,1.04-2.52.69-.71,1.52-1.07,2.49-1.07h35.61c.97,0,1.81.36,2.52,1.07.71.71,1.07,1.55,1.07,2.52v.69ZM398.15,54.73v-12.42c0-.97.35-1.8,1.04-2.49.69-.69,1.52-1.04,2.49-1.04h30.31c.97,0,1.81.35,2.52,1.04.71.69,1.07,1.52,1.07,2.49v12.42c0,.96-.36,1.8-1.07,2.52-.71.71-1.55,1.07-2.52,1.07h-4.6c-.5,0-.94-.18-1.29-.54s-.54-.79-.54-1.29c0-.21-.11-.31-.32-.31h-17.08c-.17,0-.25.1-.25.31,0,.5-.18.94-.54,1.29-.36.36-.79.54-1.29.54h-4.41c-.97,0-1.8-.36-2.49-1.07-.69-.71-1.04-1.55-1.04-2.52ZM402.24,27.95c-.97,0-1.79-.35-2.46-1.04s-1.01-1.5-1.01-2.43.34-1.73,1.01-2.43,1.49-1.04,2.46-1.04h29.24c.96,0,1.79.35,2.46,1.04s1.01,1.5,1.01,2.43-.34,1.73-1.01,2.43-1.49,1.04-2.46,1.04h-29.24ZM402.24,36.83c-.97,0-1.79-.34-2.46-1.01-.67-.67-1.01-1.49-1.01-2.46s.34-1.79,1.01-2.46c.67-.67,1.49-1.01,2.46-1.01h29.24c.96,0,1.79.34,2.46,1.01.67.67,1.01,1.49,1.01,2.46s-.34,1.79-1.01,2.46c-.67.67-1.49,1.01-2.46,1.01h-29.24ZM431.86,2.11c.97,0,1.81.36,2.52,1.07s1.07,1.55,1.07,2.52-.35,1.86-1.04,2.55-1.54,1.04-2.55,1.04h-28.23c-1.01,0-1.86-.35-2.55-1.04s-1.04-1.54-1.04-2.55.36-1.8,1.07-2.52c.71-.71,1.55-1.07,2.52-1.07h28.23ZM407.91,46.22v2.52c0,.34.17.5.5.5h16.57c.38,0,.57-.17.57-.5v-2.52c0-.34-.19-.51-.57-.51h-16.57c-.34,0-.5.17-.5.51Z"/><path class="cls-2" d="M453.1,54.29c-2.69-3.28-5-6.03-6.93-8.26-.63-.71-.91-1.56-.85-2.55.06-.99.47-1.8,1.23-2.43l1.51-1.2c.76-.63,1.64-.9,2.65-.82,1.01.08,1.83.5,2.46,1.26,2.98,3.57,5.42,6.51,7.31,8.82.59.76.82,1.6.69,2.52-.12.92-.59,1.68-1.39,2.27l-1.51,1.13c-.8.59-1.7.81-2.71.66-1.01-.15-1.83-.62-2.46-1.42Z"/><path class="cls-2" d="M2.11,97.73l-.76-1.64c-.42-.92-.46-1.87-.13-2.84.34-.96.95-1.68,1.83-2.14,6.93-3.78,13.13-8.19,18.59-13.23,1.72-1.6,3.76-2.39,6.11-2.39h5.67c2.35,0,4.41.82,6.18,2.46,5.46,5.04,11.66,9.46,18.59,13.24.88.46,1.48,1.17,1.79,2.11s.26,1.88-.16,2.8l-.76,1.64c-.42.88-1.08,1.48-1.98,1.8-.9.31-1.78.26-2.62-.16-2.52-1.34-4.83-2.67-6.93-3.97-.08-.08-.19-.1-.31-.03-.13.06-.19.16-.19.29-.08.92-.46,1.7-1.13,2.33-.67.63-1.47.95-2.39.95h-25.84c-.92,0-1.73-.32-2.43-.95-.69-.63-1.08-1.41-1.17-2.33,0-.13-.05-.22-.16-.29-.11-.06-.2-.05-.28.03-2.1,1.3-4.41,2.62-6.93,3.97-.84.42-1.71.47-2.62.16-.9-.31-1.56-.91-1.98-1.8ZM24.04,124.33c7.65-3.91,13.91-8.11,18.78-12.61.08-.04.1-.12.03-.22-.06-.1-.14-.16-.22-.16H9.29c-.97,0-1.81-.36-2.52-1.07-.71-.71-1.07-1.55-1.07-2.52v-1.07c0-.97.36-1.81,1.07-2.52.71-.71,1.55-1.07,2.52-1.07h42.6c.96,0,1.8.36,2.52,1.07s1.07,1.55,1.07,2.52v1.07c0,2.48-.8,4.58-2.39,6.3-6.47,6.93-14.5,12.9-24.08,17.9-.92.46-1.87.56-2.84.28s-1.74-.83-2.33-1.67l-1.07-1.64c-.5-.8-.63-1.66-.38-2.58s.8-1.6,1.64-2.02ZM30.22,82.17c-3.15,3.15-6.39,5.99-9.71,8.51-.08.04-.11.11-.06.19.04.09.1.13.19.13h19.91c.08,0,.15-.04.19-.13.04-.08.02-.15-.06-.19-3.32-2.52-6.55-5.36-9.71-8.51-.25-.25-.5-.25-.76,0Z"/><path class="cls-2" d="M72.75,132.27c-.97,0-1.81-.36-2.52-1.07s-1.07-1.55-1.07-2.52v-48.34c0-.96.36-1.79,1.07-2.49.71-.69,1.55-1.04,2.52-1.04h40.71c.96,0,1.8.35,2.52,1.04s1.07,1.52,1.07,2.49v48.34c0,.97-.36,1.81-1.07,2.52-.71.71-1.55,1.07-2.52,1.07h-3.53c-.8,0-1.48-.28-2.05-.85s-.85-1.27-.85-2.11c0-.29-.15-.44-.44-.44h-26.97c-.29,0-.44.15-.44.44,0,.84-.28,1.54-.85,2.11s-1.25.85-2.05.85h-3.53ZM79.18,85.76v12.04c0,.34.19.5.57.5h26.72c.38,0,.57-.17.57-.5v-12.04c0-.34-.19-.51-.57-.51h-26.72c-.38,0-.57.17-.57.51ZM79.18,107.06v13.11c0,.34.19.5.57.5h26.72c.38,0,.57-.17.57-.5v-13.11c0-.38-.19-.57-.57-.57h-26.72c-.38,0-.57.19-.57.57Z"/><path class="cls-2" d="M132.25,95.72c-.97,0-1.79-.36-2.49-1.07-.69-.71-1.04-1.55-1.04-2.52v-1.45c0-.96.35-1.8,1.04-2.52s1.52-1.07,2.49-1.07h6.68c.34,0,.54-.19.63-.57.12-.55.63-3.28,1.51-8.19.17-1.01.65-1.83,1.45-2.46.8-.63,1.7-.9,2.71-.82l1.83.13c.97.08,1.77.5,2.4,1.26.63.76.86,1.6.69,2.52-.25,1.72-.67,4.26-1.26,7.62-.08.34.06.5.44.5h3.03c2.94,0,5.07.01,6.4.03,1.32.02,2.71.32,4.16.88s2.36,1.09,2.74,1.58c.38.48.79,1.67,1.23,3.56s.66,3.67.66,5.33v8.29c0,15.59-3.8,23.38-11.41,23.38-2.61,0-5.99-.55-10.15-1.64-.97-.25-1.69-.82-2.17-1.7-.48-.88-.6-1.83-.35-2.84l.44-1.77c.25-.92.8-1.62,1.64-2.08.84-.46,1.74-.57,2.71-.32,2.86.76,4.77,1.13,5.74,1.13.34,0,.66-.16.98-.47s.62-.86.91-1.64c.29-.78.54-1.74.76-2.9s.39-2.66.54-4.51c.15-1.85.22-3.93.22-6.24,0-4.71-.2-7.46-.6-8.26-.4-.8-1.76-1.2-4.06-1.2h-5.17c-.38,0-.61.17-.69.5-2.48,10.71-5.59,21.09-9.33,31.13-.34.92-.96,1.61-1.86,2.05-.9.44-1.84.49-2.8.16l-1.7-.5c-.93-.29-1.6-.89-2.02-1.8s-.46-1.82-.12-2.74c3.44-9.62,6.26-19.07,8.45-28.36.08-.29-.06-.44-.44-.44h-4.79ZM176.56,113.3c-2.27-8.45-4.85-16.66-7.75-24.64-.29-.88-.22-1.74.22-2.58s1.12-1.39,2.05-1.64l2.39-.69c.96-.25,1.9-.15,2.8.31.9.46,1.52,1.18,1.86,2.14,2.9,8.19,5.48,16.47,7.75,24.83.25.92.13,1.82-.38,2.68-.5.86-1.24,1.4-2.21,1.61l-2.39.57c-.97.21-1.87.06-2.71-.44-.84-.5-1.39-1.22-1.64-2.14Z"/><path class="cls-2" d="M199.31,111.53c-.97-.21-1.72-.73-2.27-1.58-.55-.84-.74-1.74-.57-2.71.76-4.2,1.43-8.38,2.02-12.54.17-1.01.63-1.83,1.39-2.46s1.64-.9,2.65-.82l2.84.25c.97.08,1.75.5,2.36,1.26s.85,1.62.72,2.58c-.34,2.61-.67,4.98-1.01,7.12v.06h.13c5.92-3.82,11.8-5.74,17.65-5.74,6.47,0,11.2,1.24,14.18,3.72,2.98,2.48,4.47,6.35,4.47,11.6,0,5.59-2.38,9.98-7.15,13.17-4.77,3.19-11.61,4.79-20.52,4.79-3.91,0-7.84-.19-11.79-.57-.97-.08-1.76-.51-2.39-1.29s-.9-1.65-.82-2.62l.12-1.51c.08-.96.51-1.76,1.29-2.39.78-.63,1.65-.9,2.62-.82,4.41.38,8.07.57,10.96.57,5.13,0,9.1-.84,11.91-2.52,2.81-1.68,4.22-3.95,4.22-6.81,0-4.49-2.88-6.74-8.63-6.74-4.08,0-9.31,1.79-15.69,5.36-2.14,1.22-4.33,1.58-6.55,1.07l-2.14-.44ZM208.7,78.95c8.4.88,16.32,1.38,23.76,1.51,1.01.04,1.86.4,2.55,1.07s1.04,1.51,1.04,2.52v1.45c0,.97-.35,1.8-1.04,2.49s-1.52,1.04-2.49,1.04c-8.57-.12-16.87-.61-24.89-1.45-.97-.08-1.77-.52-2.39-1.32-.63-.8-.88-1.68-.76-2.65l.19-1.51c.13-.97.59-1.75,1.39-2.36s1.68-.87,2.65-.79Z"/><path class="cls-2" d="M259.37,126.28l-1.13-2.08c-.46-.84-.54-1.73-.22-2.68.32-.95.89-1.65,1.73-2.11,14.2-7.48,24.75-17.31,31.64-29.5.04-.08.03-.18-.03-.28-.06-.1-.16-.16-.28-.16h-25.34c-.97,0-1.81-.36-2.52-1.07s-1.07-1.55-1.07-2.52v-2.27c0-.96.36-1.8,1.07-2.52s1.55-1.07,2.52-1.07h33.78c.96,0,1.8.36,2.52,1.07s1.07,1.55,1.07,2.52v2.27c0,2.44-.53,4.69-1.58,6.74-2.65,4.87-5.84,9.47-9.58,13.8-.25.25-.25.51,0,.76,4.62,4.07,9.35,8.4,14.18,12.98.71.67,1.07,1.5,1.07,2.49s-.36,1.82-1.07,2.49l-1.95,1.89c-.72.71-1.57,1.07-2.55,1.07s-1.84-.34-2.55-1.01c-4.46-4.33-9.08-8.63-13.87-12.92-.29-.21-.57-.21-.82,0-6.01,5.46-12.69,10.02-20.04,13.68-.92.46-1.87.54-2.84.22-.97-.31-1.68-.91-2.14-1.79Z"/><path class="cls-2" d="M322.58,107l-1.58-1.45c-.71-.63-1.1-1.44-1.17-2.43-.06-.99.22-1.84.85-2.55,5.21-6.18,8.61-12.98,10.21-20.42.21-1.01.71-1.84,1.51-2.49.8-.65,1.68-.96,2.65-.91l2.52.19c1.01.08,1.83.48,2.46,1.2.63.71.86,1.54.69,2.46,0,.12-.04.32-.13.6s-.12.47-.12.6c-.04.12-.01.25.09.38.11.13.22.19.35.19h24.2c.96,0,1.8.35,2.52,1.04.71.69,1.07,1.52,1.07,2.49-.08,14.16-3.21,24.72-9.39,31.67s-16.05,11.21-29.62,12.76c-1.01.13-1.91-.13-2.71-.76-.8-.63-1.28-1.43-1.45-2.39l-.38-2.08c-.17-.97.04-1.84.63-2.62s1.37-1.23,2.33-1.36c9.87-1.34,17-4.03,21.37-8.07.25-.25.21-.46-.12-.63-3.11-1.6-7.02-3.49-11.72-5.67-.88-.42-1.46-1.08-1.73-1.99-.27-.9-.18-1.77.29-2.62l1.39-2.58c.46-.88,1.17-1.48,2.11-1.79.95-.32,1.88-.26,2.8.16,5.17,2.39,9.29,4.37,12.35,5.92.29.13.5.06.63-.19,1.22-3.28,1.97-7.16,2.27-11.66,0-.34-.17-.5-.5-.5h-19.03c-.38,0-.63.17-.76.5-2.27,5.38-5.5,10.31-9.71,14.81-.67.71-1.51,1.09-2.52,1.13-1.01.04-1.89-.27-2.65-.95Z"/><path class="cls-2" d="M385.54,109.2c-.97,0-1.81-.36-2.52-1.07-.71-.71-1.07-1.55-1.07-2.52v-3.03c0-.97.36-1.81,1.07-2.52s1.55-1.07,2.52-1.07h45.38c.97,0,1.81.36,2.52,1.07.71.71,1.07,1.55,1.07,2.52v3.03c0,.97-.36,1.81-1.07,2.52s-1.55,1.07-2.52,1.07h-45.38Z"/><path class="cls-2" d="M456.76,130.38c-.97,0-1.81-.36-2.52-1.07s-1.07-1.55-1.07-2.52v-45.38c0-.97.36-1.81,1.07-2.52s1.55-1.07,2.52-1.07h3.59c.96,0,1.79.36,2.49,1.07.69.71,1.04,1.55,1.04,2.52v13.23c0,.38.19.61.57.69,9.87,2.44,19.85,5.42,29.94,8.95.92.29,1.62.89,2.08,1.8.46.9.53,1.84.19,2.8l-1.01,2.84c-.34.92-.93,1.6-1.77,2.02s-1.72.48-2.65.19c-8.61-3.07-17.56-5.8-26.85-8.19-.34-.08-.5.06-.5.44v20.61c0,.97-.35,1.81-1.04,2.52-.69.71-1.52,1.07-2.49,1.07h-3.59Z"/><path class="cls-2" d="M533.08,112.29c-1.01,0-1.86-.35-2.55-1.04s-1.08-1.54-1.17-2.55l-1.26-24.33c-.04-.97.27-1.81.95-2.52.67-.71,1.49-1.07,2.46-1.07h5.67c.97,0,1.79.36,2.46,1.07.67.71.99,1.55.95,2.52l-1.2,24.33c-.09,1.01-.48,1.86-1.2,2.55-.71.69-1.58,1.04-2.58,1.04h-2.52ZM536.23,117.33c.97,0,1.81.36,2.52,1.07.71.71,1.07,1.55,1.07,2.52v2.27c0,.97-.36,1.81-1.07,2.52-.71.71-1.55,1.07-2.52,1.07h-3.78c-.97,0-1.81-.36-2.52-1.07-.72-.71-1.07-1.55-1.07-2.52v-2.27c0-.97.36-1.81,1.07-2.52.71-.71,1.55-1.07,2.52-1.07h3.78Z"/></g></g></svg>